<svg xmlns="http://www.w3.org/2000/svg" width="40" height="40">
  <rect width="40" height="40" fill="#fff" rx="5" ry="5"/>
  <path fill="#3a9d00" d="M34.577 29.42c.18-.09.358.18.27.537-.09.36-.27.628-.45.717-.268.09-.358-.18-.358-.448v-.09c-.36-.18-1.53-.985-1.53-.896-.54 1.166-2.33 2.6-3.23 3.227-.18.09-.36.27-.54.358 0 0 .18-.09.54-.358 2.24-1.703 4.03-4.84 3.04-7.17-.896-2.15-4.123-3.137-6.363-.986-6.184 6.01 1.613 8.25 3.943 5.29 2.42-3.13-1.162-5.37-2.51-2.33-.265.54 0 .9.45.99 0-.09-.09-.27 0-.36.09-.53.54-.98.988-.98.45 0 .807.36.718.9 0 .18-.09.36-.18.54-.09.09-.09.18-.18.18-1.343 1.434-4.39.09-1.61-2.69 2.15-2.15 5.29.72 2.78 4.214-1.436 1.883-3.945 2.24-5.737 1.166-1.614.625-3.585 2.69-4.21 3.135.09.09.09.18.09.358 0 .626-.81 1.343-1.706 1.7-.985.36-1.88.09-1.88-.626s.894-1.526 1.97-1.796c.266-.09.535-.09.715-.09.805-.712 3.94-3.042 3.763-3.85-.45-.72-.718-1.613-.54-2.69-1.79-2.33-9.68-5.555-11.29-6.54-.718.447-1.794.626-3.138.447-2.51-.36-4.93-1.79-5.02-3.405-.09-1.524 2.15-2.24 4.84-1.614 2.33.626 4.03 2.06 4.03 3.315v.27c1.882.63 9.23 4.305 12.19 4.395.18-.27.446-.45.715-.72.45-.36.896-.72 1.434-.9-.45-3.137-4.303-10.845-5.468-13.444-.09 0-.18-.09-.18-.09-1.344-.805-2.51-2.6-2.42-3.763 0-1.25 1.255-1.34 2.6-.352 1.254.985 2.15 2.51 2.06 3.584 0 .18-.09.45-.18.538h.09c.27.09 4.033 11.114 5.736 13.086.54 0 .99.18 1.438.27 1.165-1.7 2.06-6.18 2.33-7.35-.09-.27-.09-.444-.09-.713.09-.63.45-.898.897-.54.357.36.626 1.075.536 1.612-.09.45-.27.714-.534.714-.27.984-1.525 4.39-1.615 7.17.36.27.63.626.808.984 0 .09 2.51-1.61 3.316-2.15v-.27c.09-.447.36-.716.54-.626.27.09.36.536.27.894-.09.445-.27.714-.54.625-.09 0-.09-.09-.18-.09-.624.54-2.775 2.06-3.044 2.78.18.895.09 1.88-.18 2.78 0 .087 1.166.894 1.525 1.163.09-.09.09-.09.18-.09"/>
</svg>
