<?xml version="1.0" encoding="UTF-8" standalone="no"?>
<svg
   xmlns:dc="http://purl.org/dc/elements/1.1/"
   xmlns:cc="http://creativecommons.org/ns#"
   xmlns:rdf="http://www.w3.org/1999/02/22-rdf-syntax-ns#"
   xmlns:svg="http://www.w3.org/2000/svg"
   xmlns="http://www.w3.org/2000/svg"
   xmlns:sodipodi="http://sodipodi.sourceforge.net/DTD/sodipodi-0.dtd"
   xmlns:inkscape="http://www.inkscape.org/namespaces/inkscape"
   version="1.1"
   width="40"
   height="40"
   id="svg2"
   inkscape:version="0.48.5 r10040"
   sodipodi:docname="janun_logo_whitebg.svg">
  <metadata
     id="metadata10">
    <rdf:RDF>
      <cc:Work
         rdf:about="">
        <dc:format>image/svg+xml</dc:format>
        <dc:type
           rdf:resource="http://purl.org/dc/dcmitype/StillImage" />
      </cc:Work>
    </rdf:RDF>
  </metadata>
  <defs
     id="defs8" />
  <sodipodi:namedview
     pagecolor="#b4abae"
     bordercolor="#666666"
     borderopacity="1"
     objecttolerance="10"
     gridtolerance="10"
     guidetolerance="10"
     inkscape:pageopacity="0"
     inkscape:pageshadow="2"
     inkscape:window-width="1280"
     inkscape:window-height="734"
     id="namedview6"
     showgrid="false"
     fit-margin-top="0"
     fit-margin-left="0"
     fit-margin-right="0"
     fit-margin-bottom="0"
     inkscape:zoom="6.2105263"
     inkscape:cx="19"
     inkscape:cy="20.677966"
     inkscape:window-x="0"
     inkscape:window-y="27"
     inkscape:window-maximized="1"
     inkscape:current-layer="svg2" />
  <rect
     style="fill:#ffffff;fill-opacity:1;stroke:none"
     id="rect2987"
     width="40"
     height="40"
     x="0"
     y="0"
     rx="5"
     ry="5" />
  <path
     d="m 34.576666,29.419668 c 0.179246,-0.08962 0.358492,0.179246 0.268869,0.537738 -0.08962,0.358493 -0.268869,0.627362 -0.448115,0.716985 -0.268869,0.08962 -0.358492,-0.179246 -0.358492,-0.448115 0,0 0,0 0,-0.08962 -0.358493,-0.179247 -1.523593,-0.985854 -1.523593,-0.896231 -0.537738,1.1651 -2.3302,2.599069 -3.226431,3.226431 -0.179246,0.08962 -0.358492,0.268869 -0.537738,0.358492 0,0 0.179246,-0.08962 0.537738,-0.358492 2.240577,-1.702839 4.033039,-4.839647 3.047185,-7.169847 -0.896231,-2.150954 -4.122662,-3.136807 -6.363239,-0.985854 -6.183992,6.004747 1.613216,8.245324 3.943416,5.287762 2.419823,-3.136808 -1.1651,-5.377385 -2.509446,-2.3302 -0.26887,0.537739 0,0.896231 0.448115,0.985854 0,-0.08962 -0.08962,-0.268869 0,-0.358492 0.08962,-0.537739 0.537739,-0.985854 0.985854,-0.985854 0.448115,0 0.806608,0.358492 0.716985,0.896231 0,0.179246 -0.08962,0.358492 -0.179247,0.537738 -0.08962,0.08962 -0.08962,0.179246 -0.179246,0.179246 -1.344346,1.433969 -4.391531,0.08962 -1.613215,-2.688692 2.150954,-2.150954 5.287762,0.716984 2.778315,4.212285 -1.433969,1.882084 -3.943415,2.240576 -5.735877,1.1651 -1.613215,0.627361 -3.584923,2.688692 -4.212284,3.136807 0.08962,0.08962 0.08962,0.179246 0.08962,0.358493 0,0.627361 -0.806608,1.344346 -1.702839,1.702838 -0.985854,0.358492 -1.882085,0.08962 -1.882085,-0.627361 0,-0.716985 0.896231,-1.523593 1.971708,-1.792462 0.268869,-0.08962 0.537739,-0.08962 0.716985,-0.08962 0.806608,-0.716985 3.943415,-3.047185 3.764169,-3.853792 C 22.925663,29.330051 22.656794,28.43382 22.83604,27.358343 21.043578,25.028143 13.156747,21.801712 11.543532,20.815858 10.826547,21.263974 9.7510702,21.44322 8.4067241,21.263974 5.8972779,20.905481 3.4774548,19.471512 3.3878317,17.858297 3.2982087,16.334704 5.5387856,15.61772 8.227478,16.245081 c 2.3302,0.627362 4.033038,2.061331 4.033038,3.316054 0,0.08962 0,0.179246 0,0.268869 1.882085,0.627362 9.231177,4.301908 12.188739,4.391531 0.179246,-0.268869 0.448115,-0.448115 0.716985,-0.716984 0.448115,-0.358493 0.896231,-0.716985 1.433969,-0.896231 -0.448115,-3.136808 -4.301908,-10.844393 -5.467008,-13.4434616 -0.08962,0 -0.179246,-0.08962 -0.179246,-0.08962 -1.344343,-0.8066142 -2.509443,-2.5990758 -2.41982,-3.7641759 0,-1.2547231 1.254723,-1.3443462 2.599069,-0.3584923 1.254723,0.9858539 2.150954,2.5094462 2.061331,3.5849232 0,0.179246 -0.08962,0.448115 -0.179246,0.537738 l 0.08962,0 c 0.268869,0.08962 4.033038,11.1132626 5.735877,13.0849706 0.537738,0 0.985854,0.179246 1.433969,0.268869 1.1651,-1.702839 2.061331,-6.183993 2.3302,-7.349093 -0.08962,-0.268869 -0.08962,-0.448115 -0.08962,-0.716984 0.08962,-0.627362 0.448116,-0.896231 0.896231,-0.537739 0.358492,0.358492 0.627362,1.075477 0.537738,1.613216 -0.08962,0.448115 -0.268869,0.716984 -0.537738,0.716984 -0.268869,0.985854 -1.523592,4.391531 -1.613215,7.169847 0.358492,0.268869 0.627361,0.627361 0.806607,0.985853 0,0.08962 2.509447,-1.613215 3.316054,-2.150953 0,-0.08962 0,-0.179247 0,-0.26887 0.08962,-0.448115 0.358493,-0.716984 0.537739,-0.627361 0.268869,0.08962 0.358492,0.537738 0.268869,0.896231 -0.08962,0.448115 -0.268869,0.716984 -0.537739,0.627361 -0.08962,0 -0.08962,-0.08962 -0.179246,-0.08962 -0.627361,0.537738 -2.778315,2.061331 -3.047184,2.778315 0.179246,0.896231 0.08962,1.882085 -0.179247,2.778316 0,0.08962 1.1651,0.896231 1.523593,1.1651 0.08962,-0.08962 0.08962,-0.08962 0.179246,-0.08962 l 0,0"
     id="path4"
     inkscape:connector-curvature="0"
     style="fill:#46bb00" />
</svg>
