<svg xmlns="http://www.w3.org/2000/svg" width="744.1" height="1052.4">
  <defs>
    <clipPath id="a">
      <path d="M0 0h595.3v841H0V0z"/>
    </clipPath>
    <clipPath id="b">
      <path d="M0 0h595.3v841H0V0z"/>
    </clipPath>
    <clipPath id="c">
      <path d="M0 842h595.3V0H0v842z"/>
    </clipPath>
    <clipPath id="d">
      <path d="M0 0h595.3v841H0V0z"/>
    </clipPath>
    <clipPath id="e">
      <path d="M0 842h595.3V0H0v842z"/>
    </clipPath>
    <clipPath id="f">
      <path d="M0 0h595.3v841H0V0z"/>
    </clipPath>
    <clipPath id="g">
      <path d="M0 842h595.3V0H0v842z"/>
    </clipPath>
    <clipPath id="h">
      <path d="M0 0h595.3v841H0V0z"/>
    </clipPath>
    <clipPath id="i">
      <path d="M0 842h595.3V0H0v842z"/>
    </clipPath>
    <clipPath id="j">
      <path d="M0 0h595.3v841H0V0z"/>
    </clipPath>
    <clipPath id="k">
      <path d="M0 842h595.3V0H0v842z"/>
    </clipPath>
    <clipPath id="l">
      <path d="M0 842h595.3V0H0v842z"/>
    </clipPath>
    <clipPath id="m">
      <path d="M0 0h595.3v841H0V0z"/>
    </clipPath>
    <clipPath id="n">
      <path d="M0 842h595.3V0H0v842z"/>
    </clipPath>
    <clipPath id="o">
      <path d="M0 842h595.3V0H0v842z"/>
    </clipPath>
    <clipPath id="p">
      <path d="M0 842h595.3V0H0v842z"/>
    </clipPath>
    <clipPath id="q">
      <path d="M0 842h595.3V0H0v842z"/>
    </clipPath>
    <clipPath id="r">
      <path d="M0 842h595.3V0H0v842z"/>
    </clipPath>
    <clipPath id="s">
      <path d="M0 842h595.3V0H0v842z"/>
    </clipPath>
    <clipPath id="t">
      <path d="M0 842h595.3V0H0v842z"/>
    </clipPath>
    <clipPath id="u">
      <path d="M0 842h595.3V0H0v842z"/>
    </clipPath>
  </defs>
  <g fill="#eaf7e2">
    <g clip-path="url(#a)" transform="matrix(1.25 0 0 -1.25 0 1052.36)">
      <path d="M303.7 9.4V9h-2.4v.4h2.4zm-2-11c-.7 0-1.5 0-1.8-.4v-.7c-1-.2-2 .5-2 .7 4-.7 2 2.8 6 2 0-1.3-4 0-3-1.7"/>
    </g>
    <g clip-path="url(#b)" transform="matrix(1.25 0 0 -1.25 0 1052.36)">
      <path d="M231.8 9l-5.3-.5 5.3.4z"/>
    </g>
    <g clip-path="url(#c)" transform="matrix(1.25 0 0 -1.25 0 1052.36)">
      <path d="M185.6 7.2c-1 .6-2.8.2-4.2.3l4.7.4V7m-3-2c0 .5-1 0-2-.5V4h-2c0 1 2 1.4 3 1.8V6h3s-1 0-1-.4"/>
    </g>
    <g clip-path="url(#d)" transform="matrix(1.25 0 0 -1.25 0 1052.36)">
      <path d="M154 7l1.2 1V7h-1zm-9.8-8.8c1 2.4 4.7-.3 7 1l1.2-.2c-2-.3-6.3.5-8.2-.8"/>
    </g>
    <g clip-path="url(#e)" transform="matrix(1.25 0 0 -1.25 0 1052.36)">
      <path d="M583.6 52.3c-3 .4-5.3 2.2-5.5 5.5 1 3 3 5.7 5 6.8 3 1 3-2.4 5-3 3-3.5 0-8.5-4-9.3M568 38c-1-4.2-3.8-8-6-11.5-1.6-.2-1.7 1.2-1.7 2.3 3.4 3.4 3.8 9.2 7.6 11.7 0-.3 2-2.5 0-2.6"/>
      <path d="M564.4 33c-.3-1-.4.2-1 0 2.2 0 0 1 1.2 2.2l1-2.2c-.4.4-.8 0-1.2 0m1.6 2.3l-1 .7c1 1.3.6-1.5 1.4-.2-.2 0-.4-.3-.4-.5m-3-5.5c-.5.5-1.4.6-1.3 1.2.5-.4 1.5-.6 1.3-1.2m-34.8-8c0 1.2-2.4 1-2.4 2.8-.3-1.8 3-1.2 2.4-2.8"/>
    </g>
    <g clip-path="url(#f)" transform="matrix(1.25 0 0 -1.25 0 1052.36)">
      <path d="M528.3 23.6l-.4 1v-1zm79 198.7c-6-5.7-13-8.6-20.6-11.5-1 1-3.6 0-2.8 2.3 0 2 2 3 3 4 6 4 14 6 19 10 1 1 4 3 6 1 2-3-4-4-6-5"/>
    </g>
    <g clip-path="url(#g)" transform="matrix(1.25 0 0 -1.25 0 1052.36)">
      <path d="M527.8 25.6l-1 .6 1-.6zM525 27l1-1c0 .4-.8.4-1 1m0 .6v1c.8 0 1.2-.3 1.5-1 0-.8-.8 0-1.4 0m27 114.7c-3 0-5 4.6-9 4.7-2 2-2 5.7-3 8.6 3 1.8-2 7 4 7 0 1.8 1 5-2 5.3-3-3-8-2-10-6-1 0-1 1-1 2-2 1-3-2-5-2l-1 2-2-1c0 1 0 4-2 3-3 0-2-4-4-2 0 1 2 2 2 3-1 2-4 4-7 3 0 1 1 2 1 4-1 1-2 4-5 3-1 2 2 1 2 3-3 0-1 5-5 4 1 2 3-1 5 1 7 7-2 14 3 20 4-2 9 1 12-3 4 0 4 4 5 6 2 0 5-2 6-2-1 4 4 5 3 9 0-8 8-16 7-25 2-1 2-5 5-4s6 2 7 4c3 2 4-2 6 0 1-3-5-3-5-6-2-1-6-1-8-4-3-4-1-8-3-12 1-4 2-8 4-11 6 2 0 8 4 11 2 1 4 1 4-1 1-3 0-9 5-9 2 0 5 1 5-1 4-5 2-11-1-16-2-3-6-4-9-6m22 64c3 2 1-1 2-1-1 0-2 0-2 1m-53-76c-1 0-2 1-3 3 0 2-1 3 0 5 2 0 4 0 5-2s1-2 1-4c0-1-1-2-2-3m-5 6c0-1-1-1-1 0v1c1-2 2 0 2 1 1-1 1-2 0-2m-2 1l-1 1v1h1zm-27-27c-5 1-6 6-6 11 3 1 7 1 10 0 2-1 2-4 2-6-1-2-2-6-5-5m-28-58c-6 2-6 8-9 13 1 1 3 1 2 3 4-1 7 0 10 3 3 0 5-1 6-4 3-4-4-4-1-9-1-3-5-4-8-4"/>
      <path d="M470.6 56.4c-1 0-.5-.7-.2-1-2.5 1-5.8 5.8-7 3l1.6-.5c-1.3-1-1.8-3-3.3-3l.8 2 .4-1c1 0 0 1 0 2-1 1-3 0-3 3 1 0 1-1 3 0-2 1 0 0 0 2v-1h-1c0-2 3-2 2-4 0 2 3 0 5-1-2 0-2-2-1-3 0 0-1 0 0 0m0 5c-1 0 0 1 0 1 1 1 0-2 0-2"/>
      <path d="M467.2 57.4l1 1.4-.3-.4 1-.2c-1-1-3 0-2-.8m2 2.6l-2 .5 2-.4zm-4-4.5c1 .4 0 .3 1-.3l-2 .3zm26 61.3v.6l1-.5c-1 0-1-1-1-1m-25-62l-1 1v-1zm2 7h-1 1l-1-1zm-4-9h1l-1 1zm15 36v-1h-1v1zm-14-33l-1-1v1zm12 31l1-1h-1l-1 1zm20 137c-3-1-6 2-7 3-2 4-4 9 0 12 1 1 3 1 4 2 2-2 6-2 7-5 2-5 0-13-6-13"/>
    </g>
    <g clip-path="url(#h)" transform="matrix(1.25 0 0 -1.25 0 1052.36)">
      <path d="M453.2 123c-3.4 0-4.5 3.3-5.8 5-.7 2.6-.8 6 1.5 7.7 0 1.4 2 1.5 3 1.5 2-.5 5-2.4 5-5 2-4-1-9.5-6-9M87 850c-4.8 1.3-7.4-2-10.2-4.5v-6.8C66.2 847 86.5 852 87 850m103.6-3c0-2.6.7-5.6-2.6-7 2-3.5 8.6-1.5 7.5-6.7-4-2.2-6.4-9.2-12.7-6.6l-2.5 2.2c4.8 0 15.5 6 7.7 13-1.5 1-2.8 3-5 2 1.5 3 4.8 2 7.6 2"/>
    </g>
    <g clip-path="url(#i)" transform="matrix(1.25 0 0 -1.25 0 1052.36)">
      <path d="M279 835l-2.6-2.3-5 6.8c3.3-.3 7.8-2 7.5-4.6m-114-2l2 2v-4c-6-2-10 3-10 7 3 1 5-3 7-5m13-13l-3 2-5-5 5 9c3-2 2-5 2-7m-126-2c-4 1-5-3-8-5l-3 4h10zm18-5c1-2-2-3-3-5-3 5-7-1-10 0 6 3 6 11 12 4m136-1l-5-4-5 4c2-5 6 1 10 0m15-2c1-2-1-3-3-4-1 3-4 2-7 2 2 1 7 8 10 2m-28 0c1-4-3-5-5-7-3-1-8 2-10-2-1 1-3 2-2 4 5 6 8-4 13-3s0 8 5 7m-126-8c-5 1-8-2-10-5-4 7 8 5 10 4m-20-5c-2 4-7 1-5 7h6v-6zm182 5l-5-5c3-1 2-4 2-6-4 0-6 3-10 2l-3-2c-2 2-7 4-5 7 8 5 12 0 20 4m-31-4c-4-3-6-7-11-7l-2 6c4-2 9-2 13 0m-28-2c4 0 6-3 10-2 1-3-6-6 0-9-4 0-7 6-10 0-2 3-5 3-8 3-13-12 5-20-16-29-1 3 2 7-3 9l-10-9 7-5-3-2 10-9c-5 6-9-2-15 0 2-1 4 1 5 2-1 2-5 2-7 2-7-3-5-9-5-14-4-1-5 3-8 5l5 4c-2 4-7 1-10 2 1 2-2 3-3 4h-2l3 2c-2 1-4 5-7 4-5 19 20 0 23 15-4 7-13 12-13 20h15c-1-8 10-1 13-7 7-2 10 3 15 5 1 2-1 3-2 4h-8c2 5 6 2 10 2 3-7 11-3 12 0m118-18c-4 8 6 4 7 9l-8-9zm-202 4h-9c4-1 9 9 10 0m15-7l8 12v-4l-7-7zm96 9c-3-4-8-3-10-7l5-5c-2-3-13-3-17 0l8-2c4 7 1 12 10 16 1-1 2-3 5-2M74 763v-5c-8.7 3-6-6-10-8.8-6 6.7-24.6-4-23 9.3 8.5 7 11 12.5 25 8.7 3-1 4-5 8-4m166.8 1v-5c-2.7 2-4 6-7.7 5 1 3 6 3 7 0m45-9.2c-4-.4-7 5.5-10 0-1-2 2-3 3-4.4l-3-2c-3 2.4-3 9 0 11.4l10-5zm-69-1.5l-10-9-5 7c5-.6 10 .4 13 4l8-7-5 4zm-20 0c-3-1-7-6.5-10-2-6-10.5-14-3.5-20 0h8c0-2.4 0-5.3 3-6.7 1 11 15 3.6 20 9m43-20h-10l3 2-7 7c5-4.6 14-2 15-9m-40 4.7l3 2v-2l-8 2.4c2 1 3-1 5-2m2-21c-2-1-3 1-5 2-1-1-3-3-5-3l-3 3c-8-5-15 1-25-2l13 8c10 0 17-3 26-9m-106 8c-5-10 8-9 12-14h3v-5c-4 7-13 8-20 5-3 3-5 16 5 13m91-19h-5c1 2-1 3-3 4h-5c4 6 13 1 13-4m28 0l3 2 3-2-15 7c5 0 7-4 10-6m-77-18l8 6v-7h-7zm89-6c1 2-1 3-2 4-2 1-3-1-5-3v-4c-2-1-3 1-5 2 7-1 5 9 13 6v-7zm-147 2v-2c-3 2-10 0-7 6l5-7 3 2zm132-8l2-2c-4 0-6 4-10 7l5 6c-5-5 1-7 3-12m-104 1c1 1 3 3 5 2v-2l-7 2 2-2zm13-7c-4 0-7-4-10-6l8 9 2-2zm126-5c1-2-1-3-3-4-1 1-2 3-5 2l3 4c2-1 3-3 5-3M62 645c-7.2-1-7 3-10 7l7 5c-1 3-5 2-7.2 2l5 4c1.7-3 7.5-10 5-18m172 1h5v-2l-7.5 7c-1-2 1-3 3-4m-157 1c-1-2 1-3 2-5 2-1 3.4 1 5 2.6v2l5-9c-9-4.4-13 7-17.7 9h5zm55-9c-2.6-2-6.7-6-5-12-2.5-1-3.7 1-5 2 5 2 2 7 3 11-1 1-2 3-5 2-1-1.5-3-2.6-2-4.6l3-2c-4-.6-5 3.4-8 5 0 8 10 1.5 13 6.4 6 0-1-10 7.6-9m98-18.6l5 4 7-6.7c-9 4.3-16-3-25-2-2-6 5-8 3-14-5 2.6-12 8-18 2.7-11-2-6-21-20-11l-3-3c1 2-1 3-3 5l3 2.6c-9 7-10 19-20 24v4c17 5 13-25 28-4.2-2 3-2 6-5 9l7 6.3c14-6 31-3 40-18m-138 9c-7-4-6 6-10 6l10-7zm157 3v-2l-10 4c4 0 6-4 10-3m-104-1c-4-5-10-2-13 2 5 1 7-9 12-2m-21-25c-6-3-9-13-18-9-1 2 1 3 2 4-8 3-5 18-15 11 1-3-3-7 2-9-9-3-12 6-18 9-3 6 5 6 7 9 11-7 28-4 38-16m31 8c-3 2-11 0-8 6 4-2 11 0 8-7m-11-5v-2h-5l3 2-7 7c4 0 6-4 10-7"/>
      <path d="M191.3 615.3c0-2.4.7-5.4-2.6-6.7-1.5 1-2.8 3.2-5 2.3-.5 3 4 5 7.6 4m53-9l-2.5 2c-2.8-3-6.6-5-5-9l2.4-2c-8-1-4 7-5 11h10v-2zm-88.5-4c-2.3 1-3.5-1-5-2l-2.5 6h7.5v-4zM133 591c-5 1-11.7-2-15.2 2.4l7.7 9c1.2-4.3 11.3-3.3 7.5-11.3m-80.8 8c1.5 1 2.8 4 5 3l5-4-5-4-10 9c2.2 1 3.5-1 5-2M196 577c-1.5 1.2-2.7 3.2-5 2.4l-2.5-2.3-10 7c9 5 12.2-8 17.5-7m-88.4-1l-5-4 5-4c-4 3-9.4 3-12.7 7 4-1 9 3 7 7l7-6-3 2zm63.2 2l-12.8-5c-3 8 9.3 8 12.8 5m-76-17c-4 1-7.8 3-12.6 3-1.7 6 2.8 3 5 7 3-3 11-4 7.6-9m27.8-1l-7.6-6c-4.8 3 2.6 7 0 11 4 1 5-3 7.6-4m37.8-20l-5-4c-3 5-11.5 6-15.3 2 3 2 13 5 11 11-1 3-5 3-7 3 10 0 2 10 8 14 13-7-8-19 10-25m207 16l3 7h3l-5-7zm-288-2c4 1 10-2 13 2v-5c-2 1-3-1-5-2 2-4 7-1 11-2l-3-2 5-4c-8 3-15 12-25 11l2 9c0-2 0-5 3-6"/>
    </g>
    <g clip-path="url(#j)" transform="matrix(1.25 0 0 -1.25 0 1052.36)">
      <path d="M67 553.4c1-2-1.3-3.2-2.6-4.5l-10 6c4-1 8.5-8 12.6-3m-60.7-4h-7.6c-.5 3 4 5 7.6 4v-4z"/>
    </g>
    <g clip-path="url(#k)" transform="matrix(1.25 0 0 -1.25 0 1052.36)">
      <path d="M74.5 539.8v-2.2c-3 2-10.4.7-7.6 6.8 2-1.4 3-5.5 7-4.6m5-9c-3-2.7-1-9.2-8-6.7 0 4 4 7 7 7m144-17c-4 3-10 3-13 7l-3-2-8 7c12 9 11-11 22-11m-63 3c-2 4-14-1-10 7 7 3 7-4 10-6m18-11l-8 13 7-9v-5zm-113 0c-3-1-3-4-3-7 8 0 10-13 20-9v-5c-4 1-8-2-10 3-5-6 7-13 10-18-8 6-13 9-18 14l5 5c-4 13-36 1-20 21 3-4 10-1 15-2m147-17h-7l5 5c1-1 3-2 2-4m-13-2l-8-6c1 4 1 6 0 9 1-2 4-2 7-2m-170-1c0-2-1-5 2-7h3l-5-4 5-4c-1-2-8-5-10-2l2 2-3 2 8 4c-2 4-7 11-13 9h10zm202-4l-12-12c3 2 2 5 2 7l-5 5c5-5 9 2 15 0m-63-6l2-9-3 9zm-117-8c1-1 3-2 2-4-5-6-8 3-13 3l-3 5c5 1 8-9 12-2m51-23c-17 1-2 4-10 14l3 2c8-1 3-11 8-16m83 9v-3h-5c0 3 1 6-3 7h-2c6 6 7 0 10-4m-69-4c-3 1-8-2-10 2l5 5c2-2 6-3 5-7m31-11l-5 9 7-6-3-2zm75 8l2-6h-7v7l3-2 2 2zm-23-2c1-7-8-2-10-6l5-9c-5 3-6 7-5 11 4-1 5 6 10 5m136-10l2 2 5-9-7 7zm48-5c1-2-1-3-3-4l-5 7c1-2 4-2 7-2m-156 1c-3-1-3-4-3-6 9-1 6-6 10-11l-2-3c2-7 11-13 20-11l2 2c-2 1-3 3-5 2v3c5-5 11 1 17 0-13 0-3-14-13-18-1 3 4 5 2 9-5 6-10-1-15-2-2 1-3 3-5 2 0-6 4 15-8 5-5 2 1 7 3 9-10 3-9 11-13 18 4-1 4 4 7 2m-18-11c0-5-11 1-10-7l-3 9c4-1 8-3 12-2m106-10l-10 7h2l7-7zm-13-9c-5 3 0 14-10 14 11 2 6-9 10-13m-15 9c-3-1-7-6-6-11l-3 3c1 2 3 3 2 5l-10 4c5 7 8-3 15 0m-69-2c1-7-9-2-12.8-6l-2 2c9-3 5 9 15 4m-66-6v-2c-2 2-3 4-5 3l-2-3c-1 4 6 7 7.4 3m-12.7-7c-3 4-14-2-10 7 6 3 7-4 10-6m58-3h-8c3.6 2 4.7 7 7.7 7v-7zm164 5c0-4-5-6-7-9h-2c3 3 11 3 8 9h2.5zm-70-9c-3-4-7.4-5-12.4-4l12 5-3 5c1-1 4-2 3-4m-46-2c0-2 1-5-3-6l5-4c4 1-6 0-7-4l7.2-7c1 1 4 3 3 5h2c1-3-3-4-5-6h-8c1 2-1 3.7-2 5-2 1-3-2-5-3 0-3.4 4-5 2.2-9-4 0-5.4 3.7-10 2-8-4-8-10-3-16v-2l-9.4 14c3 1.6 3 4 3 7l-5 4 2 2c-1 2-4 3-3 5h5l-2-2 8-6c-2 1-3-1-5-2-1-2 1-3 3-4 7 4 19 1 15.3 13l3 2-3 2c2 3 5 2 8 2l2-2c5 2 2 6 3 9l-5 4c-2-3-11-3-10 0h17zM25 369l-5-4.4v6.3c2.4 1 3.7-1 5-3m157-3l2.4 2c1.5-1 2.8-3 5-3l2.6 2-8-7-5 4-5-5c2-6 13.2-4 10-12-6.7 7-15 10-12.6 21 2.7-2 5.2-6 10-5m139-4l2.7 2c3-2 4-6 8-5-2-3-9-4-15-5 1 3-3 4-5 6-2 1-3-1-5-2 0-4 1 6 5 7l-3 2c3-2 5-9 13-7m-33-4c2-1 3-3 5-2v-2l-5 4c-1-3-5-2-7-2 12 1 4 13 16 12l-8-9zm-195-7c1-7-9-5-10-9-2 3-6 5-5 9l8 6 8-7zm109 4c-1-3-5-2-7-2l-2 5c4 0 6-4 10-2m124-9c3 0 6-1 8 2v2h3v-5c-2 1-3-1-5-3v-4c-4 0-6 4-10 6l3 4c-1-2 2-3 3-4m-63-1l10 4c1-7 8-13 15-14-9-7 6-13 10-16h3l-2-3-2 2-2-3-10 9c-11-9-11 9-18 9l-5 14c-1-2 1-3 3-5m-248-9c-7-3-5 4-8 7l7-7zm121 1c-8-6 4-11 8-16h2c1-4-4-5-5-7 5 2-1 6-3 9-7-2-5 4-7 7-1 4 1 8 5 7m-83-6c1 4-4 5-7 4l10-2-2-2zm8-9c-3 0-6 1-7-2l3 7 5-4zm260-4l-5-9c-4 0-5 3-10 2l5 9c4 0 6-4 10-2m-274-7l5 6c3-6-4-16-5-21-3 1-8-2-10 2 3 0 6 1 8-2 1 4 9 8 3 11-6-4-16 2-20-7-2-6 4-9 5-13l-2-2c3-1 3-4 3-7-1 5-6 2-10 3l8 5c-8 6-1 12 0 18 4 2 8 9 0 12-4-2-1-8-7-7l5 4c-2 2-4 6-7 5 1 8 12 3 18 4 2-4 6-7 10-11m89-3h-8l3 7c3 1 5-3 5-6m-71-4c1-1 4-2 3-4-8 4-1 8-2 14 0-3 6-7 0-9m83-14c-1-3-6-4-5-7l-5 4c-3 4 5-6 8 0l-5 7 8-4zm144-4c3 2 4 6 8 5 1-2 4-3 3-5l-2-2-2 3-2-2-5 4-2-2v4l5-4zm-48-8l-7 8 13-2-5-5zm30-16l-5 11c-6-3-10-11-2-13-2-1-3 1-5 2-2 6 7 10 0 14h-2c2 1 3 3 5 2 8-3 7-10 10-16m-240 9c-1-2 1-4 3-5h5c1-2-1-3-2-5l-10 9h5zm-5-9c-2 1-3-1-5-3v-4c-3 0-6 1-7-2 4-6 10-4 16-5l3 2-3 3c4-1 5 3 8 4 0-5 11-13 0-16 7-3 2-19 13-12 3-2 3-5 3-7-2 1-4-1-5-2v-4c-8-1-13 1-18 7l3 2c0 7-8 6-12 9v4c2 0 6 0 7 2-6 5-11 9-19 14l-10 2c6 0 14-7 18 2v7c5 1 8-2 10-5m48-12l-5 13 5-7v-6zm139 1h-3l5 9c1-4-4-5-2-9m-117-9c-11 1-6 13-15 16 13 1 8-12 15-16m187 0l-17 9c-6-4-9-9-7.2-16 9-2 17 3 26-5v-2c-3 1-7 1-10 4-1-2-3-3-2-5-5-3-12 7-12.2-2h-3c-.4 3 4 5 2 9l-5 4c10 0 1 10 7.8 13 7.8-4 23-1 23-12m-223 0c-5 1-8-2-10-5v-2c-3-1-4 1-6 2 4 5 10 7 15 9v-5zm22 0v-2c-6-2-3 2-7 4 3 0 6 0 8-3m136-9c2.2 4 8.3 1 12.3 2v-2c-2-1-3 1-5 2-15.4 1-14-33-28-11-3 1-2 4-2 7 5.5 0 10-13 15.4-2-3 1-4 5-8 4 2 6 10 3 15 0m22-12c-1-2 1-3 2-5l7 2c1-2-2-4-3-5l-2-1-20 11 1 1c1-2 7-6 12-4m-173-9c-2-1-3 1-5 2l-2-2c-2 3-5 3-8 3 6 0 12-1 15 5l-5 4c1-4 13-5 5-11m220 3h-5v4h5v-4zm-249-8c-4-1-6 3-5 6h5v-6zm159.8-6c-2-7-18-6-10-14 5-1 7.8 2 10 4l-5-5c2-3 5-2 8-2-1.5-4 2-7 5-9-8-3-3-10-8-14 2-2 3-6 7-5v-4c-3 1-6-2-5-5v-9l-3 2c-8-5 4-12-3-16l-5 4c1 13 7 27 5 38l-10-7-8 9c2-1 3 1 5 2l5-5 5 4c-5 10-29 12-18 27 6 3 16 3 22 0m-119-1l2 2c0-4-4-5-3-9-5 2-5 4-5 9 2-1 3-3 5-2m46-1c1-4-2-9 2-11l-8 11h5zm33-14l-10 7-3-2c6-9 14-16 22-21-3-5-9-1-12 0-1 2 1 3 2 4-10 3-10 21-23 11 2-1 3 1 5 2 1 2-2 3-3 4-2-1-3-3-5-2 2 4 11 0 10 6l15-2v-9zm76-1c7 2 7-2 10-7-11-2-16 21-25 7l10-9c-7 2-12 9-15 12l15 9c-1-5 1-9 5-12m-94-9c-6 0-16-1-13 7 6 2 10-6 12-7m116-8c1 1 3 3 5 2v-4c-4 0-5 4-8 5l-11-11c3 3 8 15 13 9m-97-10c-4 1-6-3-8-5 3 6-5 6-8 9-3 0-6 0-8-2-1-4 3-5 5-7-1-2-4-3-3-5 2-4 6.7-1 10-2 1.7-4-2-6-5-9 1 12-24 18-7.3 30 14 5 9-14 23-9m78 8c-9-2-4-13-13-17 1 4-4 5-5 7l5 5-3 3c6-2 10 4 15 5"/>
      <path d="M195.2 143.2v-4.4l-7.6 9c3.8 1 5-3.2 7.6-4.6m-131.5-3.4c-4.8-1.6-1.5-5.8-2.6-9h-2c-3 6 8 9 0 13.5l5-4.5zM238 120.4l-12.6 11.4-7.6-6.7-2.5 3c6.6 3 13.7 10 20.2 2 1-1 9-6 2.5-9m58-3c-.2-3-6.8-2-10-4-3.6 1-3.6 6 0 7 3.5-1 8.3 2 10-2m-73.4-18c-3-1-2.5-4-2.5-6l-2 7h5zm106-5c-.4-8-7.7-6-15-6-6.6 4 1.4 8 2.4 11 6 2 8.7-3 12.7-4m-96-10c3.2-2 0-8-2.7-11 .3-2-4.3-4-7.6-4l10.2 9c-2.8 3-10.6 4-7.5 9l5-4 3 3zm111-3l2.7 2c-1.6-2-5-2-7.6-2-4.3 5-5-3-2.5 5 2.5-1 3.7-6 7.5-5m-144-13c-2.8-8 3.2-11 7.2-15-4-2-1-7-2-11-14 7-14 13-15 25h10zm176.6-17c-1.5-2-4.8-2-7.6-2-3.8 2-3.7 9 0 11 0-4 5-6 7.6-9m30.2-21L394 27c4.5 7.4-15 18.2 2.6 18l10-13.6zm-171.8 3c0-2 .7-5-2.6-6-1 1-9 6-2.5 9 2.3 1 3.6-1 5-2"/>
    </g>
    <g clip-path="url(#l)" transform="matrix(1.25 0 0 -1.25 0 1052.36)">
      <path d="M86.2 52c7-.4 4.2-6.7 6-10.4-4 1.2-3-5.5-6.4-1.8-2.5 4.2 1.4 8 .4 12.3M152 20c2.4-.2 2.6-2.5 3.5-4.2 2 .3 4 1.6 5.5-.3L149 14l3 6zm-45.7 27.4l-8.5-5.8 5.2 5 3.3.8zM178 9.6l-8 1.3 6.6 1 1.6-9c1.8 2 .2 4-.2 6m-58 38l7.4 3c-.3 5-7 5-10 8 0 2 2.3 2 4 3 5-3 7-12 15-10l1 2 5-7c-4 1-8.3 6-12.4 3l1-16c-2.3 2-2.5 12-10.7 12m61-25c2.5-2 8-2 8-7-6-4-7.5 5-8 6m-30 25c2.4-1 5.6-3 5.7-6l6.8 2 2.6-6 3.3 1-1-7c-11.7 1-8.7 13-17.4 16m-93.5 56l.6-10-3.8 9 3 1zm118-58c3.8-1 3-5 4.8-7 7 6 13.2-4 15-10-6.4 10-17 5-20 17m74-39c3.7-4 7.4-2 11-1l3 6c6-12-14.5-8-14-6m-92 47c1 2 1.6 5 5.2 5-.3 4-7 5-4 9 4.7 0 9.8 5 14.4 0l1.3-3c-4.7 1-16.7 1-12.7-9 1-2 1-4 3.4-5-2.6-2-5.3 0-7.8 1M83 103l3.3 1 1.7-8c-2.7 1.7-6 5.3-4.7 7.4m103-48l-3.2-1 2 4c6 0 7-7 7-10.3-4 1-3 6-5 8m-6 17l2-3 7 2-8-6c-2 3 0 5 1 7m114-53c3-2 6 1 9 1v-5l-9 5zm-14 12c0 3 3 3 5 3 0-6 6-2 9-4-6 0-10-7-13 2M159 91l6.5 2 2.5-6c0 6-6 2.3-9 4.5m-12.6 8.7c0 2.2 2.5 2.3 4.2 3 0-3.4 3.3-4.2 5.8-5.4-1.5-.3-9.4-4.4-10 2.4m25-12.2c.5 3.4 5 2.4 7.4 3.7 3.6-.7 6.4-5.3 10-2.4.6-1.7 2.2-3.7.4-5-7.3-4-5.4 6-10.4 7.4-5 1.6-3.2-7-7.5-3.8m117.4-48c3.7-4 7.5-2 11-1 .2-8-10-2-11 0m21-3c.4-5 5.6-5 1.7-9l-4.6 2 3 6zm-166.2 74l6.5 2c-2.3 2-.3 5 .7 7 3.6-2 3.5-6 8-7l3.4 1c1-3 4-6 2-9-9-1-11 5-20 5m29-10c5 0 8 3 12 1v-7c-2 4-6 6-11 5m26-10c-3 1-3 6-8 6 1 3 8 3 4 8 3-1 4-8 9-4 0-3 3-4 6-5 17 5 5 20 27 19 0-4-5-6-2-10l13 4-4 7 3 1-5 12c2-8 9-2 14-7-1 1-3 0-5 0 0-3 3-4 6-6 7 0 8 6 10 10 4-1 3-5 5-7l-7-1c0-5 5-4 8-7-2-2 0-4 1-5l2-1-3-1c2-3 1-7 5-8-3-20-18 8-27-4 0-8 6-17 3-24l-14 7c5 7-8 5-8 11-5 4-10 1-15 2-1-1 0-3 1-5l7-3c-4-3-7 2-10 3 0 8-9 8-12 5m-100 67c0-8-7 0-11-4l11 5zm180-91l9-4c-4 2-13-4-9 4m-11 13l-12-7 2 4 10 3zm-90 34c4 2 8-1 12 2l-3 6c4 2 14-3 16-8l-6 5c-7-4-6-10-16-10-1 2-1 4-3 5m120-37l2 4c6-7 8 3 13 3 2-9 24-7 16-18-10-3-15-7-26 3-2 2-1 6-5 7m-150 73l2 4c2-2 1-6 5-7-2-2-7 0-6 3m-37 28c3-1 4-8 9-4 2 2 0 4 0 6l3 1c2-4-1-10-5-10l-7 8zm62-28l13 4 2-8c-4 3-9 4-13 2l-4 9 3-7zm18-9c3 0 10 3 10-2 10 7 14-2 19-9l-7 4c1 3 3 5 1 8-5-10-15 3-22 1m-35 40l9-5-3-1 4-10c-2 6-12 8-9 15m34-22l-3-1 1 2 5-5c-3 0-3 2-4 4m7 19c2 0 2-3 3-4 2 0 4 1 5-1l1-4c9 0 13-8 23-9l-16-3c-9 4-14 9-19 19m93-53c9 6-4 12-6 17l-3 1 2 4c0-9 9-13 16-13 1-5-3-17-11-10m-72 57l4-2c-2-2 0-4 0-5l4-2c-6-3-11 5-9 9m-25 12l-3-1-1 3 10-12c-4 2-4 7-6 10m76-17l-10-3 3 6 7-3zm-76 44c-2-2 0-4 0-5 2-2 4-1 6-1l2 4c3 0 3-3 4-4-6 3-8-6-14-1l3 6zm133-63l1 2c2-4 9-6 4-10l-2 8-4-1zm-115 64l-2 3c4-2 4-7 6-11l-8-4c6 2 2 6 2 11m93-46c-2-1-4-2-6 0l1 2 6-6-2 3zm-8 11c4-2 8 1 12 1l-11-5-2 3zm-112 60c0 2 2 2 4 3 1-2 1-4 4-5l-4-3c-1 2-1 5-4 5m179-67c8-2 6-5 6-10h-9c0-4 4-5 6-6l-6-2c0 4-2 12 3 18m-155 74l-5 2 1 2 4-10c2 2 1 4 0 6m142-70c2 1 0 3 0 5-1 1-3 0-5 0l-1-2v11c10 0 8-13 11-16l-5 2zm-46 32c3 0 8 2 9 8 3-1 3-3 4-5-5 0-5-6-7-9 1-2 1-4 4-5 2 1 5 1 5 3l-1 3c4-1 3-5 5-7-3-7-9 2-14-1-5 2 5 8-3 11m-81 60l-7-2-4 9c6-8 15-4 23-9 5 4-1 9 4 13 4-5 8-13 15-10 12-3 15 16 23 1l3 1c-1-2 0-4 1-6l-3-1c5-11 1-23 8-31l-2-4c-17 2-1 28-23 16 0-4-1-7 1-11l-10-3c-9 11-27 16-28 34m120-65c9-1 3-9 6-11l-6 10zm-142 65l1 2 7-9c-3 1-3 5-8 6m94-44c5 2 10-3 11-8-5 2-3 12-10 8m29 13c7 0 14 7 20 0 0-2-2-2-4-3 5-6-4-18 8-17 0 3 5 5 1 9 9-1 8-10 12-16 0-6-7-3-11-5-8 12-24 16-27 31m-31 6c2-3 9-5 3-9-2 3-9 5-4 10m11 0l1 2 4-2-3-1 4-9c-4 2-4 7-6 11"/>
      <path d="M257.5 263.5c1 2.2 1.7 5 5.2 5 1-1.8 1.2-4 3.6-4.3-1-3.5-6-3-8.8-.7M213.8 295l1.3-3.2c4 1 8 1.3 9 5.8l-1 3.2c8-3 1-8.5 0-12.3l-9 4.4 1 2zm81.4-35c1.7-1.8 3.7-.6 5.5-.2l-.7-7.2-6.8 3.3 2 4zm25.4 0c4-3 11.3-3.3 12.6-8.7l-10.8-4.7c.8 4.4-8.8 7.8-1.8 13.4m69.6-41.6c-2-.4-4-1.6-5.5.2l-2.6 6.2 7 1.8 5-12.6c-2 .4-3 2.8-3 4.5M270 300c1-1.7 1-4 3.6-4.3l3.2 1 6-10.6c-10 0-7.5 13-12.8 14m80.3-37l6.5 2-2.5 7c2.6-3 7.4-6 8.3-11-3.6 4-9.7 2-9.7-2l-4 10 1-3zm-57.7 26l13.3-1c-1-8-12-3-14 2m76-17c3-3 5-6 10-7-1-5-4-1-8-3-2 4-9 8-3 12m-25 12l10 3c3-5-5-5-5-10-4 1-3 5-5 7m-25 35l6 2c0-6 7-10 12-9-3-1-14 2-14-5 0-3 3-4 5-5-9 5-6-9-13-9-8 13 15 14 2 27m-191 72l-6-5-2 1 7 4zm261-123c-4 1-8 7-13 4l2 4c1-2 3 0 5 0 0 5-6 4-8 7l3 1-3 6c5-5 7-16 17-21l-6-7c1 2 3 5 0 7m11-5c0 3 2 3 4 3l6-10c-3 3-4 11-10 8m56-22l7-3c-1-3-6-3-9 0l2 4zm-58 38l1 2c2-3 9-5 4-9-2 2-1 6-5 7m0 10c3 2 4 9 9 3-2-3-7-4-10-3m-122 78c2-3 7-6 8-11l3 1 4-9c-15-2-6 15-16 20m56-30c0-5 13-5 6-10-7 0-5 7-6 11m-11 18l1-15-3 12 2 4zm102-50c3 0 4 3 5 5-7 4-3 16-14 17l2 4c2-2 8-2 8-7 7 4-1 16-1 21 4-8 8-13 10-20l-7-2c-3-13 31-16 9-27-2 6-9 6-13 9m-125 76l6-3-7-2c0 2-2 4 0 5m13-3l10 3c-3-3-4-4-4-8 0 3-3 4-6 6m152-73c1 2 3 5 1 7l-3 1 6 2-2 6c1 2 10 2 10-2h-3l1-3h-9c0-4 1-13 7-14l-9 5zm-179 90l16 5c-4 0-4-3-6-5l3-6c-2 7-8 2-13 7m59-22l2 9-1-9zm108-43c0 2-2 4 0 5 7 4 5-6 10-7l1-5c-5 2-3 12-10 8m-35 42c15-8 0-4 3-17l-3-1c-6 5 3 12 0 18m-79 28l1 2 4-2c-2-2-4-4-1-7l2-1c-8-2-7 4-7 9m63-26c3-2 8-1 8-6l-6-2c-1 2-4 5-2 8m-22 23v-11l-4 10 3 1zm-69 24v7l7-3-3-6-2 4-3-1zm21-8c2 6 8-2 12 2l-1 10c2-5 2-9-1-13-4 3-8-3-11 0m-118 69l-4-1-1 10 4-9zm-40 24c0 2 2 2 4 3l2-8c-1 3-4 4-6 5m141-69c3 0 4 3 5 5-7 5-3 8-4 15l3 1c1 8-5 16-13 19l-3-1c1-2 1-4 3-4l-1-2c-2 7-11 4-16 8 12-5 9 12 19 11-2-3-6-3-7-7 2-7 9-3 14-4 1-1 1-4 3-4 2 6-10-11 5-7 4-4-4-5-6-7 8-7 4-14 4-21-2 3-5-2-7 2m21 2c2 5 10-6 12 2l-1-9c-3 3-6 6-10 8m-91 55l6-10-2 1-3 10zm15 2c4-4-6-12 3-17-11 3-2 11-3 16m10-15c3 0 9 3 10 8l2-3c-2 0-5 0-5-3l7-8c-8-4-6 7-14 7m62-28c3 8 9-2 14 1l1-3c-8 7-9-5-16 3m62-23l1 2c1-2 1-4 3-5l3 1c-1-3-8-3-8 2m14 1c0-5 13-5 6-11-7 0-4 7-6 10m-52 27l7-3c-4 0-7-4-10-3l3 6zm-150 67c2 4 7 3 11 5l2-1c-4-1-11 2-11-4l-2 1zm67-23c4 2 9 1 13-1l-14 2v-6c-1 2-2 4-1 5m42-18c1 2 1 5 5 5l-2 7c-4 1 6-2 9 1l-4 10c-2 0-5 0-5-3l-3 1c0 4 5 3 7 4l7-3c-2-1 0-3 0-5 2-2 4-1 6 0 2 3-2 7 2 10 3-1.3 3-6 8-6.3 9 0 12 6 9 13l1 2 5-18c-3 1-4-2-5-5l2.3-6-3-1c1-2 2-4 .5-5l-5 2 3 1-3.6 10c1-2 3-1 5 0s0 3 0 5c-8-1-18 6-20-5.2l-3-1 1-3c-2-2-5 0-7 1l-1.4 3c-5 0-4-5-6-7l3-6.5c3 2.6 11-1 9-4l-16 8zm211-78l7 2-3-6c-2 0-2.8 3-3.7 4m-140 71l-4-1c-1 2-1 4-4 4l-4-1 10 3 2-6 6 2c1 7-11 9-4 15 3-9 9-15 2-23-2 3-2.6 7-7 8m-124 64l-3.6-1c-2 3-1 7-5 8 3 1 10.2 0 16-2-3-2 1-5 1-8 2-2 4 0 5.6 0 2 3-3-4-7-3l1-3c-1 3 0 10-8 11.5m32-11c-1 2-1 4-3 4l1 2 3-6c3 1 5.3-1 8-2-10 5-8-10-18.6-3l11 5zm181-81c3 6 11 1 13 4 2-3 4-7 1-10l-10-2.5-4 9zm-99 44c3 2 6 0 8-1l.7-5c-4 2-4 6-8 7m-108 62c-3 1-5.7 3-8 1l-1-2-2.5 1 2 4c2-2 4-1 6 0l2 4c4-2 4-7 6-11l-4-3c2 2 0 4 0 5m57-25l-11 1c2 6-2 15-8 19 11 3 0 14-3 19l-2 1 3 1 1-3 3 1 5-12c13 4 5-12 12-16l-2-14c1 1 0 3-1 5m228-100c7 0 3-6 4-9l-4 10zm-108 50c10 3 1 12 0 18l-3 1c0 4 5 3 7 4-6 0-2-6-2-9 8-1 3-6 4-9 0-3-4-6-7-4m77-31c-2-3 1-7 5-8l-8 6 3 1zm-2.4 11c2-1 5-3 8-1l-6-5-3 6zM271 590l8.7 6c3.5-1.7 3.4-6 8-6.7l-8.4-5.3c-3.5 1.4-3.7 5.8-8 6.4M519 481l-7.5-4c.2 6 10 12.3 13.4 16 2-2.5 8-2 8-6.6-3 1.2-6 2-6 5.3-3-2.7-12-2.8-7-9 7 .8 14-8.3 21-2.8 4 4 1 9 1 14l3 1c-3 2-1 5 1 7-1-5 5-4 8-7l-9-1c4-9-4-11-8-16-4 0-11-4-5-10 4-1 5 6 9 2l-6-2c1-3 1-7 5-8-5-7-12 2-18 3 0 4-3 10-4 15m-79 41l6-4-5-5c-3 1-3 5-2 8m65-27c-1 1-2 3-1 5 6-7-3-8-4-14 2 2-3 8 4 8m-69 49c2 1 7 0 7 4l2-7c2-4-2 8-7 4l2-8-5 7zm-125 70c-3 0-6-4-9-1-1 1-2 4 0 5l3 1 1-3 3 1 2-6 3 1-2-4-3 6zm83 73l4-10-11 7 6 2zm-56-59v-12c7 0 14 5 8 11 2-1 2-3 3-5-1-6-11-5-6-12l2-1c-2 0-4-1-6 1-6 7-2 13-2 19m213-113c1 2 0 4-1 6l-5 2c0 2 2 3 4 3l5-12-4 3zm8 6c1-2 3 0 5 0l2 4c3-1 5-3 8-1 0 7-7 8-11 11l-3-1 1-3c-3 3-6 0-9 0 2 5-5 16 7 14-5 6 6 17-6 16-2 3 0 5 1 7 1-1 3 0 5 0l2 4c7-2 11-7 13-14h-3c-3-6 5-9 7-14l-2-4c-3 2-6 3-8 2 4-7 6-13 12-21l6-5c-6 3-10 12-17 6l-3-6c-5 1-6 5-7 9m-39 31l-1-14-2 8 3 6zm-126 59l2-1-8-6c1 3 5 3 6 7m108-43c10-6 0-15 7-21-12 5-2 14-7 21m-168 80l12-16c7 1 12 4 14 11-8 5-17 4-21 15l1 2c2-2 6-4 7-8 2 1 4 1 4 3 6 0 8-12 12-4l2-1c-2-3-6-3-6-7l2-6c-9 5-6-8-13-8-5 6-20 10-16 20m201-96c4-4 7-2 11-1l1 2c2 0 3-3 3-5-6-3-12-2-18-2l2 4zm-21 9l1 2c6-2 1-4 5-8-3 1-6 2-6 5m-118 68c-5-3-9 3-13 4l1 2c2-1 2-3 3-5 14-8 27 23 30-2 2-3 1-5 0-7-4 2-3 16-12 8 2-3 1-7 5-8-5-5-11 2-14 7m-15 18c2 1 0 3-1 5l-8 1c0 2 2 2 4 3h2l13-19-2-1c0 3-4 8-9 10m162-67c2 0 2-3 3-4l3 1c0-4 3-4 6-6-6 2-11 6-16 2l2-6c0 4-10 10 0 12m-199 93l4-2-2-4-4 2 2 4zm226-96c4-2 4-6 1-8l-4 2 3 6z"/>
      <path d="M417.4 540.6c5 5 18.6-3 15 7.7-3.7 3.3-7.5 1.4-11 .4l6.5 1.8c-1 3-4 4-6 5.3 3 3.2 1 7-1 10.3 8-1 6 8 12 9-2 3-1 7-5 8l2 4c2-2 6-1 6 2l4 8 1-3c9 1 1 12 9 13l2-6c-7-10-19-21-22-32l12 2 3-11c-2 2-4 1-6 0l-2 7-7-2c0-11 20-24 4-32-7 0-16 4-21 10m116 61l-4-1c1 4 6 3 6 7 3-4 3-6 1-10-1 2-1 5-4 5m-38 18c0 4 6 7 2 11l2-13-5 2zm-22 25l6-10 3 1c-1 11-5 20-11 28 5 3 9-3 12-5 0-3-2-3-4-3 8-8 0-24 16-20-2 1-4 0-6 0-2-2-1-4 0-5 2 0 4 1 5-1-4-3-10 5-12-2l-13 9 3 8zm-162 69c-8 2-6 6-6 11 10-2 5-25 19-17l-6 13c5-4 7-14 9-17l-18-2c2 4 3 8 0 12m186-68c4-3 14-6 8-12-7 1-7 10-9 12m-8 24c3-2 6 1 9 1-5-4 2-8 3-11 3-2 5-4 8-2 2 3-1 6-2 8 2 1 4 1 4 3 0 5-5 4-8 7 1 5 5 5 9 6-6-9 14-26-6-29-14 2-2 17-16 18m-25 17l2 4 3-11c-4 1-3 6-5 8m120-54c5-1 4 4 7 7l2-1c1-7-11-5-6-12l-3 7zM379 757c1.6 3 7-.8 11-.4 2.6-3 .6-7-3-6.4-2.8 2.4-8.4 2-8 6.5m73.6-16c3.3 0 4.2 2.6 5.2 5l-.7-7-4 2zm-93.3 51c4 7 10 2 16.6-1 4-6-5-6-8-9-6 1-7 6.7-10 9.7m-7 18.6l-4-1c2 2 5 0 7-1 2-6.4 6 1 0-5-2 2.5-1 6.6-5 7.5"/>
    </g>
    <g clip-path="url(#m)" transform="matrix(1.25 0 0 -1.25 0 1052.36)">
      <path d="M487 759.3c4.8 4.4 1 10-1 15.5 5.3 0 4.8 6.2 7.2 9 9.6-12.2 7.2-18 2.8-29l-9 4.5zm-152 92c2.6 2 5.3 0 7.8-1.2 2.4-3-.5-9-5-10 1.8 4-2 8-2.8 12"/>
    </g>
    <g clip-path="url(#n)" transform="matrix(1.25 0 0 -1.25 0 1052.36)">
      <path d="M470 805.2c1 2.2 1.7 5.2 5.2 5 .4-1.5 5.6-9.3-1.7-9.2-2.4.2-2.6 2.5-3.5 4.2M426 88c-.5 0-1.3-1.2-1-2.3 1 0 2.6-.4 3 .4-.6 2-1.2 3-2 2"/>
    </g>
    <g clip-path="url(#o)" transform="matrix(1.25 0 0 -1.25 0 1052.36)">
      <path d="M397.5 44.2c1.8-2.8 3 5.5 4.6 0-1-5.2-2 2.5-4 0m1 9c0-2.2 0-1.7-1-1.7 1 1.8 1 1.8 2 0 0-.7 0 1-1 1.8"/>
    </g>
    <g clip-path="url(#p)" transform="matrix(1.25 0 0 -1.25 0 1052.36)">
      <path d="M206.3 10.5l-.3 1.8c-.3-3.5-1-1-1.6-1.8l.4 1.8.4-1.8c.2 4.8 1 2.2 1.5 5.5l.8-1.8c-.4-1-.6-4.4-1.2-3.7m-2 42.3c-.2 3.4-1 1-1.4 1.8v1.8c0-2.4 0-1.8 1-1.8 0 1 1-.6 2 0-1-.7-2 1.6-3-1.8m-2-16.6c0 1.7 0 2.6-1 3.7l-1-4v-2c-1 0-1-1-1-2 0-3 0-2 1-2v-3c-1-2-1 3-2 1v-3l1 7c-1 3-2 1-2 2l1 9 3-5-1-2zm0-14.7h-1v1.8-1.8l1 3.7c0-1.7 0-2.6-1-3.7m-9 3.5l2 .2-1-2-2 2z"/>
    </g>
    <g clip-path="url(#q)" transform="matrix(1.25 0 0 -1.25 0 1052.36)">
      <path d="M190.6 76.6v-1.8H189v1.8h1.6z"/>
    </g>
    <g clip-path="url(#r)" transform="matrix(1.25 0 0 -1.25 0 1052.36)">
      <path d="M163 19.6l-.3 1.8c.3 2.7 1.2 2.7 1.5 0-.2-2.4-.7-1.8-1.2-1.8m-3.4 53.2l1.5 3.7-1-3.7zm0-16.5l.8 3.7c-1.2 10.8-1-5.2-2.7 0 0 1.6-.2 2.5-.4 3.6-.6.8-.8-2.6-1.2-3.7v3-2 3c0-1 0-3-1-2v2c0-4-1-1-1-2 1 11 3-6 3 7 1-3 2-3 3-2v3c0-1 1 1 1 2 1-5 1-10 1-13 1 1 1 7 3 3 1-5-1-8-1-9m1-35c-1-3-3 2-4-4v6h5v-3 2zm0-16c0-1 0 0-1 1l1 3c0-2 1-5 0-6m-12 51c-1 0-2 5-3-2v4c1 0 1-1 1-2 1 2 3 2 4 2v-2zm-8 13c2-3 3 5 4 0h-4zm1-30v2h2c0-2-1-2-1-2m0 38l-3-2 3 2zm0-53c-1 5-2-3-3 1h3v-1zm-4 9c1 2 2 2 3 0 0-3-2-3-2 0"/>
    </g>
    <g clip-path="url(#s)" transform="matrix(1.25 0 0 -1.25 0 1052.36)">
      <path d="M137.8 23c-.2 1.8 0 2.7.3 3.8l2-1.8c-1 1.6-1-3.7-2-2m0 9.3c0-1 0-2.5-1-1.8l2 1.8v-1.8 1.8zM129 71c-.3 2-.8 1.7-1.2 1.7.8-.5 1.4.4 2 3.7-1.5 1-2.7 5.3-4.3 3.7 1.7 5 3.3-1 5-1-.4 1-.6-1-.8-2v-2l5-2c-2.3-2-3.7 3-5.8-1m5-65c-1 3-3 2-3 2V6c-1 10-2-4-3 0 0 6 1 2 2 6 0 0 2-1 2 2-1-2.2 0-2.2 0-5m-6 9.2c-1-2.6-1-2-1-2 2 1 5 5.5 7 2h-6m6 7.2v-2h-2v2h2zm-3 16h-1l2 2c0-3-2-2-3-2m0 9.3l2 1.8-1-1.8h-1zm-1-20.2l2 1.8-1-1.8zm-3 35c3 5 1-2.7 4 0-1-4-2-.7-4 0m0-29.5l-1 1.8c0 1 2 6.3 3 2-1-1-2-1.3-3-3.8m0 36.7h-6c1-4.8 3 9.6 4 0l1 3.7 1-3.7c0 3.7 1 1 2 0-1 2.8-1-5.5-2 0m-2-22l-1-3.7c-1 6.2 2 8 0 13v-2c0 2.2 1 2 1 2l1-2 1 3.7c0-6.3-2-5.2-1-11m0 12.8c0 3.5-1 1-2 2h1v-2z"/>
    </g>
    <g clip-path="url(#t)" transform="matrix(1.25 0 0 -1.25 0 1052.36)">
      <path d="M100.2 63.5c-2 10-2-11.8-3.8 0 .4-4.5 1 .3 1.5 0V67l-1 2c1 5 2-1.2 3 0-1 0-1-4-2-5m-1-50l-2 5.3c0-1 1-2.5 2-1.8 0 3.5 1-1.8 1 0-1 .8-1-2.5-1-3.7m0 40.5l-1-3.7v3.7z"/>
    </g>
    <g clip-path="url(#u)" transform="matrix(1.25 0 0 -1.25 0 1052.36)">
      <path d="M34 6.3l-1.2-2 1 2zm-5 31.2c1-2.6 1.4 5 2.3 0H29zM26 32c0 4.4-1 3.7-1.6 3.7h-1.2v1.8c-1 3.5 1-3 1.2 1.8 1-7 .7 5.4 2 3.7l1-5.5L26 32zM9.4 43v1.8h5V43c-1.2-1-3.3.3-5 0m-1-13c.2 2.8 2 2.8 2.5 0-1-.4-2 4.5-3 0M5 15.4c1 3.7 2.6-.7 3.8-1.8-1.2-.2-2.3 3-3.7 1.8"/>
    </g>
  </g>
</svg>
