<?xml version="1.0" encoding="UTF-8" standalone="no"?>
<!-- Created with Inkscape (http://www.inkscape.org/) -->

<svg
   xmlns:dc="http://purl.org/dc/elements/1.1/"
   xmlns:cc="http://creativecommons.org/ns#"
   xmlns:rdf="http://www.w3.org/1999/02/22-rdf-syntax-ns#"
   xmlns:svg="http://www.w3.org/2000/svg"
   xmlns="http://www.w3.org/2000/svg"
   xmlns:sodipodi="http://sodipodi.sourceforge.net/DTD/sodipodi-0.dtd"
   xmlns:inkscape="http://www.inkscape.org/namespaces/inkscape"
   id="svg2"
   version="1.1"
   inkscape:version="0.48.5 r10040"
   width="179.63519"
   height="208.56"
   sodipodi:docname="person-outline.svg">
  <metadata
     id="metadata8">
    <rdf:RDF>
      <cc:Work
         rdf:about="">
        <dc:format>image/svg+xml</dc:format>
        <dc:type
           rdf:resource="http://purl.org/dc/dcmitype/StillImage" />
        <dc:title />
      </cc:Work>
    </rdf:RDF>
  </metadata>
  <defs
     id="defs6" />
  <sodipodi:namedview
     pagecolor="#ffffff"
     bordercolor="#666666"
     borderopacity="1"
     objecttolerance="10"
     gridtolerance="10"
     guidetolerance="10"
     inkscape:pageopacity="0"
     inkscape:pageshadow="2"
     inkscape:window-width="1280"
     inkscape:window-height="734"
     id="namedview4"
     showgrid="false"
     inkscape:zoom="1.1979695"
     inkscape:cx="89.361112"
     inkscape:cy="92.177966"
     inkscape:window-x="0"
     inkscape:window-y="1051"
     inkscape:window-maximized="1"
     inkscape:current-layer="svg2"
     fit-margin-top="0"
     fit-margin-left="0"
     fit-margin-right="0"
     fit-margin-bottom="0" />
  <path
     style="fill:#787878;fill-opacity:1"
     d="m 4.6747712,202.81 c -0.10482,-3.1625 -0.21732,-8.58494 -0.25,-12.04986 -0.0517,-5.48697 -0.37736,-6.54062 -2.52348,-8.16577 -2.13491005,-1.61666 -2.31142005,-2.17771 -1.32140005,-4.20014 C 1.2083512,177.1104 2.4919012,173.585 3.4322312,170.56 c 3.22467,-10.37369 12.0400498,-25.16756 17.1585498,-28.7953 6.23195,-4.4169 17.4377,-9.28132 24.87305,-10.79742 4.71581,-0.96157 8.78613,-2.42549 10.0956,-3.63098 1.66506,-1.53283 2.9912,-1.87254 5.5,-1.40888 4.50421,0.83242 13.14772,-3.19391 15.14408,-7.05442 2.26662,-4.38316 3.032635,-11.65942 1.66402,-15.80636 -0.66134,-2.00385 -3.42978,-6.319809 -6.1521,-9.591007 -4.64497,-5.581497 -4.97841,-6.362175 -5.4166,-12.681604 -0.25682,-3.703684 -0.53998,-7.633971 -0.62925,-8.733971 -0.27854,-3.432209 5.16105,-18.541786 8.62426,-23.955665 6.566375,-10.264883 16.595385,-17.33268 25.878739,-18.237642 2.85603,-0.278413 5.32924,-0.635278 5.49603,-0.793034 0.69484,-0.657206 14.40537,3.424068 17.4233,5.186471 8.15841,4.764326 13.37353,16.253457 14.47731,31.894074 0.5017,7.109207 0.21411,9.345895 -2.22342,17.292053 -1.83477,5.981222 -3.89533,10.416859 -5.97881,12.870208 -7.06527,8.319497 -10.3615,14.033797 -11.43029,19.815407 -1.82399,9.86685 -1.51836,11.57136 2.67472,14.91702 4.5107,3.59909 15.53172,9.05411 23.72974,11.74538 9.12856,2.99675 15.32902,6.48169 19.7236,11.08554 4.90608,5.13972 11.52377,18.8721 13.32239,27.64531 0.73684,3.59415 1.64626,7.5393 2.02093,8.767 0.54227,1.77688 0.17714,2.42383 -1.7901,3.17178 -2.65617,1.00987 -3.75262,4.28846 -3.75262,11.22104 l 0,3.875 -84.500004,0 -84.5000048,0 -0.19058,-5.75 z"
     id="path2987"
     inkscape:connector-curvature="0" />
</svg>
