<svg xmlns="http://www.w3.org/2000/svg" width="680" height="37" viewBox="0 0 680 37">
  <path fill="#f4fbf0" d="M682.5 0c-1 1-3 3-5.7 5h1v1c-.6 0-1.3-.4-2-.4-1.5 1-3 2-4.8 2.8-.2.4-.2 1-.2 1.4v.2h2l.2-.6v.6h2.8v-.5h.2c.4.2.4.5.4.8h3-8.4v3h1.8l.6-.3h2c.3-.2 0-.6 0-1l.4.6v.4c.6 0 1.2 0 1.2.5h-1.5l.5 1.4c.3-.3.3-.6.3-1h.7v3.6h-.3v.6l-.3.3c0 .2 0 .4.3.6-.8.7.2 1.7-.3 2.3-.2-.4-.2-.8-.5-1.2-1 .3-1.8 2-2.8.6h-.3c0 .6.3 1.3.3 2 0-.6-.5-1.4-.5-2h-1l-.6-.3h-.6c-.6 0-1.3 0-1 .3l.2.3h-.2l-.2-.4-3-.6-.3.7h-1.5l-1.6-.3 2.6.2V20l-1-.4h1c0-.3 0-.8.2-1v.3l.2.2h.2l-.4.7h5c.3-.3.3-1 1.3-1-.3.5-.4.8-1 1h1l.7.4c.2-.2.2-.4.2-.6v.6h.2c.2-1 0-1.8 1-2.3l.4.7c.3-.5.5-.8.5-1.4h-4.3c1.6-.4 3-.2 4.4 0 0-1 0-2-.5-3-.3.6-.6 1.2-.3 1.5h-.2c-.4-1 0-1.8 0-2.5l-1.2.2s0 .4-.2.5l-.4-.5h-1.8c0 1.4-.2 3-.7 4.6l.2-2.5v-2.2h.5l.3-2.8H669v.4c-.6.7 0 1.5 0 2.2H668v-2.7h-2c-6.3 2-14 2.6-21.5-2-4.5 1-8.2 1.5-11.5 1.5-3.3.3-6.4.8-8.8 0 1.7.2 3-.3 3.7 0 1.3.3 2 .2 3 0-7.8-.4-14-2.3-25-2.2-7 0-13.7.5-20.7 1.2h-.8.2-1.2l.6.2c-.3.2-.7.4-1 .4l-2-.2-18.4 2 2.7.4-.5.2h-1.7c-1.2-.3-2.4-.6-3.8 0l-1.5-.4-11.5.8-1.7-.7h-.7c-1.6-.3-3.6-.2-4.6-1-1 .6-2.4.5-4 .5-1-.3-2.4-.5-3.4-.5-3 .4-6 .8-7.4 1.2-11.4-1.3-26.2-1.3-29.2.5h9.7v.3h-10c-.2.4-.2.7 0 1h-2s.2 0 .3.2h-.3L477 15.4h-11l.6 1h-.6v-1.2c-12.5.3-26 1-36 2.2-.4-.7-1.3-1.2-2.6-1.6l.3.6-2.4-.6c.4 0 .8 0 1-.3-6-1.3-18.2-.7-30.7-.4.6.4 1.2.8 2.4.5-.2 0-.2.2-.2.3h-.2c0 .3.8.6 1 1-1 0-2.4-.4-3 .2 2.4.6 4.4 1.6 6.4 2.4h6c-1.4 0-3 0-4.2.4h-1.5l1.4.2-.7.3c-.6-.3-1.6-.6-2.6-.8H397l-.7-.4c-.5 0-.8 0-1.3.5h.3c1.3.4 1 1.6 2.6 1.6-1.8 0-3-.2-4-1l-.5.3v.3l-.7-.3h.6l.2-.2-4.5-.5h-.3c-.3-.5 1.4-1 0-1.4-.7.4-1 1-2 .7-.3-.3.3-.4.7-.7-4-2.3-3 1.6-7 1-.2-1.3 3 0 2.6-1.3-.4-.2-.6-.4-1.2-.4V17h1.3v.3c.5-.2 1-.3.8-.6-.6-.2-.8-.8-1.8-.6l1.4-1-4.2-1.5c-1.7 1.7-3.4-1-5 .6l-1.2-.5-3 .3c-.3 0 .3-.3.7-.5 0-1-2.5-1.2-3.7-.6l.7-.4c-2-1.5-6.3 0-9.3 0l1.3.6c1.4-.6 3.3 1 4.8.2 0 1.6-2-.6-3 .6-.3.4.2.6.5.7-1.7 0-1.7 1-2.7 1.7-1-.3-2-1.2-3 0l.5.3c1 .2 2.5.3 3.8.3-.2 0-1 .2-1.2.4-.3.2.3.4.5.6l-.7.3c-.4-1.7-4.5-.4-6-1.5l.6-.3-2-1 .8-.4-.7-.4c-1.4 0-3-.2-4.2.4l1.2.6c-.6 0-1-.2-1.2-.5l-.7.4c-.4.2-.7-.2-1.2-.4l.7-.2-.6-.3h.6c.3-.2 1-.3.7-.6-.2-.5-.7-.5-1-.5.3 0 .8 0 1-.4.3-.2-.3-.3-.5-.5.4 0 .7.2 1 .3L351 11l-1-.5c-1 .2-1.7 1-3 .6-1 2.6-4-.6-6.4.4-2-.3-3.8-1-6-1-1 .6 1.8 1.6-.2 2.3 1.3 0 2.6 1 3.6.5v.4c-.4-.2-.8 0-1.2.2l1 .6c-2 0-5.5-.3-7.5.6 0 .6.4 1 1 1.2-1.8-.5-2-1.5-4-1.8l-.6.3c-2-.2-7.2.8-8.6-.5-1.7.8-3.7.2-5.3-.2.4 0 .8-.3.8-.5-.4-.4-1.2-.4-2-.4 2-2.2-3.5-1-4-3.2l-1 .5c-1.8-1-4-.3-7-.3.7-.3 2-1 2.5-.4l.8-.4c.2-.2-.3-.4-.6-.6 1-1.3 3.4-.3 5-.7-.7-.6-.2-1.4-1.7-1.4l-.7.2c0-1.4-3-.5-3.5-1.7 1.5-.6 0-1-1-1H314l-30.5-.4c-2.8 0-5.5.4-8.2.6 2 0 4.4 0 5.7.6 1-.4 2.6.3 4 .3-.5 0-1 0-1.5.6l.6.3c-1 0-2 0-3-.6-1.4.8-4.6 1-5 2-2.4.3-5.2-.2-7.2 0 .2.3.6.6 1.2.4l-.8.2h6.2c1.4.5 3.6.2 4.8 1-1.7 0-2.7-.8-3.7.2h-5C269 9 265 9 263 9l-.7.2-1.2-.6 1.5-.6c-.3.4.2.6.5.7l1-.6c-1.3-1.2-6 .4-6.5-1.4L260 6v-.3h-5.3c-.5.4-.8.2-1 0l-2-.2v.3c-.4 0 .2.3.6.6.6.5 1.5.8 2.3 1h-.4c-2-1.3-4 .8-5.7-.5h.3c1 0 2.3.2 3-.4l-2.3-1.4c-2.5 0-4.5-1-6.7-.5 0-.2-.2-.2-.2-.2h2.3c-.5 0-.7-.3-1-.3l-1.6.3-2 .3h-.3C236 5.4 230 6 228 7.2L200.2 7l-4.8.6h.2l1 .4h.8v.6l-1-.6c-.4 0-1 0-1.3-.4h.4c-1.6-.4-4-.3-6-.3.4 0 .7 0 1-.5h-.2l-3.2-.2-.4.2c.8 0 1.7.5 2.5.5-1.4 0-2.8 0-3.6-.3l1.3-.4c-4.5-.2-9.3-.4-14.5-.8 0 .6 1.5.7 1.3 1.2l-1.2-.6c-2.5 1-4.3-.4-7.2 0 28.2 2.2 30.3 1.4 46.8 6 4.6 1.5 12 4 25.6 4.8l-.4.6c-2.5 3.7-11.6 3-22 1.4.4.2.6.5 1 .5-.7 0-1.3 0-2 .3 0 .4 2 .7 1.7 1.3l-3 .6c1-1-.5-1-.5-1.7-1.4.2-2.7.3-4 0 1.6 0 3-.2 4.2-.4l.6-.4h2l-.2-.2c-.7-.3-1.7-.4-2.7-.6l-7-1h-.4c-.7 0-1.2-.3-1.7-.3l-2.8.7c.6.3 2 .5 2 1-1.3-.3-2-.2-2 0-.5.4.5 1.4-1.5 1.6.3-.5-1-.6-1.4-.7 0 .6-3.6.7-1.4 1.3-3.7.7-.5-1-3.3-1l2-.6-1.2-.6-3.6 1c-1.6 1 2.2.6 2.4 1.2l-.6.2-2-.6c-1-.3-.6-1-2.6-1 1 0 2.2.2 2.8-.2l-.6-.3V19l-3.3-.3h3.4c0-.2.2-.4.6-.6H186.6V18h3c1 0 1.5-.2 1.5-.5l.6.3c-.6 0-.6.4-.6.6.2.3 1 .3 2 .3 0-.8 0-1.8 1-2.7l-1.8-.3v.2c-.7.4-1.6-.4-2.4 0 0-.3 0-.4.2-.5-4.3-.4-7.6-.4-9 .6.6.2 1.4.2 2 0h1.6v.6c.5.2 1.7 1 2.5.4.5.3 1.3.3 2 .3v.4h-3V17c-1 0-2-.3-2.7-.7v.2L183 20l-2.7-.4s-.4 0-.6.2c.2-1-.3-2 0-2.8-1 0-4.4-.2-5 0 .2.7-.5 1.3-1.8 1.6.6.6-1 1.2-2 1.8.4-.4.5-1 .7-1.4-1 .2-2.4.3-4 .3h-8.4v.3h-.2l-10-.7c0 .2-.4.4-1 .6l3 1-2 .6 1.4-.5-.5-.3c-1-.3-2.5-.3-3.5.2-1.5-.3-2-.7-2.5-1h-.7c-.8 0-.6-.5-.6-1h-1.4c-.2.2-.3.5.5.5-2 .6.3 1 .3 1.4h-.6c-1.4.3-1.5.8-.7 1h-.7V21c-.7-1 0-1.8.3-2.6-5-.2-9.8-.3-14-.2.6.2 1.6.2 2.6.2h-6c-2.4.8 1.3 1.6-1 2.5-3.5-.7-.5-1.6 0-2.5l-1.2.2h-.8l-.7.3v-.2l-2-.2 2-.2H117c-.4.3.4.7 1 .8-.6 0-1 0-1.4.2l2 .4c-.6 0-1 0-1.3-.2h-.6c-.6.7-1.3 1.5-.3 2-1 .2-1.7.6-2 1.2 0 0 0-.2-.6-.3 1.4-.6 1.4-1.5 2.4-2.3-2.2-.6 1.7-1.2-.6-1.8h-.6l-1.7.2c-.4-.2 0-.3.4-.4h-4l1.6.4-1.5.5c.8-.3-.4-.4-1-.6H96c-1 0-2-.2-3-.4l-1 .3c-.2-.5-1-.3-1.7-.3-2.3 1-4.3-1-4.3-1h1c-.3-.3-.7-.5-.7-.7-2 0-3.6.2-5 .4h-2.7c.4.4 1 .6 2.6.6-.3.4 2.4.7.6 1v.2l-1-.2c.3 0 .5-.2.8-.3-1.4 0-2.6-.5-3.4-1l-14 1.6c0 .2-.4.6.6.8h.8l2-.2-.5.4h-1.7c-.3 0-.7.2-.5.5h-1c-2-1.2-2.3 1.6-3.7-.3-1.5 1-3.6-.2-5 .4l-.6-.2c-.6 0-1 .2-1.3.4l.7.3c-1.7.2-4-.2-5.5-1-2.8-.2-5 0-7.5 0-.4.2-.4.4-.4.6-.2 0-.8-.2-.8-.5H39c-1.4.2-3.4-.4-4.4.8l1.6.6 1.4-.8 1.4.8c.4.2.8 0 1 0l-.4.3c.5 0 1 0 1.5.3l-1.2.6c.8.2.5.6.5 1 4.4.7 10 1.4 14 0v.2c4 1.4 9.3 1 14 1.2-3 0-5.8.8-8.6 0-.6.5-2 .5-2.6 1 1.3.5 2.8.6 4.3.6l-.7.4c-2.5-1-5.7.8-8.5-.4l4.6-.6c-2.3-1.3-4.3 0-6.7-1.3-1.8 1.2-5-.2-7.5.6-.4 0 0 .3.3.5 2.3-.6 5 .5 7 .6h-2l2 .7v.2l-2-1c-.3 0-.7 0-.7.4-3-.5-7.4-.5-10.4 0 .4-.5-.7-.7-1.2-1h-1.6L35 25v-.5c-1-.6-3.6-.4-4.2-.4-.3 0-.8-.2-.5-.5 3 0 6.5-.3 9.3.3 1.6-.8-.3-1.4-.6-2-1 0-2.3-.3-3 .3l-1.3-.5c-.4.6-1.4.2-2.4.3-.3-.3.4-.4.7-.6-1.3-1.2 1-1 2.3-1.7-8.8.4-8.3 0-17.3 1-3.8-.3-2-.8-5.3-1-4.4 1-7.5 1-12.7 1.5v16h286.3c-2.5-.8-5.7-.8-7.2-2.3 1.6-.7 6 0 4.6-2-.8-.6-2-.3-3-.7 1-.4 2-1 2.4-1.6l-1.8-.6c.6.2 1 0 1.4-.4.3-1.2-2.5-.2-3-1h3.5c3.6-.8-1-2 1-3l.6.2c.5 0 1-.2 1.2-.3l.7.3c.8 0 1.8.3 2.2-.2-2-.3-5.2-.3-6.8-.3l-.8.5c-3-.7-5.8 0-8.8 0-11.3 0-14.8-1-25-1.7 2 .2 3.6 0 5-.6-.3 0-.8-.3-.6-.6l.5.5c1.2.3 1.8-.3 2.6-.5-.6-1-2-1.5-4-1.7h-2v.4h-1.3v-.4h-3c1-.3 2-.3 3-.2v-.3h.7l.6.3 1 .2c1.5-.2 0-1.3 1.5-1.3.8.4.5 1-.5 1.2 1.3 0 2.3 0 3.3-.6-1.6-1-4.2-.3-6-1l.7-.2-1-.5c-1.5-.6-4-.6-5.5 0h.3c-1.7.7-3 .2-4 0h3.7c-2-.2-2.4-1.5-3-2l.6.3 1-.2c.8-.2 2.3-.7 3-.2.8 0 1.4 0 1.8-.3 6 2 14-1 18 .5 1.2-.3.4-.8 0-1l.6-.3-.6-.3 1.4-.7-.5-.3c-1-.2-1.3.4-2 .6v-.3l-9-.6c-1.7.8-3.4-.2-5-.4-.4.4-1.4.5-1.4 1l-8-.8h-1.7.3l-.7-.2h1.3c1.2-.3 2-.5 2.8 0l2.8-1c-.3.5.8.7 1 1l.8-.4h.7c1 0 2 .4 2.5-.2 2.3.2 4.8 1.2 7.2.3l2.6.6c1-.7 3.5-.3 3.8-1.3l-.3-1h3c2.5 1.5 6-.6 8.5 1 2.4-1.5 5.2.2 7.4-.4 1.4 0 3.4-.3 4.4.3-2-.2-.8 1-2 1.2.2.2.6.5 1.2.5l-.6.4c1 1 2.4-.6 3.6 0h1l-1 .3c-.7 0-1.5.4-2.3.7-1.2-1-2.5 1-3.8-.3 1 .4 1.4-.2 2-.4 0-.3.3-.8-.5-1-.2 0-.7.4-.7.7l-.7-.3c-1.6.8-2.7-.7-5 0s-5.6-1-8 .5l1.3.6-2 1c-1 1.4 2.6.4 3.6 1H269c.7 1-3.6.7-1.3 1.7 1 0 2.2-1 3.2-.3-.8 0-1 .2-1.6.3.3.2.8.3.6.6h-.6c-1 .4-.4 1-.7 1.6-2.2-.4-3.6.4-5.6.5 4.5 2-3.5.4-2.5 2.3 2.7 1 7.5.7 10.5.4 1.6.7 5.2.3 6.6.4l.5.3c1.5 0 3.5.2 4.5-.4l-.5-.4c1-.5 2.6 0 3.6-.5l-.6.3c1.8 1.3 5.7.2 8 1l-2.5 1c0-.4.2-.8-.6-1l-.8.3-.2.4c0 .3 1 .6 1 1-.5 0-.8 0-1.2.5.6.3 1.6.4 2.4.6l-.6.3c-.2.4.3.5.6.7 3.6-.8 4 .3 5.3 1-.8 0-1.8 0-2.4.6.4 0 1 .3.6.6h-2.3c-.2-.6-.2-1-1.2-1.5-1.3.7-2.3 1.4-4.3 2l1.3.6c-1.4 0-3-.7-4.4 0l2.3 1c-.7 0-1.5.6-2 .6 3 1 7 1 11 1.6-2 0-3.8 0-5.6.3-.6.3-1 1-.3 1.5h1l.7-.5v.5h391.8zM289 25.7l-.2-.4.2.4zm-.2-.4c.3 0 .2-.3 0-.3zm-50.3-12h-.4l1.3.2h.6c-.2-.3-.5-.3-1-.3zm10.5 7.4h-1.3 1.3zM165 6.4zm0 0l.5-.4-.6-.3v-.4l-2.5-.2-4.6 1c1.2 0 2.2 0 3.2.2.2-.3.2-.6 1.2-.6l-.6.2 1 .4c.8 0 1.4 0 2.2.2zm508.2 14v.2h.2v-.2zm-7.6.2h.3zm5.2-10.6l-.5-1.4-1.3.8h.3v.5h-.3zm-1.8 0v-.6l-1.7.6h1.7zM292.8 4c1 0 1.8.2 2.2.8l-.6.3c1 1 2.3-.4 3.3 0-1.4.2-2.7.4-4 1l-1.3-1-1.4.7c-.8 0-1.5 0-1.8-.2l-.6.3c.3 0-.3-.3-.7-.4v-.3c1 0 1.7-.4 2-1h2.7zm-6 .3l-.6.6V5zm118.6.3c-5 0-9.8.3-14.7.4l3 .3c1.4-.3 4.5-.7 4.7.4H399.6h-1.4c-.5 0-1 0-1.6.2l-.6-.4-.7.3c-.3.7.8 1 1.3 1 .8 0 1.8.4 2.8.5-3.5 1.6-7 0-10.3.2 0 0 .7.4 1 .3-1.5.6-4.3.6-6 0l1-.6-3-1c.4 0 1-.3.7-.6-.6-.5-2 0-3 .3l3 2c-1.5 0-3 0-4 .8l1.3.6c2-.6 3.4 1.2 5-.3 4 1.5 9 0 12.6 1.4-1-.4-3.3.6-4.3 0l-1.3 1-1.3-1c-.8.2-.8.6-.8 1-1.4 0-3-.4-4 .2 1.5.5 3 .7 5 .7l-.8.3c-.8-.2-2 .4-2.5-.2-.6.8-2 .4-3 1l6.8.6c-1.3-.2-2.3 0-3.3.5.4.2.7.5 1.2.3.6 0 2.2-.2 3.2.3 6.8-1 13.7-1.6 19.5-3h1.8c2.3-.4 4.3-1 6-1.6-.8.3-2 .4-2.7.2 1.5 0 2.8-.3 3.8-1l-.5-.2h-.6c-1.2 0-3.3-.3-4.5-1-1.8 1.6-.5-1-3 0-1-.2-2.4.3-3-.3l-.7.4 1.8 1c-1.6 0-4-.6-5 .6l1.2.5c-.5 0-1 .2-1.2.4-.3 0 .2.2.5.4-.4 0-.7-.2-1-.4l-.7.3c-.3-.2.4-.3.7-.6-1-1-3.7-.4-5.7-.5.8-1.5 3.7 0 4.5-1.4 0-.2.2-.7-.6-.8-.7 0-1.5 0-2 .3l.6.4c-.6 0-1-.2-1.3-.3 0 0 0 .2-.3.2.7-.3-.3-.7-.6-1h.2c1.5 0 3 .2 4 0h-.4c2-.8.7-2 2.2-2.7zm14.5 5.6c.3 0 .6-.2.8-.3l-1 .4zM398 6h.2-.2zm-112-.8l.5.3h-1c.2 0 .4 0 .5-.3zm-19.8 0c-.3.4-.6.4-1 .4-.3.3.3.4.5.6l-.7.4c-1 .3-1.5-.3-2.5-.3l1-.4h-2.6c.2.5-1.7 1 0 1.3 2-.6 5 1.3 7.4-.3zm32.4 0h1.7c.3.5-.4 1-1.4 1 .5-.3 0-.5-.5-.6l.3-.2zm-54.4.4l-.7.6-1.2.3c-.3 0-1-.3-.6-.6h1.7zm53 0h1l-.5.3zm102.4.5h1.7c-.7.3-1.2 0-1.7 0zm-166 .2h.2l-2 1c.2-.3-.3-.5-.6-.6 1 .2 1.5-.4 2.5-.4zm6 .3c2 .6 5 .4 7.2.4 0 0-.2.2 0 .3-2.4.3-5.6-.3-7 .3l.7.3c-.4 1.2-1.3-.3-2.7-.5h1c.8-.2.8-.6.8-1zm8 0l.4.3h-1s.3-.3.6-.3zm178.8.4H423c1 0 2 .5 3 .5.3 0 .6-.4.6-.6zm-18.8 0c.7.4 1.5.8 2 .4l.6.4c3.2 0 6.8-.4 10.4-.7zm-191.2.3c1.4.2 2.6 1 3.4 1 .7-.2 3.3.2 4.5-.4 0 .4-1.2.5-.8 1-1-.7-3.6-.5-4.4-.5-1-.6-3 0-3.6-1h1zm461 0v.4h-3zM255 7.3h1.6c-1.4 1 .4 1 2 1.3h-8c1.6 0 3.3-.3 4.8-.7.3-.3 0-.5-.4-.7zm144.3 0h.2v.2h-.2zm-178.7.2c-.2.3-.4.6-.6.6-.2-.2.3-.4.6-.5zm71 0c1 0 2 .2 3 .4l-.6.2 1.8 1c-.6.4-1.8.4-2 0l.6-.3c-1.5-1.4-5 1-7.5 1-1.8-1-4.8-.3-6-1.5h.5c.3-.2.8-.3.6-.6 3.5.3 6.5-.4 9.4-.4zM246 8c.4 0 .8.2 1 .5h-3l.6-.3h1.4zm365.3.2c.6 0 1 .7 1.6 1 .3.5 1 .7 1.5.7.4 0 .7-.5 1.2-.4-.4.3-.8.3-1.2.3-.7 0-1.3 0-1.7-.7L612 9c-.2.3-.7.4-.7.7-1.3 0-3 .2-3.6-.6h1.7c.7-.3 1.2-.5 1.6-.5zm-352.5.3c.6 0 1 .2 1 .3-.4 0-.7 0-1-.3zm162.6.6c-.3 0-.5 0-.8.2v.2s.3 0 .5.2l.8.3 1-.5h.8c-.7-.3-1.5-.5-2.2-.4zM210 9.5h.8c.2 0 .5 0 .7.2h2.7v.2h8c-2.7.4-5.3.2-8 0H212l-.5-.2c-.5-.2-1-.2-1.5-.2zm408.4 0c.4.4 1 .6 1.7.4l-1.5.3zm-11.7 0l.4.2-.3.4c-.3-.3-.7-.3-1-.3.3 0 .8 0 1-.3zM259 9.7c2 1 4.6.2 6.4.8l.7-.2v.4h-8zm279 .3l-4 .8 1.6.2c.4-.7 2.4-.3 2.4-1zm-268 .3h1c.3 0 .6 0 .7.3-.5.4-2 .4-2.5 0zm302.7.3c1.6 0 3 .3 5 .2-2.3.3-4.8 0-6.8 0h1.6zm67 0l2.2.3h-3c.2-.3.4-.3.7-.3zm-421 .2h3l-.3.3h-3zm11 0c1 0 1.5.4 2.5.4l-2.6.4c-.3-.2-.8-.3-.6-.6h.5zm5.6 0c.8 0 1.4 0 2 .3H234c.4-.2 1-.2 1.3-.2zm68.4 0c1.2 0 2.4 1 4 .3 0 .2 0 .3.2.4.3.2 1 .6 0 .8l-.8-.2c-1.8 0-1.8 1.3-2.6 2 .8 1 2-1 3 .3l-.5-.2-.4.4 2 1c-1 .2-1.3-.3-2-.6-.8.2-2-.3-2.4.3v.4l.3.2h-.3c-2.4-1-4.8 1.5-7.4 0 1 0 2.2.4 3-.2-3.7 0-7.2-.8-10.7-.6 1-.3 1.5-1 1.5-1.5l1.2.5c1.2 1 2.8-.2 4.2-.3l-.7-1c.7 0 1 .2 1.6.3l.3-.2-.4.2-.6.3c0 .5-.2 1 .6 1 1.3-1 2.5.4 3.8.4.5-.2 2-.8.7-1-.4-.2-.7 0-1 .2V13c.8-.3 2.3-.8 3 0 .3-.4 1-.5.5-.8-.3-.6-1.5-.2-2.3-.5V11c.6 0 1.3 0 2-.2zm.5 4.7l-.2-.3s0 .2.2.3zM412 10.8h2.5l-.6.3-2-.2zm3.2 0h1.3l-.7.3zm165.5 0h.2-.2zm.5 0h1.5v.3h-1.5zm-342.6.3v.2h-.6.6zm332.8.3h7.2c-2.7 0-4.7.3-7.2 0zm69 0h2.3v.3zm-426.3.4h.8l1.7.5zm375.3 0c1.3 0 2.6.2 3.7.4-1 0-2 0-3 .4-2-.2-4.4-.3-6.8-.3l6.2-.2zm-191.3 0c-.7 1.4 2 .8 3 1.4-1 .7-2.3.3-3 0 0-.3-1.5-1 0-1.2zm204 .2c3.6 0 7 .6 9.6 0l.5.2c2.4.2 5.7 0 8.6.3h.7v-.2h.4c-.2 0-.2.2-.3.2h.5v.2h-1.4c-.2 0-.2-.2-.2-.2-6.6 0-13.6.4-19.8-.6h1.5zm-26.7 0h4.2-11.4 7zm-347.7 0h1.9l.7.3-1-.2-.3.3-.5-.2h-.8.2zM507 12c.6 0 1.3 0 2 .4h-5c1 0 2-.4 3-.4zm-273.8 0c.6 0 1.2 0 1.7.2h.2c-1 .5-2.8.5-3.8 0 .4-.2 1-.3 1.8-.3zm395.4 0l.7.3.7-.3.7.4c4.3-.5 8.5-.3 12.6 0l.4-.2.7.2h.3c1.7 0 3.4.3 5 .4l.8-.2.6.3c1.5 0 3 .2 4-.6 2 .4 4.5.4 7.3.6v-.6l-.5-.2h.5V12l.5 1 5 .2c-4.2 0-8.3 0-12.6-.2l-.7.2c-2.3-.2-5.7.2-6.7-.4h-3l-2-.2H639c-1.8.8-5.3-.3-6.8 1-3-1-6-1.2-9.7-1.3h-.2c2.3-.3 4.2-.3 6.3-.3zm15.8.4H643zM499 12l.4.4h-1.2zm2.4 0l1.2.4h-2.2c.4 0 1 0 1-.3zm56.2 0c0 .3.6.5-1.2.4zm61.4 0l2.2.3H619zm-383 .3h1v.2zm299.4 0h2.6v.4h-2.6zm25.8 0h.7c0 .4 1 .6 1 1l4.5.2c-7.7 0-15.3.7-20.3 0l-6.7-.2H535l-11-.4h9.3l1.3.2h5.6c3 0 5.8-.4 6.6-.5v.2l15.6.3-2.2-.5c.3-.3.6-.5 1-.5zm83.6.4h.2zm-128.3.2h4.9v.2h-5zm65.4 0l-.3.2c1.3 0 2.5 0 3.3.3h-6.7c.8-.3 2.2-.4 3.6-.4zm-271.6.2v.4l.2.2h-.5c-.2 0-.4-.4-1-.3.4 0 .8-.4 1.4-.3zm0 .5c0-.2-.2-.3-.4-.3l.5.3zm298.6-.4l-1.7.4-15.4-.2zm-71.3 0l.5.2h-.6zm82.4 0h3.5v.3H620zm-402.5.3c1 0 2.5 0 2.7.5l-4-.3h1.3zm315.6 0h2.5v.3zm51.5 0c.2.2.5.2 1 .2h-1.7zm-45 0h.8c-.3.2-.6.2-1 0zM510 14h1.5-1.5zm2.5 0h4.5-4.5zM643 14h.6zm1.8 0h3.4-3.5zm-103.4 0h7c-2.4 0-5 .4-7 0zm124 .2v1.3l-.4-.3c.3-.3.3-.6.3-1zm-354 0l-.6.4zm307.6 0h6.8l-6.8.5zm-331.3.2v.2h.2zm-57.7 0h4.4l-.2.5H230zm348.3 0h1.7l.2.3c0 .4-1 .7-1.3.5 0-.2-.5-.4-.8-.6zm74.2 0c.6 0 1 .3 1.7.5-1.7.5-3 0-4.7 0H647c1-.3 1.7-.3 2.5 0l3-.4zm11 .3v.8c0 .2 0 .4-.3.5 0-.5 0-1 .3-1.3zM516 15h2.5c-.5.3-2 .3-2.5 0zm31.3 0h3.3-3.9zm35.2 0c1.3.2 3 .2 4.6.3l-5-.2zm-308 0c2.5.5 5.8 0 7 1.3-2 1-3-1-5.4-.8-1.3.4.4.8 0 1.2l-1 .2c.4-.3.4-.4.4-.5l-1-1.4zm267.5.2h3l-.6.4c-.6-.8-1.6 0-2.4 0zM3 15.4h.2c.6.4 1 .4 1.7.4-.6-.4-1.3-.4-2-.4zm313.7 0c1.8 0 1.7 2.4 5 .8 2 1.2 3.4-.8 5.4-.2 1.6.3 1 1 2 1.3 1 0 2.6.3 3-.3h.3c1 .4 2.3.6 3.7.7-1 0-1.8.4-2.6.5l1 .6c2 .3 3.4.2 3.6 1.5.7.2 1.8 1 2.4.3l.5.3c2.4-.4 6 .3 9-.3-1-.5-2-.8-3-1-1.7-.3-3.5-.3-6-.6 2 .3 5-.5 6 .7.4-.2 1-.3.7-.6 1 0 2 .4 2.4-.2.4-.4 0-.5-.3-.7l-.6.4c-1 0-1.2-.4-2-.6h10.6v.6l-.6-.3c-.3 0-.8.4-.6.8-1.5-1-2.6-.4-4.3 0 1.4 0 2 .8 3.8.6-.3 0-1 .3-.6.6s1.2.3 2 .3v.6c2.7.5 4 .5 6.7.3-.8-.3-1.4-.8-2.6-.6l.6-.4c2.6-.6 1.8 1 3.6 1 2.3.5 6 .3 8 .3 3.6 1 6.6 0 9.6.2h3v-.5.6h3.7-3.7c1 .8 4.3 0 5.6.7 3 0 4-1.8 6 .2.4 0 1-.4.7-.7 1 .2 2-.2 2.5.4l1.6.6-2.2-.2c-.3 0-1 .4-.7.7-.6-.6-2-.2-3-.3-5 .8-9.5-1.6-15-.4-4.6-1-11-.2-16-1-3.5.8-9-.7-12 1v-.3c-3.5-1-9.4-1.7-14-.6 1 .6 1 1.6 2.6 1-.4.4-.7.6-1.4.6v-.3c-1-1-2.3 0-3.6.3 2.2 0 4 1.2 6.2.3l-.7.3c.4.3 1 .2 2 .2.3 0 1-.2.7-.6l.6.2c2.2 0 5.3 1.5 6.8 0 1.6 1 4.3 1 5.6 1.4l-16-1c-1.3.7-3.7-.4-4.3 1 1 0 .3.7.5 1.2-.8.6-2 .7-3.2.6l1.8-.6-1-.6-1.3.6c.6-.6-.4-.8-.4-1.2.5 0 1 0 1.3-.3l-8-1c2.3.3 6.2.5 8.6-.5-2.6-.4-3-1.6-6-1.6.6 0 1.4 0 1.8-.4-2-.5-4.5-.6-7-.8.8 0 1.6-.6 2.2-1 .5-1.7-3.5-1-5.5-1.5l.8-.3c-.5-.5-1.5 0-2.5-.3-5-.4-11.3-.5-17.3-.7 4-.5 6.2 0 10-.5-.4-.2-.7-.4-1-.4l.5-.2c.8.2 2-.4 2.5.2.7-.3 1.2-.4 1.7-.4zm331 0v.3c-4.7 0-10.3.8-15.3 0zm0 .4h3.8v.2H649zm21 0c0 .3-1.4.3-2.4.3l2.4-.2zm-332.7 0c.3.4 1 .4 1.6.4h-2.4c.3 0 .5 0 .8-.3zm42 0h3v.5h-3zm45.3 0c-.2.5-.5.7-1 .7zm137.3 0l1.7.4c-.5.3-1.5 0-2.7 0h1.5zm86.4 0c.6 0 1 .3 1.3.5-.5 0-1 0-1.7-.3h.5zm7.6 0l.6.3h-.8l-1.4.4-1.2-.3h2.6zm-233 .2c0 .3 0 .4.2.5-1.3.2-3 0-4.6.4l1.4-.7c.5.3 2 0 3-.3zm-241.2.2l-.6 1c1.3.6-1 1.2 1 2 1.6-.6 0-1.6 2-1.8-.2-.5-1.2-.8-2.3-1zm103.7 0c.6.6 1.8 0 2.6.3l-2 .4c.2-.4-.5-.5-1-.5zm49.4 0h1c-.3 0-.7 0-1 .4zm329.8 0c.2.2.2.3.2.5-.2 0-.2-.3-.2-.5zm6 0V18c-1-.8-.3-1 0-1.8zm-304.4 0v.2l1.3.5H363c.8 0 1.6-.4 2-.7zm-168.5.2l.3.2s.5 0 .5-.2zm352.2 0h2.2v.2c-1.2.6.6 1 0 1.7h-1.4c-1.6.2-2.8.6-4 0h-1l.6-.2h3c.6 0 1 0 1-.3l-.6-.2c-1.4.5-4.2.3-6.7.3l6-.5-1-.2 4-.5zm-178 0c.7 0 .7.2.7.5h.2l-.7.5-.6-.3c.7 0 .7-.4.6-.8zm-95.4.2v.3h-.2l1 .4-.6.4c.2.2.7.2 1.2.2-.3 0-1 .3-.7.6L274 18l.7-.3-.6-.5c0-.3.5-.5 1-.6zm125 0l4.6.4h-4zm-68.2.2h.2zm135.2 0h2l-.3.6-.3.6h2.4c-2.8.4-7.4.4-9.8 0h7.2l-.3-.4h-.6c.2 0-.3 0-.5-.2h.6zm20 0h4c-1.5.4-2.7 0-4 0zm87 .2v.2h-2c1 0 1.5 0 2-.2zm-72.4 0c1.8 0 3.4.5 5 .5h-8l1-.2h.3c.4 0 1 0 1.6-.2zm9 0v.5h-2c.7 0 1.4 0 2-.4zm22.3 0h.4s-.3.4-.5 0zm41.8 0h.7c.6 0 1 .3 1.5.5h-1.5v-.3h-.7zm-7.2.2h4.4c-1.3.2-3 0-4.4 0zm-16 0h6.8c-2.4 0-4.8.3-6.8.5zm54.8 0h27.2v.7c.8 0 1.4.2 1.4.5l-1.4-.5c-3.6-.5-12.3 0-15.3-.3l-1.7.3c-4 0-8.2.2-10.2-.6zm40.6 0c.8 0 1.7 0 2.7.3-4.3-.2-7.7.7-11 0h8.3zm-41.5.3v.2H603zm-325 .2c.3 0 .7 0 1 .4l-.8.4-.5-.3c-.5 0-1 0-1.2.4l-.6-.3 2-.2zm292 0h.7l-1.3.3h-1l1.5-.2zm-487 0c0 .5.6 1-.7 1 0-.2 0-.6.7-1zm455.5 0c0 .4-.4 1 .6 1h-1.2c0-.3 0-.7.6-1zm-56.6.3l-.2.2c-1 .6-.6 1.6-2.2 2l1.5.6-1 .3c3 0 6 0 8.7.5-2.4 0-6 .3-7-.3h-2l-2.5 1c-.3-.2.4-.3.7-.5l-1-.2H477v.3c-.5 0-.7 0-1-.2-5.8.3-11.6.5-17.2 0l3.4-.3c.3.2 1 .2 1.3.2l-.4-.3c.7 0 1-.3 1.4-.4v-1h-.5c-.4 0-1-.2-1-.4l.8-.3c1.2 0 2.3 0 3 .8h3.3s0 .2.4.2h1.6l-2.2.5v-.2h-4l-1.4.5h.6l1.3.3h2.5l-.4.2 7.4-.2h-.2c.3-.2.5-.4.5-.6h.4c-.3-.2-.5-.4-.8-.4h-.4l1-1 2 1h3.6c1-.7 1.6-1.7 2.6-2zm-2.5 2.2h-3.4l1 .3c1 .2 1.7 0 2.3-.3zM653.7 18l.5.2h1.6c-.3.3-2 .3-3.8.3.3 0 .7 0 .4-.3h1.2zm-609 .2c-1 0-2 0-3.3.3l.6.3.8-.4c2 1.2 3.3.6 5 0zm232 0h.4v.3h-.5zm219 0c.7 0 1.5 0 2 .3h-4.5c.8 0 1.6 0 2.4-.2zM72 18.5h.6v.4s-.2-.3-.6-.4zm-31.6 0c0 .2-.3.2-.5.3h.7zm-.5.3l-1.5.2h.4c.4 0 .8-.2 1-.3zm328.4-.2c-1.5.4.2 1 0 1.4l-3-1c.8-.5 1.8-.5 3-.5zm-279 0c-.4.4.6.7.6 1h-2c.5-.2-.5-.3-.5-.7zm524.5 0l1 .8h-.2c-.8 0-1.7.7-2.4 0h.6c.3-.2 1-.4.7-.6zm21.3 0c4 1 12 1 18.7 1-6 .7-14.4 0-18.7-.4zm23.4 0h3l1 .4zM82 18.6c.8.4 1.4.6 1 1l-1-1zm-18.3.4l-5.6.4h3l.7.3H63c.5 0 .5-.5.7-.7zm67.7 0c2.5 0 4 .6 5.5 1.2v.2c-1.4-.2-2.5-.8-3.7-.2-.2-.6-1.6-.7-2-1.2zM309 19h.2c2.2.5 5.3 0 6.7 1.6 2.5 0 6-1.5 8 0 0 .2.3.2.3.2h.4c-3.5 0-7 .3-10 .5l-.2.4c-.8-.5-3-.6-3.6-.4-3.6-.5-8.3-.7-11.3 1-3 0-5.6-1.3-8.6-.7 0-.4 0-.8.8-1l.5.2c1 0 2 .3 2.5-.3-.3-.2-.8-.3-.5-.6 1.3.2 2.5.7 4.3.5 2 .6 3.8-1.2 4.8.4 1.4-1.6 5 0 5.6-2zm187.7 0h1.7v.2h-1.2zM73 19h1c0 .5-.2.7-1.2.7V19zm132.3 0c.4 0 .7.2.7.3h1.4c1-.6 1.6.3 2.6.3h.2c-1 0-2 .4-2.7-.2l-1.2.7h-.3c-.7.3-2 1-1.7 1.4-2.3-.4-1-1 0-1.4-1 0-2.3-.3-3.7-.7h4.4l.3-.4zm303 0c.5 0 1 0 1.3.2h5.8v.5h-5c-1 0-1.3.3-2 .6l-.3.3v-.2l-.7.2c-.4 0-1 .3-.8.6l-2-.2 1.5-.3h-1c-.7-.3.7-.4 1.7-.6l-8.5-.6h9l1.2-.4zm-17.7 0h1.7c-.7 0-1.2.3-1.7 0zm-388.4.3h1l-.6 1zm74 0c2 .7-2.4 1.3 1 2-1.2.4-1.5.7-1.5 1.3v.2h-.2c0 .5.2 1.2-1 1.8-.6-.7 1.4-1.3.4-1.8h.4v-.4h.3c-.2-.3-.5-.6-1.2-1 .6 0 1 0 1.3-.2-1.3-.2.2-1-1.8-1.2zm-.5 3.2zm10-3.2c.6.4 0 .8 0 1-.4.5-.4 1 1.7 1.2h2.3l-1 .4c-.8 0-1.6 0-2-.3l-.7.2c-.3.2 1 .3 1.3.5l-1.3.5s-.2.3.6.5l.6-.3c.2.3-.3.4-.8.4l-.5-.2-1 .2c0-.6 1.3-1.8-1-1.8.3-.3 2-.7 1-1 0 0-.3-.4.5-.5l-.6-.2c.2 0-.7-.5.6-.7zm172.8 0h1.3l-2.5.7zm-290.7.3c1 0 2 0 3 .4zm344.4 0h9c-3 0-6.7.2-9 0zm118.4 0h1c1 0 .8.3 1.8.4zm95.7 0c-2.5 0-6 1-8.5.3zm-184.7 0c.3 0 .8 0 1 .3h.2c.5 0 .6 0 .7.2l-.2.2c0-.2-.2-.3-.3-.3h-.2c-.5 0-1.3.3-1.8.5l-1-.6h.6c.2-.3.5-.4 1-.4zM66 19.6h.2v.2zm98 0v.2h.5c.7.2.6.5.4.8l.4.2c4.2 0 2.2 1 2.7 2-1 0 .8 1-1.7.7-.7-1 2-2.4-1.7-2.8l-.6.3c0 .6 1.6 1 0 1.7.8.2.8.6 1 .8l-2-.2c.8-1-.7-1.7.6-2.5-.5-.2-1.2-.4-1-.8.4-.3 1-.3 1.5-.3zm3.6 0v.7c-.2-.3 0-.4 0-.6zm305.7.2c.2 0 .4 0 .5.2h-1l.5-.2zm-376.7 0c.2.5 3 .5 3.5 1l-.3.4h-1.3c.3-.2 1-.2.7-.5-.6-.2-1.2-.5-2.4-.4zm33.3 0c.2.4.6.4 1 .4-1.2 0-2 .8-2.5.8-.2-.4.4-1 1.4-1zm282.4 0h5.3c-1.6.2-3.3 0-5.3 0zm15.5 0h7l-2 .2zm23.6 0h1.7l-1.7.4h3.7v.4h-6.8V20h3v-.2zm-314.6 0h.2c0 .3.2.3.2.4 0 .2.2.2.4.2l-.6.3.2-.4-.4-.3zm20 0c0 .2-.5.3-.8.4 1.5.4.6 1.3 2 1.4v.2c-2 .2.4 1.4-2.2 1.4v-1c3.3-.8-3-1.7 1-2.3zm-128.6.3c.2.4-1.2.4-.8.7l-1.2-.4zm79 0c.4 0 .7.3.7.6 0 0-.5.2-.7.5 0-.2-.2-.6 0-1zm478 0l6.6.5-5-.2zM74 20.4c1.3 0 1.6.5 2.6.7-1.5.3-2.5-.2-2.5-.5zm342.4 0l1 .3-2.7-.2zm-376 0v.6h-.2l-.5-.3c.5 0 .7-.2.7-.3zm541.5 0v.2c-2 .7-3.8 1-9 .7 0-1 6.3-.2 9-.8zm-544.4.2l-1 .4h2c-.2-.3-1-.4-1-.5zm618.8 0h.5c.6 0 1.4.3 2 0 .3 0 .8 0 1.3.2-.6 0-1 0-1 .2H658zm10.5 0h1l-.7.2zm-546.4.2l1.3.7c-1-.2-1.6.6-2 0 0-.2 0-.6.6-.6zm16.4 0c-.3.4.6.5.6.8-2 0-1-.4-.6-.8zm43.6 0c0 .3 1 .7 1 1 0 0-.4.3-1.4.4 0 .3.3.4.6.5l-.5.2c.3-1-3-.5-2-1.3h2c.4-.3-.3-.4-.6-.6zm297 0l-.7.4h2l-1.4-.2zm-233.3 0c.5.5.6.8 1.3 1L243 21h-.7l2-.2zm421 0V21zm-558.2.3v.7l-.5-.4zm94 0h1c.2 0 .2.6.2.7h-.4c0 .8-.7 1.6-1 2.4zm-107 .2l2.4.4v.3c-2.2-.3-.5.6-2.2.6h-.6c2-.6-.5-1 .3-1.4zm400.2 0l6.7.5h-5zm13.7 0l5.5.2h1.7l12.3.2c-6.6.2-13.3.7-19.6-.3zm-439 .2h.2l.4.3-1.7.3v-.4c.4 0 1 0 1-.2zm103 0l1 .6-1.3 2.8c0-.6-1.4-1 0-1.2l-.6-.2 1-.4c.2-.6-2 0-2.8-.6 1-.4 1-1 2.8-1zm-98.8.2h.7l2 .5zm76.4.2l.8.3-2.8.8zm42.4 0l.6.2h.6v.4H192c-.4 0 0-.2.5-.3h-.5zm387.6 0c1.2.3 3.5 0 4.5.3v.4c-1 0-4.5-.3-5-.2zM91 21.8c.7.7 1 1 2.5 1.5-1 0-1.6.3-1.4.6h-2l2-1-2-.4c.5-.2 0-.5 1-.6zm292.7 0c.5 0 1 .3 1.3.5l.6-.3zm27 0c1 .4 2.8.4 4 .4-1.4 0-3 0-4-.2zm5.6 0h.4v.3h-.3zm200 0l4 .4c-1.6 0-3.3 0-4-.3zm54.3 0v.2c0 .5.2 1 0 1.6 0-.4-.2-1 0-1.5-.2 0 0 0 0 0zm-553.3.2h1.2c-.4.6-2.6 1.2-1 1.8-2-.6 1.3-1.3-.2-1.8zm553 0v.2h-1c.2-.2.4-.2 1-.2zm-542.6 0l2 .8v.3zm8.6 0l.7.3v.6h-1.4c1.3 0 .4-.7.8-.8zm58.4 0c.4 0 .7.3.7.5l-.2-.2c.2.3 0 .5 0 .6-.4.5-2.3.7-4 .5v-.2l2 .2c.5-.4 2-.7 1.5-1.3zm-141.4.3l1.7.5h-.3zm47.2 0v.3c0 .3-.5.6-1 1 .3-.5 0-1 1-1.3zm44.6 0l.3.2c.3 0 .7 0 1 .3h-.7c-.4.4.6.7 1.3 1l-2.7-.5c2-.4-.2-.6-1.2-.6l2-.4zm65.5 0v.2c.3 0 .7.3 1.3.3v.3c-.7-.3-2-.4-3.3-.3zm198 0h7v.3h-7zm260 0h.4V25h-.5zm7.2 0l.4.3v.5zm-612 .2H66c.4 0 1 0 1.4.3l-1.5-.3c-1 0-1.7.3-2.4 0zm117.4 0c.3 0 .5 0 .5.3zm-56.3 0c0 .4-.3.6-.6.8.2-.3.3-.5.7-.7zm73.8.2c0 .4 0 .8-1.4.8 1-.2 1-.5 1.5-.8zm-143 0v.5L55 23l-.5.2c0-.2 0-.2.2-.2.2-.2.5-.2 1-.2zm112.8 0V23zM406 23c2.4 0 5 .6 7.5.6H429l.7.3c-.6 0-1.4 0-2 .3-7.8-.5-16.8-.4-24-1h-.2c.7-.2 1.5-.3 2.3-.3zm-291.7.2v.4c-.2 0 0-.2 0-.4zm425.8 0c.5.2 1 .3 2 .3h-4zm-440.5 0c0 .3-.3.4-.6.5zm32 0l.3 1h-1.5zm79 0c.6.3 1.2.6 2 .7l1.2-.4c-.3.3-.8.3-1.3.3H211c-.4.3.6.5.6 1l-.7-.4c-.4-.4-2.5-.8-.7-1.2zm465.3 0c0 .6.3 1 .3 1.3v.6zm-73.3 0c.5 0 .5.3.5.3v.3l-2.2-.3h1.2zm-65.8 0l1 .3c-.4 0-1 0-1-.2zm-409.6.2v.6h.3c0 .6 0 1.2-1 1.8l-.6-.2c2-.4-1-.7 0-1.3.6 0 1 0 1.3-.2h-.6c0-.2 0-.5.7-.6zm-21.4 0v.3c.6 0 1 .4 1.6.4-1.2 0-2 0-2.2-.2zm44 0v.3h-.3zm30 0c0 .4-.3.7.4 1h-2.5zm-30.7.4c.2 0 .4.2.5.3-.8 0-.8 0-.6-.2zm-25.6 0l-.3.3h-1 1.4zm16.6 0c0 .4.2.6.7.7h-.6zm289.8 0c.8 0 1.6.3 2 .4-.6 0-1.3 0-2-.3zm8.5 0h2c6 0 12.6.6 18.8 1-7 0-14-.3-20 .2-1.5-1.3-4.8-.2-6.8-.7l6.3-.3zm27.6 0zm-378.5.3l3.2.8-2 .8c.4-.3-.3-.4-.6-.5l1.6-.4zm575 0l.3 1c-.2.3-.2-.5-.5-.3zm-513 0v.2c0 .3-.2.5 0 .6-1 0-1-.5 0-.7zm315.8 0v.4c.5.6 2 0 3 .3v.3h-7.7c1.8 0 3.3-.3 4.7-1zM97.6 24l1.7 1c-1.6 0 0 .5.2.8h-.2l-1.8-.8c1.4-.3.3-.5 0-1zm-19 .5h.2l.6.8-1.5.2c1-.2.6-1 .7-1zm44.4.2c.6 0 .6.3.6.5v.2c-1 .2-2.3 0-2-.4.4 0 1 0 1.4-.3zm41.5 0l2.5 1-2.8 1c-.3.5 2.5.6.5 1l2.6 1c-1.7.4 0 .6 0 1h.2l-.3.3c-2.4.7-3.5-.5-6-.5-.5-.5-1.3-1.6 1-2-.5-.4 2-.8.2-1.2 1.6-.3-.5-1.2 2-1.4zm418 0h10.2v.5c-2.4 0-5.6-.4-7 .2-1-.2-1.7-.4-3.2-.3zm27 0c3 0 5.6.3 7.8.5l-11-.3h3.2zM24.8 25c3 0 5.6.6 8.3.4 0 0-.4 0-.6.3-2.8-1-7.2 1-9.2-.6h1.6zm592.3.5H620l1 .3c-1 0-2.5-.3-4-.3zM70 26h.7c1.2 0 1.4.6 2 1zm553 0c5 .4 12.6-.3 15.5.7v.2c-7 0-11.3-.4-15.6-1zm-473.3 0c.7 0 .7.3.7.4 0 .2-.2.3 0 .6H149zm43 0h.2c.8.4 2 .5 2.3.7 0 .2-.2.3-.7.4-1 0-3.3 0-3.3-.7.5.2 1 0 1.5-.2zm365.5 0l8.6.3h-8.6zm25 0c1 0 1.8.3 2.4.5H579l-2 .3c.6-.3 1.3-.4 2-.4 1.3-.2 3-.3 4.3-.3zm-518.7.2l-.8.3c-.8 0-2 .3-2.4-.3h3.2zm134.7 1l-1.4 1v-.4zm321 0h19l-1.7.3c-1.3 0-2 0-3-.3h-1.3c-3.8.5-11 .3-13 0zm140.2.2l3.2 1H662zm-89 .3l6.7.4h-1.7zm32.5 0l7 .4h-7zm57.8 1h.2c.4 0 1 .3 1 .6l-1 .6.3.4.2-.2.2.2h-.4c-.3 0-.5-.2-.5-.6 0 0 .2-.5.4-.6zm-578.5 0c.2 0 .3 0 .4.2h.7c-.2.3.3 1-2.2 1l1.4-.7c-.5-.5-1.5 0-2.5 0V29c.8 0 1.7-.3 2.3-.2zm563.2.5h12v.3c-4.4.5-6 1.6-14 1.2 2.8 0 7 0 7-.6-1.7 0-2.4-.7-5-.5zm-349.3.7c.3 0 .5 0 .5.2.5.2 1 .3 2 .3-.8 0-1.6 0-2-.3zm366 0l.2.2v.6c0-.3-.3-.4-.6-.4.2 0 .3-.3.4-.3zM530 31l8.5.3H530zm-17.3.3c1.6 0 3 0 4.6.3-1 0-2 .2-1.3.6l-12-.4c2.8 0 5.8-.4 8.7-.5zm27 1.8h7l-.4.5h-6.6zm-253.4 0c.3 0 .5.2.5.4zm12 2c.4 0 1 0 1.3.3h-4c.8 0 1.7-.3 2.6-.3z"/>
</svg>
