<?xml version="1.0" encoding="UTF-8" standalone="no"?>
<svg
   xmlns:dc="http://purl.org/dc/elements/1.1/"
   xmlns:cc="http://creativecommons.org/ns#"
   xmlns:rdf="http://www.w3.org/1999/02/22-rdf-syntax-ns#"
   xmlns:svg="http://www.w3.org/2000/svg"
   xmlns="http://www.w3.org/2000/svg"
   xmlns:sodipodi="http://sodipodi.sourceforge.net/DTD/sodipodi-0.dtd"
   xmlns:inkscape="http://www.inkscape.org/namespaces/inkscape"
   width="682.69922"
   height="36.300781"
   viewBox="0 0 682.69922 36.300781"
   version="1.1"
   id="svg4"
   sodipodi:docname="rand2-top.svg"
   inkscape:version="0.92.1 r15371">
  <metadata
     id="metadata10">
    <rdf:RDF>
      <cc:Work
         rdf:about="">
        <dc:format>image/svg+xml</dc:format>
        <dc:type
           rdf:resource="http://purl.org/dc/dcmitype/StillImage" />
        <dc:title></dc:title>
      </cc:Work>
    </rdf:RDF>
  </metadata>
  <defs
     id="defs8" />
  <sodipodi:namedview
     pagecolor="#ffffff"
     bordercolor="#666666"
     borderopacity="1"
     objecttolerance="10"
     gridtolerance="10"
     guidetolerance="10"
     inkscape:pageopacity="0"
     inkscape:pageshadow="2"
     inkscape:window-width="1280"
     inkscape:window-height="734"
     id="namedview6"
     showgrid="false"
     inkscape:zoom="7.2540837"
     inkscape:cx="428.22617"
     inkscape:cy="18.800781"
     inkscape:window-x="0"
     inkscape:window-y="27"
     inkscape:window-maximized="1"
     inkscape:current-layer="svg4"
     fit-margin-top="-1"
     fit-margin-left="0"
     fit-margin-right="0"
     fit-margin-bottom="0" />
  <path
     style="fill:#f4fbf0"
     d="m 0,-1 0.19921875,37.300781 c 1.00000005,-1 3.00117185,-3 5.70117185,-5 h -1 v -1 c 0.6,0 1.3,0.398438 2,0.398438 1.5,-1 2.9988282,-1.998828 4.7988284,-2.798828 0.2,-0.4 0.201172,-1.000391 0.201172,-1.400391 V 26.300781 H 9.9003906 l -0.2011718,0.59961 v -0.59961 H 6.9003906 v 0.5 H 6.6992188 C 6.2992187,26.600781 6.3007813,26.3 6.3007812,26 H 11.699219 V 23 H 9.9003906 l -0.5996094,0.300781 h -2 c -0.2999999,0.2 0,0.6 0,1 L 6.9003906,23.699219 v -0.398438 c -0.6,0 -1.2011718,0 -1.2011718,-0.5 h 1.5 l -0.5,-1.40039 c -0.3,0.3 -0.2988282,0.6 -0.2988282,1 H 5.6992188 v -3.59961 H 6 V 18.199219 L 6.3007812,17.900391 C 6.3007812,17.700391 6.3,17.500781 6,17.300781 6.8,16.600781 5.8007813,15.6 6.3007812,15 c 0.2000001,0.4 0.2000001,0.799219 0.5,1.199219 1,-0.3 1.7988282,-1.99961 2.7988282,-0.59961 h 0.3007812 c 0,-0.6 -0.3007812,-1.3 -0.3007812,-2 0,0.6 0.4999996,1.4 0.4999996,2 h 1 l 0.59961,0.300782 h 0.601562 c 0.6,0 1.3,-7.82e-4 1,-0.300782 l -0.201172,-0.298828 h 0.201172 L 13.5,15.699219 l 3,0.601562 0.300781,-0.701172 h 1.5 l 1.59961,0.300782 -2.59961,-0.201172 v 0.601562 l 1,0.398438 h -1 c 0,0.3 -0.0012,0.8 -0.201172,1 V 17.400391 L 16.900391,17.199219 H 16.699219 L 17.099609,16.5 h -5 c -0.3,0.3 -0.298828,1 -1.298828,1 0.3,-0.5 0.4,-0.8 1,-1 h -1 l -0.701172,-0.400391 c -0.1999996,0.2 -0.1992184,0.39961 -0.1992184,0.59961 v -0.59961 H 9.6992188 c -0.2,1 0,1.800782 -1,2.300782 L 8.3007812,17.699219 c -0.3,0.5 -0.4999999,0.80039 -0.5,1.40039 h 4.2988278 c -1.6,0.4 -3.0003902,0.2 -4.4003902,0 0,1 0,2 0.5,3 0.3,-0.6 0.6007812,-1.2 0.3007812,-1.5 h 0.1992188 c 0.4,1 0,1.8 0,2.5 l 1.2011718,-0.199218 c 0,0 -7.812e-4,-0.4 0.1992184,-0.5 l 0.400391,0.5 h 1.800781 c 0,-1.4 0.199219,-2.99961 0.699219,-4.59961 l -0.199219,2.5 V 23 h -0.5 L 12,25.800781 h 1.699219 v -0.40039 c 0.6,-0.7 0,-1.501172 0,-2.201172 h 1 v 2.701172 h 2 c 6.3,-2 14,-2.6 21.5,2 4.5,-1 8.2,-1.5 11.5,-1.5 3.3,-0.3 6.400781,-0.8 8.800781,0 -1.7,-0.2 -2.999219,0.3 -3.699219,0 -1.3,-0.3 -2,-0.2 -3,0 7.8,0.4 14,2.299218 25,2.199218 7,0 13.699219,-0.499218 20.699219,-1.199218 h 0.800781 1 l -0.601562,-0.201172 c 0.3,-0.2 0.7,-0.398438 1,-0.398438 L 101.69922,27 l 18.40039,-2 -2.69922,-0.400391 0.5,-0.199218 h 1.69922 c 1.2,0.3 2.40078,0.6 3.80078,0 l 1.5,0.40039 11.5,-0.800781 1.69922,0.699219 h 0.70117 c 1.6,0.3 3.59961,0.2 4.59961,1 1,-0.6 2.4,-0.5 4,-0.5 1,0.3 2.40039,0.5 3.40039,0.5 3,-0.4 5.99844,-0.799219 7.39844,-1.199219 11.4,1.3 26.20117,1.3 29.20117,-0.5 h -3.09961 L 183.69922,24.300781 183.40039,24 h -1.92383 c -0.0999,0.04443 -0.17578,0.10137 -0.17578,0.199219 v 0.101562 L 180.39844,24 h -2.65235 c -0.68228,0.11832 -1.36458,0.300781 -2.04687,0.300781 -0.6,0 -1.3,-3.9e-4 -2,-0.40039 h 4 v -0.201172 h 10 c 0.2,-0.4 0.2,-0.7 0,-1 h 2 c 0,0 -0.19883,7.81e-4 -0.29883,-0.199219 h 0.29883 l 16,-1.599609 h 11 l -0.59961,-1 h 0.59961 v 1 0.199218 c 12.5,-0.3 26,-0.999218 36,-2.199218 0.4,0.7 1.30156,1.199609 2.60156,1.599609 L 255,19.900391 257.40039,20.5 c -0.4,0 -0.8,7.81e-4 -1,0.300781 6,1.3 18.19922,0.698438 30.69922,0.398438 -0.6,-0.4 -1.20039,-0.8 -2.40039,-0.5 0.2,0 0.20117,-0.198828 0.20117,-0.298828 h 0.19922 c 0,-0.3 -0.8,-0.6 -1,-1 1,0 2.4,0.398828 3,-0.201172 -2.4,-0.6 -4.40039,-1.598438 -6.40039,-2.398438 h -6 c 1.4,0 3.00117,-3.9e-4 4.20117,-0.40039 h 1.5 L 279,16.199219 l 0.69922,-0.298828 c 0.6,0.3 1.60156,0.598828 2.60156,0.798828 h 3.39844 l 0.70117,0.40039 c 0.5,0 0.79883,0 1.29883,-0.5 h -0.29883 c -1.3,-0.4 -0.99961,-1.599609 -2.59961,-1.599609 1.8,0 3,0.2 4,1 l 0.5,-0.300781 V 15.400391 L 290,15.699219 h -0.59961 l -0.20117,0.201172 4.5,0.5 H 294 c 0.3,0.5 -1.4,1.00039 0,1.40039 0.7,-0.4 1,-1.001172 2,-0.701172 0.3,0.3 -0.29922,0.401172 -0.69922,0.701172 4,2.3 3,-1.6 7,-1 0.2,1.3 -3.00156,-0.0012 -2.60156,1.298828 0.4,0.2 0.60117,0.400391 1.20117,0.400391 v 0.800781 h -1.30078 V 19 c -0.5,0.2 -0.99883,0.299609 -0.79883,0.599609 0.6,0.2 0.79883,0.79961 1.79883,0.59961 l -1.40039,1 4.20117,1.5 c 1.7,-1.7 3.4,1.00039 5,-0.59961 l 1.19922,0.5 3,-0.298828 c 0.3,0 -0.29922,0.3 -0.69922,0.5 0,1 2.49922,1.19961 3.69922,0.59961 l -0.69922,0.40039 c 2,1.5 6.29883,0 9.29883,0 l -1.29883,-0.601562 c -1.4,0.6 -3.30078,-0.999219 -4.80078,-0.199219 0,-1.6 2,0.600391 3,-0.599609 0.3,-0.4 -0.2,-0.601172 -0.5,-0.701172 1.7,0 1.70117,-0.999219 2.70117,-1.699219 1,0.3 2,1.2 3,0 l -0.5,-0.300781 c -1,-0.2 -2.50078,-0.298828 -3.80078,-0.298828 0.2,0 0.99922,-0.200391 1.19922,-0.400391 0.3,-0.2 -0.3,-0.399609 -0.5,-0.599609 l 0.70117,-0.300782 c 0.4,1.7 4.5,0.4 6,1.5 l -0.59961,0.300782 2,1 -0.80078,0.40039 0.69922,0.398438 c 1.4,0 3.00117,0.201562 4.20117,-0.398438 l -1.20117,-0.601562 c 0.6,0 1.00117,0.2 1.20117,0.5 l 0.69922,-0.398438 c 0.4,-0.2 0.70117,0.198438 1.20117,0.398438 l -0.70117,0.201172 0.59961,0.298828 h -0.59961 c -0.3,0.2 -0.99922,0.301562 -0.69922,0.601562 0.2,0.5 0.7,0.5 1,0.5 -0.3,0 -0.8,-0.0016 -1,0.398438 -0.3,0.2 0.3,0.3 0.5,0.5 -0.4,0 -0.7,-0.198828 -1,-0.298828 l -3.20117,1.90039 1,0.5 c 1,-0.2 1.7,-1.001562 3,-0.601562 1,-2.6 4.00039,0.601562 6.40039,-0.398438 2,0.3 3.8,1 6,1 1,-0.6 -1.79883,-1.600781 0.20117,-2.300781 -1.3,0 -2.60156,-1 -3.60156,-0.5 v -0.400391 c 0.4,0.2 0.80117,7.82e-4 1.20117,-0.199218 l -1,-0.59961 c 2,0 5.5,0.298438 7.5,-0.601562 0,-0.6 -0.4,-0.999219 -1,-1.199219 1.8,0.5 2,1.500781 4,1.800781 L 356,21.5 c 2,0.2 7.19961,-0.8 8.59961,0.5 1.7,-0.8 3.70078,-0.200781 5.30078,0.199219 -0.4,0 -0.80078,0.3 -0.80078,0.5 0.4,0.4 1.2,0.40039 2,0.40039 -2,2.2 3.5,1.001172 4,3.201172 l 1,-0.5 c 1.8,1 4,0.298828 7,0.298828 -0.7,0.3 -2,1.000391 -2.5,0.400391 l -0.79883,0.400391 c -0.2,0.2 0.29961,0.399609 0.59961,0.599609 -1,1.3 -3.4,0.299219 -5,0.699219 0.7,0.6 0.19922,1.40039 1.69922,1.40039 l 0.70117,-0.199218 c 0,1.4 3,0.499218 3.5,1.699218 -1.5,0.6 0,1 1,1 h -13.60156 l 30.5,0.400391 c 2.8,0 5.50117,-0.399609 8.20117,-0.599609 -2,0 -4.40117,3.9e-4 -5.70117,-0.59961 -1,0.4 -2.6,-0.300781 -4,-0.300781 0.5,0 1,3.91e-4 1.5,-0.599609 l -0.59961,-0.300782 c 1,0 2,-3.9e-4 3,0.59961 1.4,-0.8 4.6,-1 5,-2 2.4,-0.3 5.20117,0.2 7.20117,0 -0.2,-0.3 -0.60117,-0.598438 -1.20117,-0.398438 l 0.80078,-0.201172 h -6.20117 c -1.4,-0.5 -3.59883,-0.2 -4.79883,-1 1.7,0 2.69922,0.800782 3.69922,-0.199218 h 5 c 2.6,0.4 6.59961,0.40039 8.59961,0.40039 l 0.70117,-0.201172 1.19922,0.59961 -1.5,0.601562 c 0.3,-0.4 -0.2,-0.601172 -0.5,-0.701172 l -1,0.59961 c 1.3,1.2 6,-0.39961 6.5,1.40039 l -2.40039,0.701172 v 0.298828 H 428 c 0.5,-0.4 0.8,-0.2 1,0 l 2,0.201172 V 30.5 c 0.4,0 -0.19961,-0.299609 -0.59961,-0.599609 -0.6,-0.5 -1.50078,-0.8 -2.30078,-1 H 428.5 c 2,1.3 3.99922,-0.8 5.69922,0.5 h -0.29883 c -1,0 -2.3,-0.19961 -3,0.40039 l 2.29883,1.398438 c 2.5,0 4.50117,1 6.70117,0.5 0,0.2 0.19922,0.201172 0.19922,0.201172 h -2.29883 c 0.5,0 0.7,0.298828 1,0.298828 l 1.59961,-0.298828 2,-0.300782 h 0.29883 c 4,-0.7 10,-1.3 12,-2.5 l 27.80078,0.201172 4.73828,-0.59375 C 488.83812,29.096394 491.21455,29 493.19922,29 c -0.4,0 -0.7,0 -1,0.5 h 0.20117 l 3.19922,0.199219 L 496,29.5 c -0.8,0 -1.7,-0.5 -2.5,-0.5 1.4,0 2.79961,7.81e-4 3.59961,0.300781 l -1.29883,0.398438 c 4.5,0.2 9.3,0.400781 14.5,0.800781 0,-0.6 -1.50078,-0.699219 -1.30078,-1.199219 l 1.19922,0.59961 c 2.5,-1 4.30117,0.4 7.20117,0 -28.2,-2.2 -30.30078,-1.4 -46.80078,-6 -1.17419,-0.382887 -2.5372,-0.832488 -4.13281,-1.300782 h -1.26758 v 0.201172 c -1,0 -2.49922,0 -2.69922,-0.5 l 3.95508,0.294922 C 461.80018,21.230218 455.12044,19.694929 445,19.099609 L 445.40039,18.5 c 2.5,-3.7 11.6,-3.000391 22,-1.400391 -0.4,-0.2 -0.6,-0.5 -1,-0.5 0.7,0 1.3,0.0012 2,-0.298828 0,-0.4 -2.00117,-0.700781 -1.70117,-1.300781 l 3,-0.599609 c -1,1 0.5,0.999218 0.5,1.699218 1.4,-0.2 2.7,-0.3 4,0 C 472.59922,16.099609 471.2,16.3 470,16.5 l -0.59961,0.400391 h -2 l 0.19922,0.199218 c 0.7,0.3 1.70117,0.39961 2.70117,0.59961 l 7,1 h 0.39844 c 0.7,0 1.20117,0.300781 1.70117,0.300781 l 2.79883,-0.699219 c -0.6,-0.3 -2,-0.5 -2,-1 1.3,0.3 2,0.2 2,0 0.5,-0.4 -0.5,-1.401562 1.5,-1.601562 -0.3,0.5 1.00039,0.601172 1.40039,0.701172 0,-0.6 3.60039,-0.700782 1.40039,-1.300782 3.7,-0.7 0.50078,1 3.30078,1 l -2,0.59961 1.19922,0.601562 3.59961,-1 c 1.6,-1 -2.20039,-0.601172 -2.40039,-1.201172 l 0.60156,-0.199218 2,0.599609 c 1,0.3 0.59961,1 2.59961,1 -1,0 -2.20078,-0.200781 -2.80078,0.199219 L 493.19922,17 v 0.300781 L 496.5,17.599609 h -3.40039 c 0,0.2 -0.19961,0.39961 -0.59961,0.59961 h 3.59961 v 0.101562 h -3 c -1,0 -1.5,0.2 -1.5,0.5 L 491,18.5 c 0.6,0 0.59961,-0.399609 0.59961,-0.599609 -0.2,-0.3 -1,-0.300782 -2,-0.300782 0,0.8 0,1.801172 -1,2.701172 l 1.80078,0.298828 v -0.199218 c 0.7,-0.4 1.60039,0.4 2.40039,0 0,0.3 -10e-4,0.4 -0.20117,0.5 4.3,0.4 7.6,0.40039 9,-0.59961 -0.6,-0.2 -1.4,-0.2 -2,0 H 498 v -0.601562 c -0.17892,-0.07157 -0.4598,-0.214074 -0.76758,-0.347657 0.74097,0.102018 1.43858,0.346596 1.9668,0.648438 v -0.199219 l 0.5,-3.5 2.70117,0.398438 c 0,0 0.39961,7.81e-4 0.59961,-0.199219 -0.2,1 0.3,2.000781 0,2.800781 1,0 4.4,0.2 5,0 -0.2,-0.7 0.50078,-1.301562 1.80078,-1.601562 -0.6,-0.6 1,-1.198828 2,-1.798828 -0.4,0.4 -0.50117,1.00039 -0.70117,1.40039 1,-0.2 2.4,-0.300781 4,-0.300781 H 523.5 v -0.300781 h 0.19922 l 10,0.701172 c 0,-0.2 0.4,-0.39961 1,-0.59961 l -3,-1 2,-0.601562 -1.39844,0.5 0.5,0.300781 c 1,0.3 2.5,0.300781 3.5,-0.199219 1.5,0.3 2,0.7 2.5,1 H 539.5 c 0.8,0 0.59961,0.5 0.59961,1 H 541.5 c 0.2,-0.2 0.3,-0.5 -0.5,-0.5 2,-0.6 -0.30078,-1.00039 -0.30078,-1.40039 h 0.60156 c 1.4,-0.3 1.49922,-0.8 0.69922,-1 h 0.69922 v 0.40039 c 0.7,1 10e-4,1.79961 -0.29883,2.59961 5,0.2 9.8,0.299218 14,0.199218 -0.6,-0.2 -1.59961,-0.199218 -2.59961,-0.199218 h 6 c 2.4,-0.8 -1.3,-1.6 1,-2.5 3.5,0.7 0.5,1.6 0,2.5 L 562,17.699219 h 0.80078 L 563.5,17.400391 v 0.199218 l 2,0.201172 L 563.5,18 h 2.19922 c 0.4,-0.3 -0.4,-0.700781 -1,-0.800781 0.6,0 1.00039,7.81e-4 1.40039,-0.199219 l -2,-0.400391 c 0.6,0 1.00078,0.0012 1.30078,0.201172 H 566 c 0.6,-0.7 1.30078,-1.5 0.30078,-2 1,-0.2 1.7,-0.601172 2,-1.201172 0,0 -3.9e-4,0.200782 0.59961,0.300782 -1.4,0.6 -1.40039,1.498828 -2.40039,2.298828 2.2,0.6 -1.70039,1.200781 0.59961,1.800781 h 0.59961 l 1.70117,-0.199219 c 0.4,0.2 -3.9e-4,0.298438 -0.40039,0.398438 h 4 l -1.59961,-0.398438 1.5,-0.5 c -0.8,0.3 0.4,0.39961 1,0.59961 h 12.79883 c 1,0 2,0.20039 3,0.40039 l 1,-0.300781 c 0.2,0.5 1.00117,0.300781 1.70117,0.300781 2.3,-1 4.29883,1 4.29883,1 h -1 c 0.3,0.3 0.70117,0.499219 0.70117,0.699219 2,0 3.6,-0.200391 5,-0.400391 h 2.69922 C 603.69961,19.199609 603.1,19 601.5,19 c 0.3,-0.4 -2.39961,-0.7 -0.59961,-1 v -0.199219 l 1,0.199219 c -0.3,0 -0.50078,0.200781 -0.80078,0.300781 1.4,0 2.60039,0.5 3.40039,1 l 14,-1.601562 c 0,-0.2 0.40039,-0.598828 -0.59961,-0.798828 h -0.80078 l -2,0.199218 0.5,-0.40039 H 616.5 V 16.5 l 0.19922,0.199219 h 0.60156 c 0.3,0 0.7,-0.2 0.5,-0.5 h 1 c 2,1.2 2.29922,-1.599219 3.69922,0.300781 1.5,-1 3.6,0.199609 5,-0.400391 l 0.59961,0.201172 c 0.6,0 1.00078,-0.20039 1.30078,-0.40039 l -0.70117,-0.300782 c 1.7,-0.2 4,0.2 5.5,1 2.8,0.2 5,0 7.5,0 0.4,-0.2 0.40039,-0.399609 0.40039,-0.599609 0.2,0 0.80078,0.2 0.80078,0.5 h 0.79883 c 1.4,-0.2 3.40039,0.399219 4.40039,-0.800781 l -1.59961,-0.59961 -0.35156,0.201172 h -1.94922 c 0.2,0.3 1,0.4 1,0.5 v -0.101562 l 0.83203,-0.332031 -0.93164,0.533203 -1.40039,-0.800782 c -0.4,-0.2 -0.8,0 -1,0 l 0.40039,-0.298828 c -0.5,0 -1,-7.81e-4 -1.5,-0.300781 l 1.20117,-0.599609 c -0.8,-0.2 -0.5,-0.6 -0.5,-1 -4.4,-0.7 -10,-1.4 -14,0 v -0.201172 c -4,-1.4 -9.3,-0.999219 -14,-1.199219 3,0 5.79961,-0.8 8.59961,0 0.6,-0.5 1.99961,-0.5 2.59961,-1 -1.3,-0.5 -2.80078,-0.599609 -4.30078,-0.599609 L 621.90039,9.5 c 2.5,1 5.7,-0.7996094 8.5,0.400391 L 625.80078,10.5 c 2.3,1.3 4.29922,7.81e-4 6.69922,1.300781 1.8,-1.2 5,0.198438 7.5,-0.601562 0.4,0 -7.8e-4,-0.3 -0.30078,-0.5 -2.3,0.6 -5,-0.49961 -7,-0.59961 H 634.5 l 0.19922,0.09961 c 0.3,0 0.70117,0.0016 0.70117,-0.398438 3,0.5 7.40039,0.5 10.40039,0 -0.4,0.5 0.69922,0.7 1.19922,1 h 1.59961 l -0.90039,0.5 v 0.5 c 1,0.6 3.60117,0.398438 4.20117,0.398438 0.3,0 0.8,0.2 0.5,0.5 -3,0 -6.50078,0.301172 -9.30078,-0.298828 -1.6,0.8 0.29961,1.4 0.59961,2 1,0 2.3,0.299218 3,-0.300782 l 1.30078,0.5 c 0.4,-0.6 1.40039,-0.198828 2.40039,-0.298828 0.3,0.3 -0.40117,0.39961 -0.70117,0.59961 1.3,1.2 -0.99883,0.999218 -2.29883,1.699218 8.8,-0.4 8.29883,0 17.29883,-1 3.8,0.3 2.00078,0.8 5.30078,1 4.4,-1 7.49922,-1 12.69922,-1.5 V -0.90039063 H 396.40039 c 2.5,0.80000001 5.69922,0.80078125 7.19922,2.30078123 -1.6,0.7 -5.99961,0 -4.59961,2 0.8,0.6 2,0.2992188 3,0.6992188 -1,0.4 -2.00039,0.9996094 -2.40039,1.5996094 l 1.80078,0.6015624 c -0.6,-0.2 -1.00039,-0.00156 -1.40039,0.3984376 -0.3,1.1999999 2.5,0.2 3,1 h -3.5 c -3.6,0.8 1,2.0000002 -1,3.0000002 L 397.90039,10.5 c -0.5,0 -1.00117,0.200781 -1.20117,0.300781 L 396,10.5 c -0.8,0 -1.79922,-0.300781 -2.19922,0.199219 2,0.3 5.19883,0.300781 6.79883,0.300781 l 0.80078,-0.5 c 3,0.7 5.79883,0 8.79883,0 11.3,0 14.8,0.999219 25,1.699219 -2,-0.2 -3.6,0.0016 -5,0.601562 0.3,0 0.80156,0.29961 0.60156,0.59961 l -0.5,-0.5 c -1.2,-0.3 -1.80156,0.3 -2.60156,0.5 0.6,1 2,1.499218 4,1.699218 h 1 1 v -0.40039 H 435 v 0.40039 h 3 c -1,0.3 -2,0.301172 -3,0.201172 v 0.298828 h -0.69922 l -0.60156,-0.298828 -1,-0.201172 c -1.5,0.2 0,1.300782 -1.5,1.300782 -0.8,-0.4 -0.5,-1.001172 0.5,-1.201172 -1.3,0 -2.29883,0.0016 -3.29883,0.601562 1.6,1 4.2,0.3 6,1 L 433.69922,17 l 1,0.5 c 1.5,0.6 4,0.6 5.5,0 h -0.29883 c 1.7,-0.7 3,-0.2 4,0 h -3.70117 c 2,0.2 2.4,1.5 3,2 l -0.59961,-0.300781 -1,0.201172 c -0.8,0.2 -2.3,0.699218 -3,0.199218 -0.8,0 -1.39883,7.82e-4 -1.79883,0.300782 -6,-2 -14,1 -18,-0.5 -1.2,0.3 -0.4,0.8 0,1 l -0.60156,0.298828 0.60156,0.300781 -1.40039,0.699219 0.5,0.300781 c 1,0.2 1.3,-0.399609 2,-0.599609 v 0.298828 l 9,0.601562 c 1.7,-0.8 3.4,0.198438 5,0.398438 0.4,-0.4 1.40039,-0.5 1.40039,-1 l 8,0.800781 h 1.39844 l 0.70117,0.199219 h -1.30078 c -0.20688,0.05172 -0.38711,0.09402 -0.57227,0.136719 l -0.22656,-0.03516 h -0.60156 c 0.0454,0.06818 0.0993,0.115538 0.15625,0.15625 -0.57374,0.07757 -1.06994,0.04515 -1.55469,-0.257812 l -2.80078,1 c 0.3,-0.5 -0.8,-0.7 -1,-1 l -0.80078,0.40039 H 436 c -1,0 -2,-0.398828 -2.5,0.201172 C 431.2,23.100781 428.70078,22.1 426.30078,23 l -2.60156,-0.599609 c -1,0.7 -3.49883,0.298828 -3.79883,1.298828 l 0.29883,1 h -3 c -2.5,-1.5 -6,0.6 -8.5,-1 -2.4,1.5 -5.19844,-0.19961 -7.39844,0.40039 -1.4,0 -3.40039,0.301172 -4.40039,-0.298828 2,0.2 0.8,-1.001172 2,-1.201172 -0.2,-0.2 -0.60117,-0.5 -1.20117,-0.5 l 0.60156,-0.40039 c -0.91802,-0.918023 -2.17275,0.337187 -3.30078,0.08789 v -0.08789 h -0.19922 l 0.041,0.04102 c -0.0471,-0.01694 -0.096,-0.01773 -0.14258,-0.04102 h -1 l 1,-0.298828 c 0.7,0 1.50078,-0.401172 2.30078,-0.701172 1.2,1 2.50078,-0.999219 3.80078,0.300781 -1,-0.4 -1.4,0.200391 -2,0.400391 0,0.3 -0.3,0.8 0.5,1 0.2,0 0.69922,-0.401172 0.69922,-0.701172 L 400.69922,22 c 1.6,-0.8 2.7,0.7 5,0 2.3,-0.7 5.6,1 8,-0.5 l -1.29883,-0.599609 2,-1 c 1,-1.4 -2.59961,-0.4 -3.59961,-1 h 2.89844 c -0.7,-1 3.60078,-0.701172 1.30078,-1.701172 -1,0 -2.19922,1.000781 -3.19922,0.300781 0.8,0 0.99961,-0.200781 1.59961,-0.300781 -0.3,-0.2 -0.79961,-0.29961 -0.59961,-0.59961 h 0.59961 c 1,-0.4 0.39922,-0.999609 0.69922,-1.599609 2.2,0.4 3.59961,-0.4 5.59961,-0.5 -4.5,-2 3.5,-0.400781 2.5,-2.300781 -2.7,-1 -7.5,-0.698438 -10.5,-0.398438 -1.6,-0.7 -5.19961,-0.30039 -6.59961,-0.40039 l -0.5,-0.300782 c -1.5,0 -3.5,-0.199609 -4.5,0.400391 l 0.5,0.400391 c -1,0.5 -2.59961,0 -3.59961,0.5 l 0.59961,-0.300782 c -1.8,-1.3 -5.7,-0.2 -8,-1 l 2.5,-1 c 0,0.4 -0.20039,0.8 0.59961,1 l 0.80078,-0.298828 0.19922,-0.40039 c 0,-0.3 -1,-0.6 -1,-1 0.5,0 0.80117,0 1.20117,-0.5000004 -0.6,-0.3 -1.60039,-0.3996093 -2.40039,-0.5996094 L 392.09961,8 C 392.29961,7.6 391.8,7.5007812 391.5,7.3007812 c -3.6,0.8000001 -4.00078,-0.3 -5.30078,-1 0.8,0 1.80039,-0.00156 2.40039,-0.6015624 -0.4,0 -0.99961,-0.2996094 -0.59961,-0.5996094 h 2.30078 c 0.2,0.6 0.19922,1 1.19922,1.5 1.3,-0.7 2.30078,-1.4 4.30078,-2 L 394.5,4 c 1.4,0 3.00039,0.7 4.40039,0 l -2.30078,-1 c 0.7,0 1.5,-0.5996094 2,-0.5996094 -3,-1 -7,-0.9996093 -11,-1.5996094 2,0 3.79961,-7.812e-4 5.59961,-0.3007812 0.6,-0.3 1.00078,-1 0.30078,-1.5 h -1 l -0.69922,0.5 V -1 Z m 466.45508,23.595703 c 0.004,0.0011 0.008,0.0028 0.0117,0.0039 H 466.5 Z M 177.69922,23.900391 V 24 h 0.0469 c 0.31772,-0.0551 0.63542,-0.09961 0.95313,-0.09961 z M 180.39844,24 h 1.07812 c 0.20639,-0.09179 0.55469,-0.09961 0.82422,-0.09961 h -2.20117 z m 3.00195,0 h 0.90039 L 184.5,23.900391 h -1.19922 z m -171.499999,2.300781 0.5,1.398438 1.298828,-0.798828 h -0.298828 v -0.5 h 0.298828 z m 1.798828,0.09961 v 0.5 l 1.701172,-0.59961 H 13.699219 Z M 383.09961,0.9003906 h 4 c -0.8,0 -1.69961,0.2988282 -2.59961,0.2988282 h -0.0996 c -0.4,0 -1.00078,0.00117 -1.30078,-0.2988282 z M 136.40039,2.6992188 H 143 v 0.5 h -7 z m 259.5,0.1015624 0.5,0.3984376 c -0.3,0 -0.5,-0.1984375 -0.5,-0.3984376 z M 166.69922,4.0996094 178.69922,4.5 C 175.89922,4.5 172.9,4.9 170,5 c -1.6,0 -2.99961,-7.812e-4 -4.59961,-0.3007812 1,0 1.99883,-0.1996094 1.29883,-0.5996094 z M 144.19922,5 h 8.5 V 5.3007812 Z M 35.582031,5.515625 c 0.817969,0.00723 1.71875,0.033984 2.71875,0.083984 -2.8,0 -7,-3.906e-4 -7,0.5996094 1.7,0 2.4,0.7 5,0.5 V 7.099609 h -12 V 6.8007812 c 3.85,-0.4375 5.555469,-1.3357421 11.28125,-1.2851562 z M 19.400391,5.599609 C 19.400391,5.8996094 19.7,6 20,6 19.8,6 19.699609,6.3007813 19.599609,6.3007812 v 0.099609 L 19.400391,6.1992188 Z M 383.09961,5.9003906 c 0.8,0 1.6,-0.00117 2,0.2988282 l 0.5,0.2011718 c -0.3,0 -0.5,-0.00117 -0.5,-0.2011718 -0.5,-0.2000001 -1,-0.2988282 -2,-0.2988282 z M 20.099609,6 H 20.5 c 0.3,0 0.5,0.1996094 0.5,0.5996094 0,0 -0.200391,0.4996094 -0.400391,0.5996094 L 21,7.5996094 h -0.199219 c -0.4,0 -1,-0.2996094 -1,-0.5996094 l 1,-0.5996094 L 20.5,6 20.300781,6.1992188 Z M 517.09766,6.082031 c 1.43906,0.042188 2.52734,0.71875 4.40234,0.71875 0.5,0.5 1.3,1.6 -1,2 0.5,0.4 -1.99922,0.799219 -0.19922,1.199219 -1.6,0.3 0.5,1.200391 -2,1.400391 l -0.10156,0.199218 -2.5,-1 2.80078,-1 c 0.3,-0.5 -2.5,-0.5999996 -0.5,-0.9999996 l -2.59961,-1 c 1.7,-0.4 0,-0.6 0,-1 h -0.20117 L 515.5,6.3007812 c 0.6,-0.1749999 1.11797,-0.2328124 1.59766,-0.2187502 z m 83.50195,0.3183594 -1.40039,0.6992188 c 0.5,0.5 1.5,0 2.5,0 V 7.300781 c -0.8,0 -1.69883,0.2992188 -2.29883,0.1992188 l 0.0996,0.099609 c -0.2,0 -0.30039,7.812e-4 -0.40039,-0.1992188 h -0.69922 c 0.2,-0.3 -0.30078,-1 2.19922,-1 z m -581.500001,1.5 h 1.59961 l 1.601562,1 z M 484.90039,8.0996094 V 8.5 L 483.5,9.099609 Z M 71.800781,8.1992188 h 7 v 0.4003906 z m 32.798829,0 h 1.70117 l 5,0.4003906 z m 40.59961,0.6015624 c 1.3,0 2,-0.00117 3,0.2988278 H 143.5 Z m 11.47656,0 c 2.525,0.025 4.82422,0.1488282 5.82422,0.2988278 h -13 c 1.9,-0.2499996 4.65078,-0.3238278 7.17578,-0.2988278 z m 189.42969,0.066406 C 346.39922,8.8625 346.7,8.8753906 347,8.9003906 L 345.19922,9.5 l 1,0.599609 L 347.5,9.5 c -0.6,0.6 0.40039,0.799219 0.40039,1.199219 -0.5,0 -1.00078,7.81e-4 -1.30078,0.300781 l 8,1 c -2.3,-0.3 -6.19961,-0.5 -8.59961,0.5 2.6,0.4 3,1.599609 6,1.599609 -0.6,0 -1.40078,3.91e-4 -1.80078,0.400391 2,0.5 4.5,0.600781 7,0.800781 -0.8,0 -1.59922,0.6 -2.19922,1 -0.5,1.7 3.5,1 5.5,1.5 l -0.80078,0.298828 c 0.5,0.5 1.5,7.82e-4 2.5,0.300782 5,0.4 11.30078,0.499218 17.30078,0.699218 -4,0.5 -6.2,0 -10,0.5 0.4,0.2 0.7,0.400391 1,0.400391 L 370,20.199219 C 369.2,19.999219 368,20.6 367.5,20 c -0.7,0.3 -1.19922,0.400391 -1.69922,0.400391 l 0.19922,0.5 c -1.8,0 -1.7,-2.400782 -5,-0.800782 -2,-1.2 -3.40039,0.801172 -5.40039,0.201172 -1.6,-0.3 -1,-1.000781 -2,-1.300781 -1,0 -2.6,-0.299219 -3,0.300781 h -0.29883 c -1,-0.4 -2.30117,-0.601172 -3.70117,-0.701172 1,0 1.79961,-0.4 2.59961,-0.5 l -1,-0.599609 c -2,-0.3 -3.39961,-0.2 -3.59961,-1.5 -0.7,-0.2 -1.80039,-1.000781 -2.40039,-0.300781 l -0.5,-0.298828 c -2.4,0.4 -6,-0.301172 -9,0.298828 0.95183,0.475917 1.90363,0.763134 2.85547,0.96289 -0.38084,0.159193 -0.81921,0.272587 -0.55469,0.53711 -1,0 -2.00039,-0.398828 -2.40039,0.201172 -0.4,0.4 7.8e-4,0.499218 0.30078,0.699218 L 333.5,17.699219 c 1,0 1.2,0.401562 2,0.601562 H 324.90039 V 17.699219 L 325.5,18 c 0.3,0 0.79961,-0.400781 0.59961,-0.800781 1.5,1 2.60078,0.4 4.30078,0 -1.4,0 -2.00078,-0.79961 -3.80078,-0.59961 0.3,0 0.99961,-0.299609 0.59961,-0.599609 -0.4,-0.3 -1.2,-0.300781 -2,-0.300781 v -0.59961 c -2.7,-0.5 -3.99922,-0.498828 -6.69922,-0.298828 0.8,0.3 1.39961,0.79961 2.59961,0.59961 L 320.5,15.800781 c -2.6,0.6 -1.79961,-1 -3.59961,-1 -2.3,-0.5 -6,-0.300781 -8,-0.300781 -3.6,-1 -6.59961,7.81e-4 -9.59961,-0.199219 h -1.0664 C 298.02889,14.204846 297.8385,14.092855 297.69922,14 l -0.59961,0.300781 h -0.79883 v -0.101562 c -1,-0.8 -4.30156,7.81e-4 -5.60156,-0.699219 -3,0 -4,1.800781 -6,-0.199219 C 284.29922,13.300781 283.7,13.7 284,14 c -1,-0.2 -2,0.199609 -2.5,-0.400391 L 279.90039,13 l 2.19922,0.199219 c 0.3,0 1.00117,-0.399219 0.70117,-0.699219 0.6,0.6 2,0.200781 3,0.300781 5,-0.8 9.5,1.598438 15,0.398438 4.6,1 11,0.2 16,1 3.5,-0.8 9,0.7 12,-1 V 13.5 c 3.5,1 9.4,1.699609 14,0.599609 -1,-0.6 -1.00156,-1.6 -2.60156,-1 0.4,-0.4 0.70039,-0.599609 1.40039,-0.599609 v 0.300781 c 1,1 2.29961,-7.81e-4 3.59961,-0.300781 -2.2,0 -3.99922,-1.200781 -6.19922,-0.300781 l 0.69922,-0.298828 c -0.4,-0.3 -1,-0.201172 -2,-0.201172 -0.3,0 -0.99922,0.201562 -0.69922,0.601562 l -0.59961,-0.201172 c -2.2,0 -5.30078,-1.5 -6.80078,0 -1.6,-1 -4.29961,-1.00039 -5.59961,-1.40039 l 16,1 c 1.3,-0.7 3.70078,0.4 4.30078,-1 -1,0 -0.3,-0.699219 -0.5,-1.199219 0.6,-0.45 1.42344,-0.61875 2.30469,-0.6328128 z M 488.19922,9.199219 c 1,0 3.30078,0.0012 3.30078,0.701172 -0.5,-0.2 -1,-7.82e-4 -1.5,0.199218 v 0.201172 h -0.19922 c -0.8,-0.4 -2.00078,-0.501172 -2.30078,-0.701172 0,-0.2 0.19922,-0.30039 0.69922,-0.40039 z m 144.5,0 1.33789,0.667969 -1.33789,-0.466797 z M 532.30078,9.300781 h 1.39844 l -0.69922,1 c -0.7,0 -0.69922,-0.30039 -0.69922,-0.40039 0,-0.2 0.2,-0.29961 0,-0.59961 z m 77.69922,0 2.69922,1 H 612 c -1.2,0 -1.4,-0.6 -2,-1 z M 44.199219,9.400391 c 6.302265,0 10.403285,0.333428 14.298828,0.835937 C 53.551435,10.005787 46.879571,10.523869 44.199219,9.599609 Z M 105.69922,9.5 c -0.6,0.3 -1.3,0.400391 -2,0.400391 -1.3,0.2 -2.99883,0.298828 -4.298829,0.298828 L 99.5,10.300781 c -1,0 -1.800391,-0.3 -2.400391,-0.5 h 6.599611 z m 514.65039,0.224609 c 0.45,0 0.85078,0.075 1.05078,0.375 h -3.20117 L 619,9.800781 c 0.4,0 0.89961,-0.07617 1.34961,-0.07617 z M 115.90039,10 H 124.5 v 0.300781 z m -54.201171,0.5 c 1,0 2.5,0.300781 4,0.300781 h -0.09961 -2.90039 z m 494.500001,0 0.60156,0.199219 c -2,0.4 1,0.700781 0,1.300781 -0.6,0 -1.00078,-7.81e-4 -1.30078,0.199219 h 0.59961 c 0,0.187669 -0.0213,0.458312 -0.59961,0.574219 v -0.472657 h -0.30078 c 0,-0.6 0,-1.200781 1,-1.800781 z m 27,0 h 0.20117 l 1.79883,0.800781 c -1.4,0.3 -0.3,0.5 0,1 h -0.0996 l -1.69922,-1 c 1.6,0 -10e-4,-0.500781 -0.20117,-0.800781 z m 73.14844,0.07031 c 1.21406,-0.06445 2.30273,0.02891 3.05273,0.628907 h -1.59961 l 0.0996,0.101562 c -3,0 -5.60078,-0.60039 -8.30078,-0.40039 0,0 0.39961,-7.82e-4 0.59961,-0.300782 1.75,0.625 4.125,0.07813 6.14844,-0.0293 z M 594,10.599609 c -0.4,0.3 0.29961,0.4 0.59961,0.5 L 593,11.5 595.19922,12.199219 592,11.400391 Z m 10.80078,0.201172 c -1,0.2 -0.60117,1 -0.70117,1 h -0.19922 L 603.30078,11 Z m -44.92383,0.02149 c 0.77344,-0.0094 1.44766,0.178515 1.22266,0.478515 -0.4,0 -1.00039,-0.0012 -1.40039,0.298828 -0.6,0 -0.59961,-0.3 -0.59961,-0.5 v -0.199218 c 0.25,-0.05 0.51953,-0.075 0.77734,-0.07813 z M 97,10.900391 c 1,0.2 1.699219,0.398828 3.19922,0.298828 v 0.40039 H 90 v -0.5 c 2.4,0 5.6,0.400782 7,-0.199218 z M 393.90039,11 c -0.3,0 -0.2,0.300781 0,0.300781 z m -328.499999,0.09961 11,0.300782 h -3.201172 v 0.199218 c -3,0 -5.598828,-0.3 -7.798828,-0.5 z M 19.966797,11.13477 C 20.104883,11.08418 20.137891,11.675 20.400391,11.5 l -0.201172,0.699219 -0.298828,-1 c 0.025,-0.0375 0.04668,-0.05723 0.06641,-0.06445 z M 6.5,11.199219 6.7148438,12.552734 C 6.6260413,12.242612 6.5,11.997158 6.5,11.800781 Z m 207.90039,0 h 7.69922 c -1.8,0 -3.29922,0.3 -4.69922,1 v -0.398438 c -0.5,-0.6 -2,-7.81e-4 -3,-0.300781 z M 13.699219,11.300781 h 0.5 L 14.099609,14 h -0.40039 z m 229.800781,0 C 245,12.600781 248.30078,11.5 250.30078,12 L 244,12.300781 244.30078,12.5 h -2 c -6,0 -12.60078,-0.6 -18.80078,-1 7,0 14,0.300781 20,-0.199219 z m 267.69922,0.09961 c 0,0.6 1.4,0.999218 0,1.199218 l 0.60156,0.201172 -1,0.398438 c -0.2,0.6 1.99883,0.0016 2.79883,0.601562 -0.98074,0.392297 -1.00868,0.973719 -2.70703,0.996094 l -0.99219,-0.597656 z m 22,0 c 1,0 1,0.499218 0,0.699218 V 12 c 0,-0.3 0.2,-0.499609 0,-0.599609 z M 471.09961,11.5 l 0.70117,0.400391 c 0.4,0.4 2.49922,0.799218 0.69922,1.199218 h -0.40039 C 471.63616,12.867886 471.17085,12.639556 470.61523,12.5 h 1.08399 c 0.4,-0.3 -0.59961,-0.5 -0.59961,-1 z m 37.09961,0.199219 c 0.6,0.7 -1.39844,1.300781 -0.39844,1.800781 h -0.40039 v 0.400391 h -0.30078 c 0.2,0.3 0.50117,0.6 1.20117,1 -0.6,0 -1.00078,-7.82e-4 -1.30078,0.199218 1.3,0.2 -0.19922,1.001172 1.80078,1.201172 L 506.5,17 c -2,-0.7 2.4,-1.3 -1,-2 1.2,-0.4 1.5,-0.700781 1.5,-1.300781 V 13.5 h 0.19922 c 0,-0.5 -0.2,-1.200781 1,-1.800781 z m 33.70117,0.101562 H 542.5 L 542.59961,12.5 c 0,-0.4 -0.19922,-0.599219 -0.69922,-0.699219 z M 502.5,11.900391 h 2.5 l -2.09961,1 c 0,-0.4 0.29961,-0.7 -0.40039,-1 z m -251.69922,0.199218 c 0.6,0 1.3,7.82e-4 2,0.300782 V 12.5 c -0.8,0 -1.6,-0.300391 -2,-0.400391 z m 4.19922,0 c 7.8,0.5 16.8,0.4 24,1 h 0.19922 c -0.7,0.2 -1.49883,0.300782 -2.29883,0.300782 l -0.20117,-0.09961 c -2.4,0 -5,-0.601562 -7.5,-0.601562 h -15.5 L 253,12.400391 c 0.6,0 1.4,-7.82e-4 2,-0.300782 z m 227,0 -0.19922,3.09961 h -1 c -0.2,0 -0.20117,-0.599219 -0.20117,-0.699219 H 481 c 0,-0.8 0.7,-1.600391 1,-2.400391 z m 68.80078,0 h 1.5 l -1.20117,1 z m -17.70117,0.09961 c 0.8,0 0.79961,0.0012 0.59961,0.201172 L 533.59961,12.5 c -0.2,0 -0.4,-0.200781 -0.5,-0.300781 z m 42.20117,0 c 1.2,0 1.99922,0.0012 2.19922,0.201172 l -0.59961,0.5 v -0.300782 c -0.6,0 -0.99961,-0.40039 -1.59961,-0.40039 z m 15.29883,0.201172 h 2 l -2,1 2,0.40039 c -0.5,0.2 0,0.49961 -1,0.59961 l 0.0996,0.09961 c -0.7,-0.7 -1,-1 -2.5,-1.5 1,0 1.60039,-0.299609 1.40039,-0.599609 z M 79.599609,12.5 l 2.201172,0.300781 h -1.201172 l -0.5,0.298828 c -0.5,0 -0.5,-0.298828 -0.5,-0.298828 z m 456.099611,0 2.70117,0.5 c -2,0.4 0.19922,0.599609 1.19922,0.599609 l -2,0.400391 -0.29883,-0.199219 c -0.3,0 -0.7,-7.81e-4 -1,-0.300781 H 537 c 0.4,-0.4 -0.60078,-0.7 -1.30078,-1 z m 29.5,0 c 2,0.6 -1.29883,1.300781 0.20117,1.800781 h -1.20117 c 0.4,-0.6 2.6,-1.200781 1,-1.800781 z m -95.4707,0.02344 -0.82813,0.277343 c 0.20257,-0.202567 0.50476,-0.255977 0.82813,-0.277343 z m 63.17187,0.07617 h 0.29883 l -0.29883,0.300782 z m 50.79883,0 -0.59961,0.5 c 0,-0.3 0.29961,-0.4 0.59961,-0.5 z M 12.099609,12.69922 c 0,0.4 0.2,1 0,1.5 v 0.101562 c 0,-0.5 -0.2,-1.001562 0,-1.601562 z m 556.300781,0 c 0.2,0 0,0.20039 0,0.40039 z m 14.79883,0 c -0.3,0.5 0,1.000781 -1,1.300781 V 13.69922 c 0,-0.3 0.5,-0.6 1,-1 z m -67.54883,0.04492 c 0.19199,0.0014 0.4375,0.01914 0.75,0.05664 0.7,1 -2.00078,2.398828 1.69922,2.798828 l 0.59961,-0.298828 c 0,-0.6 -1.6,-1.001172 0,-1.701172 -0.8,-0.2 -0.8,-0.598828 -1,-0.798828 l 2,0.199219 c -0.8,1 0.70039,1.7 -0.59961,2.5 0.5,0.2 1.2,0.400781 1,0.800781 -0.3747,0.281025 -0.92129,0.293798 -1.40039,0.294922 V 16.5 h -0.5 c -0.7,-0.2 -0.59844,-0.500781 -0.39844,-0.800781 L 517.40039,15.5 c -4.2,0 -2.20117,-1 -2.70117,-2 0.875,0 -0.39277,-0.76543 0.95117,-0.755859 z m -375.05078,0.05664 h 4 l -2,0.298828 c -0.5,-0.2 -1,-0.298828 -2,-0.298828 z m 4.30078,0 c 0.4,0 1,-7.81e-4 1,0.199219 v 0.09961 z m 340.5,0 c -0.91381,0.182763 -1.0062,0.449191 -1.39453,0.722657 0.006,-0.372413 0.0856,-0.722657 1.39453,-0.722657 z m 4.81445,0.02344 c 0.42344,0.0016 0.86016,0.02617 1.28516,0.07617 v 0.199218 l -2,-0.199218 c -0.5,0.4 -2,0.698828 -1.5,1.298828 v 0.101562 c -0.4,0 -0.69922,-0.3 -0.69922,-0.5 L 487.5,14 c -0.2,-0.3 0,-0.499609 0,-0.599609 0.3,-0.375 1.44453,-0.58086 2.71484,-0.576171 z m 6.08594,0.07617 0.5,0.199218 1,-0.199218 c 0,0.6 -1.3,1.798828 1,1.798828 -0.3,0.3 -2,0.7 -1,1 0,0 0.3,0.4 -0.5,0.5 l 0.59961,0.201172 c -0.2,0 0.70039,0.499218 -0.59961,0.699218 L 497,17 c -0.6,-0.4 0,-0.8 0,-1 0.4,-0.5 0.40078,-0.999219 -1.69922,-1.199219 H 493 l 1,-0.40039 c 0.8,0 1.6,-0.0012 2,0.298828 L 496.69922,14.5 c 0.3,-0.2 -0.99883,-0.3 -1.29883,-0.5 l 1.29883,-0.5 c 0,0 0.20039,-0.3 -0.59961,-0.5 L 495.5,13.300781 c -0.2,-0.3 0.30078,-0.40039 0.80078,-0.40039 z M 558.40039,13 c -0.17267,0.259013 -0.28343,0.442901 -0.56445,0.617188 0.0784,-0.278642 0.31629,-0.451749 0.56445,-0.617188 z m -31.5,0.09961 v 1 c -3.27704,0.794436 2.90115,1.687158 -0.92969,2.28711 0.14283,-0.127295 0.49258,-0.208462 0.72852,-0.28711 -1.5,-0.4 -0.6,-1.30039 -2,-1.40039 V 14.5 c 2,-0.2 -0.39883,-1.400391 2.20117,-1.40039 z m 100.09961,0 0.69922,0.201172 0.5,-0.201172 c 0,0.2 7.8e-4,0.201172 -0.19922,0.201172 -0.2,0.2 -0.5,0.199219 -1,0.199219 z M 6.5,13.199219 6.9003906,14 6.5,13.699219 Z m 464.30078,0 c 0.7,0.3 1.99883,0.400781 3.29883,0.300781 l -2,0.5 v -0.199219 c -0.3,0 -0.69883,-0.300781 -1.29883,-0.300781 z m 82.19922,0 2,1.101562 L 553,13.5 Z m -17.69922,0.101562 -2,1.09961 L 532.5,14.099609 Z m -32.70117,0.09961 c -0.3,1 3,0.498828 2,1.298828 h -2 c -0.4,0.3 0.29961,0.401562 0.59961,0.601562 L 502.30078,15.5 c 0,-0.3 -1,-0.7 -1,-1 0,0 0.39844,-0.300391 1.39844,-0.400391 0,-0.3 -0.29961,-0.4 -0.59961,-0.5 z m 43.09961,0 h 1.40039 c -1.3,0 -0.39883,0.698828 -0.79883,0.798828 l 0.0996,0.101562 L 545.69922,14 Z M 501,13.5 l 0.5,0.300781 C 501.2,13.800781 501,13.8 501,13.5 Z m 114.30078,0 1.5,0.300781 c 1,0 1.69844,-0.3 2.39844,0 h -0.29883 -2.09961 -0.10156 c -0.4,0 -0.99844,-7.81e-4 -1.39844,-0.300781 z m 12.39844,0 H 628 l 1.40039,0.5 z M 98.800781,13.699219 c 1,0 4.499999,0.301172 4.999999,0.201172 l -0.5,0.5 c -1.2,-0.3 -3.499999,-7.82e-4 -4.499999,-0.300782 z m 168.298829,0 h 7 V 14 h -7 z m 321.5,0 h 0.59961 c -2,0.6 0.50117,1.00039 -0.29883,1.40039 L 588.80078,15 586.40039,14.599609 v -0.298828 c 2.2,0.3 0.49922,-0.601562 2.19922,-0.601562 z m -98.90039,0.101562 h 1 c 0.4,0 0,0.198828 -0.5,0.298828 h 0.5 l 0.20117,0.300782 -0.59961,-0.201172 h -0.60156 z M 202.90039,14 c 0.3,0.2 -0.40117,0.3 -0.70117,0.5 l 1,0.199219 h 2.5 v -0.298828 c 0.5,0 0.7,-7.82e-4 1,0.199218 5.8,-0.3 11.60117,-0.5 17.20117,0 L 220.5,14.900391 c -0.3,-0.2 -1.00078,-0.201172 -1.30078,-0.201172 L 219.59961,15 c -0.7,0 -1.00039,0.300391 -1.40039,0.400391 v 1 h 0.5 c 0.4,0 1,0.20039 1,0.40039 l -0.79883,0.298828 c -1.2,0 -2.3,0.0012 -3,-0.798828 h -3.30078 c 0,0 -3.9e-4,-0.201172 -0.40039,-0.201172 h -1.59961 l 2.20117,-0.5 v 0.201172 h 4 l 1.39844,-0.5 h -0.59961 L 216.30078,15 h -2.5 L 214.19922,14.800781 206.80078,15 H 207 c -0.3,0.2 -0.5,0.399609 -0.5,0.599609 h -0.40039 c 0.3,0.2 0.50078,0.400391 0.80078,0.400391 h 0.40039 l -1,1 -2,-1 h -0.53516 l -0.66601,-0.199219 c -0.8765,-0.1753 -1.51618,-0.03807 -2.06641,0.199219 h -0.33398 c -0.0413,0.02889 -0.0733,0.06391 -0.11328,0.09375 L 199.09961,15.5 l 1,-0.300781 c -3,0 -5.99922,0 -8.69922,-0.5 2.4,0 6,-0.299219 7,0.300781 h 2 z m 180.29883,0 c 3,0 5.60156,1.299219 8.60156,0.699219 0,0.4 -7.8e-4,0.8 -0.80078,1 L 390.5,15.5 c -1,0 -2,-0.299219 -2.5,0.300781 0.3,0.2 0.8,0.29961 0.5,0.59961 -1.3,-0.2 -2.50078,-0.7 -4.30078,-0.5 -2,-0.6 -3.79883,1.199609 -4.79883,-0.400391 -1.4,1.6 -4.99961,0 -5.59961,2 l -0.10156,-0.199219 H 373.5 c -2.2,-0.5 -5.29922,-0.0016 -6.69922,-1.601562 -2.5,0 -6,1.5 -8,0 C 358.80078,15.499219 358.5,15.5 358.5,15.5 h -0.40039 c 3.5,0 7,-0.3 10,-0.5 l 0.20117,-0.400391 c 0.8,0.5 2.99961,0.600391 3.59961,0.400391 3.6,0.5 8.29883,0.7 11.29883,-1 z M 12.400391,14.09961 h 1 c -0.2,0.2 -0.4,0.201172 -1,0.201172 z m 50,0 c 1.6,0 3.3,7.82e-4 4,0.300782 V 14.5 Z m 205.599609,0 c 1.4,0 3,0.0012 4,0.201172 V 14.5 c -1,-0.4 -2.8,-0.400391 -4,-0.400391 z m 339,0 2.69922,0.5 H 609 Z m -341,0.09961 h 0.30078 L 266.40039,14.5 H 266 Z m 349,0 v 0.40039 c -0.4,0 -1,0.0012 -1,0.201172 h -0.0996 -0.20117 L 613.30078,14.5 Z m -449.6875,0.101562 c 3.2875,-0.025 6.5375,0.09961 9.6875,0.59961 L 174.90039,15 l -5.5,-0.199219 h -1.70117 l -12.29883,-0.201172 c 3.3,-0.1 6.62461,-0.273828 9.91211,-0.298827 z M 181.90039,14.5 h 5 l 1.69922,0.5 z m 255.40039,0 2.39844,0.800781 h 0.70117 l -1.81836,0.181641 C 438.10086,14.995621 437.99043,14.697043 437.30078,14.5 Z m 138.5,0 0.5,0.400391 -0.5,0.298828 z m -13.14062,0.07422 c 0.12812,0.0125 0.23984,0.07656 0.33984,0.226562 0,0.2 3.9e-4,0.59961 -0.59961,0.59961 L 562.30078,15.5 561,14.800781 c 0.75,0.15 1.27578,-0.264062 1.66016,-0.226561 z m -17.35938,0.125 c 2,0 0.99961,0.400781 0.59961,0.800781 0.3,-0.4 -0.59961,-0.500781 -0.59961,-0.800781 z m -66.90039,0.101562 c 2.3,0.4 1,0.998438 0,1.398438 1,0 2.29922,0.301172 3.69922,0.701172 h -4.40039 l -0.29883,0.40039 c -0.4,0 -0.70117,-0.200781 -0.70117,-0.300781 h -1.39844 c -1,0.6 -1.60156,-0.300781 -2.60156,-0.300781 H 472.5 c 1,0 1.99922,-0.398828 2.69922,0.201172 l 1.20117,-0.701172 h 0.29883 c 0.7,-0.3 2.00117,-0.998438 1.70117,-1.398438 z m -371.91992,0.08399 c 0.93125,0.0031 2.02031,0.04023 3.32031,0.115234 0,1 -6.3,0.200781 -9,0.800781 v -0.101562 c 1.5,-0.525 2.88594,-0.823828 5.67969,-0.814453 z m 69.61914,0.214843 2,0.201172 -1.5,0.298828 h 1 c 0.7,0.3 -0.69922,0.39961 -1.69922,0.59961 l 8.5,0.601562 h -9 l -1.20117,0.398438 0.20117,0.101562 c -0.5,0 -1.00078,-0.0012 -1.30078,-0.201172 h -5.79883 v -0.5 h 5 c 1,0 1.3,-0.299609 2,-0.599609 l 0.29883,-0.300781 v 0.201172 l 0.70117,-0.201172 c 0.4,0 0.99883,-0.29961 0.79883,-0.59961 z m 27.90039,0 1.40039,0.201172 L 205.30078,15.5 206,15.099609 Z m 371.5,0 c 0,0.2 0.2,0.6 0,1 v 0.09961 c -0.4,0 -0.69922,-0.29961 -0.69922,-0.59961 0,0 0.49922,-0.2 0.69922,-0.5 z m 7.40039,0 h 1.29883 c -0.3,0.2 -0.99922,0.2 -0.69922,0.5 0.6,0.2 1.20039,0.500391 2.40039,0.400391 l 0.19922,0.5 c -0.2,-0.5 -3,-0.5 -3.5,-1 z m 24.22266,0.0098 c 0.91406,0.02812 1.47656,0.364844 1.47656,0.589844 l 0.0996,0.201172 c -1.3,0 -1.59961,-0.501172 -2.59961,-0.701172 0.375,-0.075 0.71875,-0.09922 1.02344,-0.08984 z M 23.599609,15.300781 h 1.09961 l 1.701172,0.398438 h -0.5 c -0.6,0 -1.4,-0.3 -2,0 -0.3,0 -0.800782,7.81e-4 -1.300782,-0.199219 0.6,0 1,7.81e-4 1,-0.199219 z m 530.701171,0 c 0.2,0.4 -0.40039,1 -1.40039,1 L 552.80078,16.5 c -0.2,-0.4 -0.6,-0.400391 -1,-0.400391 1.2,0 2,-0.798828 2.5,-0.798828 z m 88,0 H 642.5 l 0.5,0.298828 c -0.5,0 -0.69922,0.200782 -0.69922,0.300782 z M 15.599609,15.5 l 0.300782,0.199219 h -1 z m 639.701171,0 1.19922,0.400391 -2,0.298828 c -0.2,-0.4 1.20078,-0.399219 0.80078,-0.699219 z m -390,0.09961 2.69922,0.201172 -1.69922,0.09961 z m 280.39844,0 L 545.5,16 l 0.40039,0.300781 V 16.5 h -0.20117 c 0,-0.3 -0.19922,-0.300391 -0.19922,-0.400391 0,-0.2 -0.20039,-0.199218 -0.40039,-0.199218 z M 9.3007812,15.699219 v 0.201172 H 9.5 v -0.201172 z m 7.4999998,0 h 0.298828 z m 74.09961,0 5,0.201172 L 97.5,16.199219 Z m 136.699219,0 h 6.80078 v 0.601562 h -3 V 16.5 h -0.0996 -1.70117 l 1.70117,-0.400391 h -3.70117 z m 14.09961,0.101562 1,0.59961 h -0.59961 c -0.2,0.3 -0.5,0.40039 -1,0.40039 v -0.101562 c -0.3,0 -0.8,0.0012 -1,-0.298828 h -0.19922 c -0.5,0 -0.60117,-0.0012 -0.70117,-0.201172 L 239.40039,16 c 0,0.2 0.19883,0.300781 0.29883,0.300781 h 0.20117 c 0.5,0 1.29883,-0.3 1.79883,-0.5 z m 304.10156,0.09961 c 1.4,0.2 2.49922,0.799218 3.69922,0.199218 0.2,0.6 1.6,0.701172 2,1.201172 h -0.19922 c -2.5,0 -4,-0.601172 -5.5,-1.201172 z M 515.09961,16 c 0.2,0.3 0,0.399609 0,0.599609 z m 65,0 0.40039,1 h -1 z M 200.5625,16.111328 c -0.5871,0.443653 -1.05227,0.962152 -1.55273,1.365234 0.32158,-0.517995 0.47244,-1.081609 1.55273,-1.365234 z m -137.693359,0.04102 c 0.71875,0.0047 1.40625,0.07305 2.03125,0.248047 l -8.5,0.298828 c 1.875,0 4.3125,-0.560938 6.46875,-0.546875 z m 86.431639,0.148437 2.79883,0.398438 h -1 c -1,0 -0.79883,-0.298438 -1.79883,-0.398438 z m 59.59961,0 h 1 l -0.5,0.199219 c -0.2,0 -0.4,7.81e-4 -0.5,-0.199219 z m 41,0 5,0.199219 h -7 z m 64.5,0 3,1 c -0.8,0.5 -1.8,0.5 -3,0.5 v -0.101562 c 1.5,-0.4 -0.2,-0.998438 0,-1.398438 z m 11,0 L 324.19922,17 h -1.29883 z m 286.5,0 3,0.398438 c -1,0 -2,0.0016 -3,-0.398438 z M 33.748047,16.410156 c 5.095312,-0.07969 10.626562,0.389453 13.851562,0.689453 v 0.59961 c -4,-1 -11.999218,-1 -18.699218,-1 1.5,-0.175 3.149218,-0.2625 4.847656,-0.289063 z m 232.574223,0.0059 c 1.24687,-0.02812 2.57812,0.08398 4.07812,0.08398 h -5.30078 c 0.4,-0.05 0.80703,-0.07461 1.22266,-0.08398 z M 69.644531,16.591797 c 0.30293,-0.02051 0.592969,0.04609 0.855469,0.308594 h -0.599609 c -0.3,0.2 -1.001172,0.399609 -0.701172,0.599609 l -0.298828,0.199219 -1,-0.798828 h 0.199218 c 0.5,0 1.040039,-0.274414 1.544922,-0.308594 z m 540.255859,0.0078 v 0.701172 h -0.20117 -1 c 0,-0.5 0.20117,-0.701172 1.20117,-0.701172 z m 9.79883,0 c -0.5,0 -0.49922,0.501172 -0.69922,0.701172 l 5.59961,-0.40039 h -3 l -0.69922,-0.300782 z m -351.1543,0.01563 c 0.71719,0.0094 1.38008,0.03398 1.95508,0.08398 h -9 c 2.25,0 4.89336,-0.11211 7.04492,-0.08398 z m 324.25586,0.08398 h 2 c -0.5,0.2 0.5,0.301172 0.5,0.701172 l -1.90039,0.298828 c 0.4,-0.4 -0.59961,-0.7 -0.59961,-1 z m 6.89844,0 1,1 c -0.8,-0.4 -1.4,-0.6 -1,-1 z m -263.87891,0.01758 c 1.66537,0.279736 3.43698,0.290952 5.87891,0.583984 -1.92807,-0.28921 -4.77993,0.438036 -5.87891,-0.583984 z M 184.30078,17.099609 H 185.5 l 0.5,0.201172 h -1.69922 z m 317.59961,0 c -1.6,0.6 0,1.600782 -2,1.800782 0.2,0.5 1.19883,0.8 2.29883,1 l 0.10156,0.199218 0.59961,-1 c -1.3,-0.6 1,-1.2 -1,-2 z m -310.17773,0.07422 c 0.12812,0.01406 0.25195,0.05195 0.37695,0.126953 h -1.69922 c 0.525,0 0.93789,-0.16914 1.32227,-0.126953 z m 446.16406,0.04102 c -1.01856,-0.06445 -1.92383,0.310547 -2.98633,0.685547 L 638,18.099609 c 1,0 2.00078,0.0012 3.30078,-0.298828 L 640.69922,17.5 l -0.79883,0.400391 c -0.75,-0.45 -1.40254,-0.646875 -2.01367,-0.685547 z m -617.687501,0.08594 4,0.398438 h -3 z m 623.701171,0 c -0.22756,0 -0.44403,0.0625 -0.63477,0.136719 l 1.03516,-0.136719 z m -0.63477,0.136719 -0.46484,0.0625 0.0996,0.09961 c 0.0862,-0.04311 0.2207,-0.105864 0.36523,-0.162109 z M 642.80078,17.5 h -0.70117 l 0.20117,0.300781 c 0,-0.2 0.3,-0.200781 0.5,-0.300781 z m -32.70117,-0.09961 c 0,0 0.19961,0.30039 0.59961,0.40039 h -0.59961 z M 141,17.599609 h 1.19922 c 0,0.3 3.9e-4,0.7 -0.59961,1 0,-0.4 0.40039,-1 -0.59961,-1 z m 456.80078,0 c 0,0.2 -10e-4,0.6 -0.70117,1 0,-0.5 -0.59883,-1 0.70117,-1 z m -461.87109,0.08398 c 0.47109,0.007 0.92109,0.09141 1.37109,0.316406 h 1 l -0.60156,0.199219 h -3 c -0.6,0 -1,7.81e-4 -1,0.300781 l 0.60156,0.199219 c 1.4,-0.5 4.19922,-0.298828 6.69922,-0.298828 l -6,0.5 1,0.199218 -3.93945,0.492188 C 132.85376,19.050903 131.33789,18.65625 131.90039,18 h 1.40039 c 1,-0.125 1.84375,-0.328125 2.62891,-0.316406 z m 267.66992,0.01563 0.59961,0.300781 -2,0.199219 -0.0996,0.40039 c -0.3,0 -0.7,-3.9e-4 -1,-0.40039 l 0.80078,-0.398438 0.5,0.298828 c 0.5,0 0.99922,-3.9e-4 1.19922,-0.40039 z M 30.699219,17.800781 c -0.3,0 -0.698438,-0.0012 -0.398438,0.298828 H 29.099609 L 29,18.300781 28.5,18.099609 h -1.599609 c 0.3,-0.3 1.998828,-0.298828 3.798828,-0.298828 z m 154.300781,0 h 4.5 c -0.8,0 -1.60039,-7.81e-4 -2.40039,0.199219 L 187,18.099609 c -0.7,0 -1.5,0.0012 -2,-0.298828 z m 220.59961,0 h 0.5 L 406,18.099609 h -0.40039 z m 1.20117,0 1.89844,0.5 -0.69922,0.298828 0.59961,0.5 c 0,0.3 -0.5,0.49961 -1,0.59961 H 407.5 v -0.207031 c -0.25261,0.2121 -0.30078,0.322407 -0.30078,0.408203 l 1,1.40039 c -2.5,-0.5 -5.8,-7.81e-4 -7,-1.300781 2,-1 3.00039,1.000781 5.40039,0.800781 1.3,-0.4 -0.4,-0.801172 0,-1.201172 L 407.5,19.419922 v -0.01953 h 0.0996 0.0996 l -1,-0.400391 0.60156,-0.400391 c -0.2,-0.2 -0.70117,-0.199218 -1.20117,-0.199218 0.3,0 1.00117,-0.29961 0.70117,-0.59961 z m 0.79883,1.59961 -0.0996,0.01953 v 0.07227 c 0.0418,-0.03512 0.0428,-0.04918 0.0996,-0.0918 z m -360.000001,-1.5 1.400391,0.5 c 3.6,0.5 12.300781,-0.0012 15.300781,0.298828 L 66,18.400391 C 70,18.400391 74.199219,18.2 76.199219,19 v 0.09961 H 49 v -0.699218 c -0.8,0 -1.400391,-0.2 -1.400391,-0.5 z M 216.75,18 c 1.8,0 3.55,0.100781 4.75,0.300781 h -7.19922 l 0.29883,0.398438 h 0.59961 c -0.2,0 0.3,0.0012 0.5,0.201172 h -0.59961 L 215.5,19.5 h -2 l 0.30078,-0.599609 0.29883,-0.59961 h -2.40039 C 213.09922,18.100781 214.95,18 216.75,18 Z M 13.400391,18.300781 c 1,0.8 0.3,0.998828 0,1.798828 z m 97.298829,0 h 1 l -1.5,0.199219 -0.0996,0.09961 h -0.69922 z m -69.304689,0.232422 c 0.85,0.01719 1.68086,0.09258 2.50586,0.267578 h -8.300782 v 0.298828 c -0.8,0 -1.699218,0.0012 -2.699218,-0.298828 3.225,0.15 5.94414,-0.31914 8.49414,-0.267578 z m 35.705078,0.06641 h 2.59961 l -2.59961,0.201172 z m 53.900391,0 v 0.5 h -6.80078 c 2.4,0 4.80078,-0.3 6.80078,-0.5 z m 362.5,0 h 3 v 0.509766 c -0.35063,-0.06059 -0.7033,-0.03112 -1,0.191406 C 495,19.000781 494.2,19 493.5,19 Z m -387.90039,0.201172 h 1.5 v 0.298828 h 0.70117 v 0.201172 h -0.70117 c -0.6,0 -1,-0.3 -1.5,-0.5 z m 66.30078,0 h 2 c -0.7,0 -1.4,-0.0016 -2,0.398438 z m 4,0 h 8 l -1,0.199219 h -0.30078 c -0.4,0 -0.99961,-7.81e-4 -1.59961,0.199219 l -0.0996,0.101562 c -1.8,0 -3.4,-0.5 -5,-0.5 z m 136,0.09961 0.59961,0.298828 c -0.62879,0 -0.68511,0.32605 -0.61914,0.68164 -0.45268,-0.0452 -0.48047,-0.221039 -0.48047,-0.480468 h -0.20117 z m -200.26172,0.115234 c 1.09219,-0.02812 2.31133,0.08398 3.36133,0.08398 h -4.40039 c 0.325,-0.05 0.675,-0.07461 1.03906,-0.08398 z M 108.5,19.099609 h 2 c -1,0 -1.5,0.0012 -2,0.201172 z m 41.03711,0.03125 c 0.0562,0.01875 0.11211,0.06992 0.16211,0.169922 h -0.0996 -0.40039 c 0,0 0.16914,-0.226172 0.33789,-0.169922 z m 128.36328,0.169922 h 4 L 282.5,19.699219 Z m -85.32617,0.03125 C 193.60547,19.275781 194.525,19.5 195.5,19.5 h -4 c 0.375,-0.1 0.73047,-0.149219 1.07422,-0.167969 z m 72.92578,0.06836 -1.40039,0.699218 c -0.5,-0.3 -2,7.82e-4 -3,0.300782 v -0.09961 c 0,-0.3 7.8e-4,-0.4 -0.19922,-0.5 1.3,-0.2 2.99961,-3.9e-4 4.59961,-0.40039 z m 51,0 h 3.19922 c -0.74511,0 -1.47651,0.34476 -1.89844,0.634765 v -0.134765 z m 81.5,0 c -0.2,0.4 0.5,0.5 1,0.5 l -0.40039,0.199218 c -0.6,-0.6 -1.79961,0.0012 -2.59961,-0.298828 z M 19.199219,19.599609 c 0.2,0 0.201172,0.3 0.201172,0.5 -0.2,-0.2 -0.201172,-0.3 -0.201172,-0.5 z m 112.841801,0.0059 2.05859,0.294922 h -2.19922 v -0.201172 c 0.0657,-0.03287 0.092,-0.062 0.14063,-0.09375 z m 217.1582,0.09375 v 0.40039 h -1 c 0.3,0 0.7,-3.9e-4 1,-0.40039 z m 136.80078,0 c 0,0 -0.5,0.0012 -0.5,0.201172 h 0.80078 z m -456.300781,0.101562 1.201172,0.298828 h -2.25 z m 230.701171,0 -1,0.699219 c 0.2,-0.5 0.5,-0.699219 1,-0.699219 z m 123.58399,0.107422 c 0.62812,-0.0078 1.26601,0.117188 1.91601,0.492188 -1,0 -2.2,-0.400782 -3,0.199218 3.7,0 7.19922,0.79961 10.69922,0.59961 -1,0.3 -1.5,1 -1.5,1.5 l -1.19922,-0.5 c -1.2,-1 -2.80117,0.200781 -4.20117,0.300781 l 0.70117,1 c -0.66956,0 -0.98298,-0.181729 -1.5332,-0.285156 l 0.0332,-0.01563 0.59961,-0.298828 c 0,-0.5 0.20039,-1 -0.59961,-1 -1.3,1 -2.50078,-0.400391 -3.80078,-0.400391 -0.5,0.2 -1.99922,0.8 -0.69922,1 0.4,0.2 0.7,7.81e-4 1,-0.199219 v 1 c -0.8,0.3 -2.3,0.8 -3,0 -0.3,0.4 -1,0.498828 -0.5,0.798828 0.3,0.6 1.49883,0.2 2.29883,0.5 v 0.701172 c -0.6,0 -1.3,-7.81e-4 -2,0.199219 H 379 c -1.2,0 -2.4,-1.000781 -4,-0.300781 0,-0.2 7.8e-4,-0.298438 -0.19922,-0.398438 -0.3,-0.2 -1,-0.600781 0,-0.800781 l 0.79883,0.199219 c 1.8,0 1.79961,-1.3 2.59961,-2 -0.8,-1 -2,1.001172 -3,-0.298828 l 0.5,0.199218 0.40039,-0.40039 -2,-1 c 1,-0.2 1.3,0.301562 2,0.601562 C 376.89961,21.100781 378.1,21.6 378.5,21 v -0.199219 -0.201172 l -0.30078,-0.199218 H 378.5 c 1.8,0.75 3.6,-0.46875 5.48438,-0.492188 z m -5.48438,0.892578 0.19922,0.298828 c 0,0 7.8e-4,-0.198828 -0.19922,-0.298828 z M 120.86328,19.972656 c 0.54844,-0.04219 1.33633,0.126953 2.23633,0.126953 h -1.5 l 0.5,0.400391 -1.69922,-0.400391 c 0.125,-0.075 0.28008,-0.11289 0.46289,-0.126953 z M 34.400391,20 c 0.5,0 0.999218,7.81e-4 1.699218,0.300781 h -0.5 L 35.699219,20.5 c -0.6,0 -0.998828,-0.3 -1.298828,-0.5 z m 267.298829,0 h 3 v 0.5 h -3 z m 43.40039,0.09961 H 347.5 c -0.3,0 -0.50078,7.82e-4 -0.80078,0.300782 V 20.5 c -0.3,-0.4 -0.99961,-0.400391 -1.59961,-0.40039 z m -328.699219,0.09961 -2.322266,0.195312 c 0.300458,-0.193405 1.458394,-0.195312 2.322266,-0.195312 z m 11.099609,0 h 0.75 L 28.099609,20.5 Z m 17.001953,0.04883 c 1.964649,-0.02344 3.923828,0.05156 5.798828,0.351562 L 35,20.900391 v -0.300782 c 2.9375,0 6.227539,-0.3125 9.501953,-0.351562 z M 19.5,20.300781 c 0,0.5 -7.81e-4,0.998828 -0.300781,1.298828 v -0.798828 c 0,-0.2 7.81e-4,-0.4 0.300781,-0.5 z m 11.699219,0 h 2.5 L 35,20.5 H 31.199219 Z M 677.80078,20.5 c 0.51213,0.341417 1.09771,0.389161 1.69336,0.396484 C 678.89778,20.500855 678.49822,20.5 677.80078,20.5 Z m 1.69336,0.396484 c 0.002,0.0015 0.004,0.0024 0.006,0.0039 h 0.19922 0.10156 c -0.10252,0 -0.20443,-0.0026 -0.30664,-0.0039 z M 138.30078,20.699219 c 0.6,0.8 1.59844,0 2.39844,0 v 0.40039 h -3 z m -120.999999,0.101562 0.398438,0.298828 c -0.3,0.3 -0.298828,0.6 -0.298828,1 h -0.09961 z M 95.599609,21 l 5.000001,0.199219 -0.40039,0.101562 C 98.899219,21.100781 97.199609,21.1 95.599609,21 Z m 7.871091,0.03711 c 0.13594,-0.0063 0.25508,0.0125 0.33008,0.0625 0,0.2 0.49883,0.39961 0.79883,0.59961 l -0.19922,0.201172 h -1.70117 L 102.5,21.599609 c 0,-0.3 0.56289,-0.54375 0.9707,-0.562499 z m 61.97852,0.03711 c 0.5,0 1,0.07656 1.25,0.226562 h -2.5 c 0.25,-0.15 0.75,-0.226562 1.25,-0.226562 z M 29.712891,21.189453 c 1.1625,-0.07031 2.211328,0.210938 3.486328,0.210938 h 2.5 c -1,0.3 -1.7,0.3 -2.5,0 l -3,0.40039 v 0.09961 c -0.6,0 -0.999219,-0.3 -1.699219,-0.5 0.425,-0.125 0.825391,-0.1875 1.212891,-0.210938 z m 260.386719,0.0098 c -6.8,1 -13.7,1.6 -19.5,3 h -1.79883 c -2.3,0.4 -4.3,1.001562 -6,1.601562 0.8,-0.3 1.99922,-0.401172 2.69922,-0.201172 -1.15415,0 -2.18681,0.183216 -3.05859,0.583985 -0.16765,0.06704 -0.32307,0.157626 -0.44141,0.216797 l 0.19141,-0.07617 c -0.1665,0.08865 -0.33935,0.168404 -0.49219,0.27539 l 0.5,0.201172 h 0.60156 c 1.2,0 3.3,0.3 4.5,1 1.8,-1.6 0.5,1 3,0 1,0.2 2.4,-0.301172 3,0.298828 L 274,27.699219 l -1.80078,-1 c 1.6,0 4,0.60039 5,-0.59961 l -1.19922,-0.5 c 0.5,0 0.99922,-0.20039 1.19922,-0.40039 0.3,0 -0.2,-0.198438 -0.5,-0.398438 0.4,0 0.7,0.198438 1,0.398438 l 0.70117,-0.298828 c 0.3,0.2 -0.40117,0.299609 -0.70117,0.599609 1,1 3.70117,0.4 5.70117,0.5 -0.8,1.5 -3.7,3.91e-4 -4.5,1.400391 0,0.2 -0.20039,0.698828 0.59961,0.798828 0.7,0 1.5,0.0012 2,-0.298828 L 280.90039,27.5 c 0.6,0 0.99883,0.200781 1.29883,0.300781 0,0 7.8e-4,-0.201172 0.30078,-0.201172 -0.7,0.3 0.29961,0.7 0.59961,1 h -0.19922 c -1.5,0 -3,-0.2 -4,0 h 0.40039 c -2,0.8 -0.70117,2.001172 -2.20117,2.701172 l 0.20117,0.398438 c 5,0 9.79922,-0.298438 14.69922,-0.398438 L 289,31 c -1.4,0.3 -4.49922,0.699609 -4.69922,-0.400391 H 284.5 c 0.5,0 0.99961,7.82e-4 1.59961,-0.199218 l 0.59961,0.40039 L 287.40039,30.5 c 0.3,-0.7 -0.80078,-1 -1.30078,-1 -0.8,0 -1.79883,-0.4 -2.79883,-0.5 h -0.10156 v -0.199219 h 0.20117 v 0.160157 c 3.46689,-1.525375 6.93042,0.03795 10.19922,-0.160157 0,0 -0.7,-0.400781 -1,-0.300781 1.5,-0.6 4.3,-0.6 6,0 l -1,0.599609 3,1 c -0.4,0 -0.99922,0.29961 -0.69922,0.59961 0.6,0.5 2,0.0012 3,-0.298828 l -3,-2 c 1.5,0 3,-7.82e-4 4,-0.800782 L 302.59961,27 c -2,0.6 -3.4,-1.199219 -5,0.300781 -4,-1.5 -8.99961,-3.9e-4 -12.59961,-1.40039 1,0.4 3.30078,-0.6 4.30078,0 l 1.29883,-1 1.30078,1 c 0.8,-0.2 0.79883,-0.6 0.79883,-1 1.4,0 3,0.398828 4,-0.201172 -1.5,-0.5 -3,-0.699219 -5,-0.699219 L 292.5,23.699219 c 0.8,0.2 2,-0.398828 2.5,0.201172 0.6,-0.8 2,-0.4 3,-1 l -6.80078,-0.59961 c 1.3,0.2 2.30078,0 3.30078,-0.5 -0.4,-0.2 -0.69922,-0.500781 -1.19922,-0.300781 -0.6,0 -2.20117,0.199219 -3.20117,-0.300781 z m -6.69922,7.761719 c -0.0331,0.01456 -0.0665,0.02393 -0.0996,0.03906 h 0.0996 z M 448.5,21.400391 h 4.19922 v 0.5 h -4.39844 z M 63.699219,21.599609 v 0.5 h -6.798828 z m 76.000001,0.53125 c 0.5625,0.01875 1.10156,0.06992 1.60156,0.169922 h -7 c 1.8,0 3.71094,-0.226172 5.39844,-0.169922 z m -10.68945,0.361329 c 2.47441,-0.02051 4.71484,0.04609 6.58984,0.308593 L 142.30078,23 h 2.54883 l -0.25,-0.09961 h 0.59961 L 145.14844,23 h 2.55078 l 11,0.400391 h -9.29883 l -1.30078,-0.201172 H 142.5 c -3,0 -5.79961,0.4 -6.59961,0.5 V 23.5 l -15.59961,-0.300781 2.19922,0.5 c -0.3,0.3 -0.6,0.5 -1,0.5 V 24 h -0.69922 c 0,-0.4 -1,-0.6 -1,-1 l -4.5,-0.199219 c 4.8125,0 9.58496,-0.274414 13.70899,-0.308593 z M 145.14844,23 h -0.29883 l 0.25,0.09961 z m 1.95117,-0.5 2.5,0.300781 h -2.5 z m -50.000001,0.09961 h 1.701172 l -0.701172,0.201172 c -0.2,-0.2 -0.5,-0.201172 -1,-0.201172 z m 275.099611,0 h 0.5 c 0.2,0 0.4,0.400782 1,0.300782 -0.37595,0 -0.75684,0.339353 -1.29883,0.298828 v -0.398438 l -0.0996,-0.101562 z m 0.10156,0.09961 0.11719,0.07031 c -0.007,-0.02297 -0.0176,-0.04384 -0.0176,-0.07031 z m 0.11719,0.07031 C 372.46086,22.920094 372.62725,23 372.80078,23 Z M 142.76172,22.65039 c 0.1625,0 0.33906,0.05039 0.53906,0.15039 h -0.20117 -0.79883 c 0.15,-0.1 0.29844,-0.15039 0.46094,-0.15039 z M 50.5,22.699219 c 3,1 5.999219,1.200781 9.699219,1.300781 h 0.201172 c -2.3,0.3 -4.200782,0.300781 -6.300782,0.300781 L 53.400391,24 52.699219,24.300781 52,23.900391 c -4.3,0.5 -8.499609,0.3 -12.599609,0 L 39,24.099609 38.300781,23.900391 H 38 C 36.3,23.900391 34.6,23.6 33,23.5 l -0.800781,0.199219 -0.59961,-0.298828 c -1.5,0 -3,-0.200391 -4,0.599609 -2,-0.4 -4.498828,-0.399609 -7.298828,-0.599609 V 24 l 0.5,0.199219 h -0.5 v 0.101562 l -0.5,-1 -5,-0.201172 c 4.2,0 8.29961,0.0012 12.59961,0.201172 l 0.699218,-0.201172 c 2.3,0.2 5.701172,-0.199609 6.701172,0.400391 h 3 l 2,0.199219 h 3.898438 c 1.8,-0.8 5.300781,0.3 6.800781,-1 z m 25,0 15.400391,0.201172 -17.09961,0.199218 z m 207.30469,0.01367 c 0.68652,-0.02734 1.35742,0.199218 1.79492,0.386718 0,0.292533 1.40568,0.962891 0.0859,1.181641 0.31046,-1.11518 -2.1429,-0.615817 -3.08594,-1.181641 0.375,-0.2625 0.79316,-0.370312 1.20508,-0.386718 z m -223.605471,0.08789 h 3.5 v 0.298828 h -3.5 z m 38.601562,0.09961 H 104.5 c -0.79024,0.29634 -2.166,0.396012 -3.54883,0.398437 l 0.14844,-0.09961 c -1.300001,0 -2.498829,0.0012 -3.298829,-0.298827 z m 63.499999,0.298828 h 5 l -0.10156,0.201172 h -4.89844 z m -123.601561,0.40039 h 0.201172 z m 22.90039,0 H 62 c 0.2,0 0.199219,0.201172 0.199219,0.201172 6.6,0 13.600781,-0.40039 19.800781,0.59961 h -1.5 l 0.09961,-0.09961 c -3.6,0 -6.999609,-0.6 -9.599609,0 l -0.5,-0.201172 c -2.4,-0.2 -5.699609,0.0012 -8.599609,-0.298828 H 61.199219 V 24 h -0.398438 c 0.2,0 0.198828,-0.199219 0.298828,-0.199219 h -0.5 z m 84.099611,0 h 2.60156 V 24 h -2.60156 z m -52.099611,0.09961 c 2,0.2 4.400782,0.300781 6.800782,0.300781 L 93.199219,24.199219 93.300781,24.5 c -1.3,0 -2.601172,-0.200391 -3.701172,-0.400391 1,0 2,-3.9e-4 3,-0.40039 z M 449.5,23.724609 c 0.7,0 1.40039,0.125 1.90039,0.375 -0.4,0.2 -1.00078,0.300782 -1.80078,0.300782 L 449.5,24.300781 c -0.6,0 -1.19922,-0.0012 -1.69922,-0.201172 h -0.20117 c 0.5,-0.25 1.20039,-0.375 1.90039,-0.375 z m -3.80078,0.07617 1,0.199219 h -1 z m -320.3457,0.07813 c 0.19687,-0.0094 0.49726,-0.0035 0.94726,0.02148 l -1.20117,0.40039 c 0,-0.225 -0.33672,-0.39375 0.25391,-0.421875 z m 328.3457,0.02148 0.5,0.199218 h 0.60156 L 455,24.300781 h -1.90039 L 452.40039,24 l 1,0.199219 z M 61.5,24 h 2.199219 v 0.300781 z m 404.59961,0 2.5,0.5 h -0.79883 z M 40,24.599609 42.300781,24.900391 H 40 Z m 413.09961,0.09961 c 0.3,0.2 0.79961,0.301562 0.59961,0.601562 h -0.5 L 453,25.5 c -1,0 -1.5,-0.400391 -2.5,-0.400391 z M 109.5,24.773438 c 0.58125,0.01406 1.17578,0.05195 1.80078,0.126953 h -7.20117 c 2.025,0 3.65664,-0.169141 5.40039,-0.126953 z m -9.5,0.425781 h 1.5 V 25.5 H 100 Z m 166.90039,0 L 267.5,25.5 h -1.30078 z m 1.90039,0 2,0.201172 -0.10156,0.09961 h -2.5 z m 176.59961,0 h 3.29883 c -0.4,0.2 -0.99883,0.201172 -1.29883,0.201172 V 25.5 c -0.8,0 -1.4,-7.81e-4 -2,-0.300781 z m 15.90039,0 h 3 L 464,25.5 h -3 z m -314.20117,0.101562 c -0.4,0.7 -2.40039,0.3 -2.40039,1 l 4,-0.800781 z m -40.34766,0.07227 C 108.51914,25.330859 110.30078,25.5 111.80078,25.5 h -1.60156 L 110,25.699219 c -1.6,0 -3,-0.299219 -5,-0.199219 0.575,-0.075 1.16289,-0.112891 1.75195,-0.126953 z m -65.951169,0.02734 h 3 c -0.2,0.3 -0.401172,0.298828 -0.701172,0.298828 H 43 Z m 371.449219,0 c 0.5,0 1,0.09883 1.25,0.298828 L 412.69922,26 h -1 c -0.3,0 -0.59922,-7.81e-4 -0.69922,-0.300781 0.25,-0.2 0.75,-0.298828 1.25,-0.298828 z m 4.34961,0.199218 h 8 l -0.90039,1 c -2,-1 -4.59844,-0.198828 -6.39844,-0.798828 L 416.59961,26 Z M 263,26 l -0.19922,0.09961 c -0.0261,0 -0.0521,0.0089 -0.0781,0.01172 z m -198.900391,0.09961 0.201172,0.701172 c -0.4,-0.4 -1.001172,-0.60039 -1.701172,-0.40039 z M 464.5,26.175781 c 1.325,0.025 2.65,0.12461 4,0.22461 h 2.19922 l 0.5,0.199218 c 0.5,0.2 1,0.201172 1.5,0.201172 h -0.79883 c -0.2,0 -0.50117,-0.0012 -0.70117,-0.201172 H 468.5 v -0.199218 h -8 c 1.35,-0.2 2.675,-0.24961 4,-0.22461 z m -388.599609,0.02344 c 0.3,0.3 0.7,0.300781 1,0.300781 -0.286165,0 -0.746734,0.0092 -0.962891,0.269531 l -0.337891,-0.169922 z m 184.900389,0.101562 -1,0.5 H 259 c 0.7,0.3 1.49922,0.498438 2.19922,0.398438 h 0.10156 c 0.3,0 0.49883,7.81e-4 0.79883,-0.199219 v -0.199219 c 0,0 -0.3,-0.0012 -0.5,-0.201172 z m 135,0.199219 c 1.8,1 4.8,0.3 6,1.5 h -0.5 c -0.3,0.2 -0.80156,0.299609 -0.60156,0.599609 -3.5,-0.3 -6.49844,0.400391 -9.39844,0.400391 l -0.20117,-0.199219 c -1,0 -2,-0.20039 -3,-0.40039 l 0.59961,-0.201172 -1.79883,-1 c 0.6,-0.4 1.8,-0.4 2,0 L 388.30078,27.5 c 1.5,1.4 5,-1 7.5,-1 z m -327.867186,0.02344 c -0.248324,0.140979 -0.495392,0.345062 -0.833985,0.277343 0.277906,-0.208429 0.556079,-0.257924 0.833985,-0.277343 z m 1.197265,0.04297 c 0.340619,0.07344 0.64052,0.232726 0.869141,0.632813 l 0.699219,0.101562 c 0.2,-0.3 0.701172,-0.401172 0.701172,-0.701172 1.3,0 2.999609,-0.20039 3.599609,0.59961 h -1.699219 c -0.7,0.3 -1.201562,0.5 -1.601562,0.5 l -0.298828,0.40039 c -0.6,0 -0.99961,-0.7 -1.59961,-1 -0.148807,-0.248012 -0.397507,-0.42061 -0.669922,-0.533203 z m 390.068361,0.833985 c 1,0.7 3.60039,0.5 4.40039,0.5 1,0.6 2.99961,0 3.59961,1 h -1 L 466.30078,29 c -1.4,-0.2 -2.60039,-1 -3.40039,-1 -0.7,0.2 -3.3,-0.199609 -4.5,0.400391 0,-0.4 1.19883,-0.5 0.79883,-1 z M 422.90039,27.5 c 0.4,0 0.7,7.81e-4 1,0.300781 -0.6,0 -1,-0.200781 -1,-0.300781 z m 1.19922,0.199219 h 8 c -1.6,0 -3.29883,0.301172 -4.79883,0.701172 -0.25021,0.250212 -0.0776,0.430504 0.2168,0.599609 h -1.41797 c 1.4,-1 -0.4,-1.000781 -2,-1.300781 z m 61.20117,0 1,0.601562 c 0.4,0 0.99883,-0.0016 1.29883,0.398438 h -0.29883 -0.10156 -0.0996 l -1,-0.398438 h -0.79883 z m -49.60156,0.101562 h 3 l -0.59961,0.298828 h -1.40039 v 0.201172 c -0.4,0 -0.8,-0.2 -1,-0.5 z m 6.89453,0.142578 c 0.4875,-0.075 1.25664,0.807032 2.30664,0.957032 h -1 c -0.8,0.2 -0.80078,0.6 -0.80078,1 v -0.201172 c -2,-0.6 -4.99922,-0.398438 -7.19922,-0.398438 0,0 0.2,-0.200781 0,-0.300781 2.4,-0.3 5.6,0.299219 7,-0.300781 l -0.70117,-0.298828 c 0.1,-0.3 0.23203,-0.432032 0.39453,-0.457032 z m 20.10547,0.25586 c 0.17796,0.177965 -0.19575,0.345615 -0.49219,0.453125 0.1642,-0.238404 0.32799,-0.453125 0.49219,-0.453125 z M 272.5,28.5 c -3.2,0 -6.80039,0.399219 -10.40039,0.699219 l 13,0.101562 c -0.7,-0.4 -1.5,-0.80039 -2,-0.40039 z M 5.3007812,28.599609 h 3 l -3,0.400391 z M 417.26953,28.759766 c -0.98437,-0.06797 -1.96914,0.04063 -2.86914,0.640625 L 416.5,31.099609 c 0.3,-0.4 0.6,-0.40039 1,-0.40039 0.3,-0.3 -0.3,-0.39961 -0.5,-0.59961 l 0.69922,-0.40039 c 1,-0.3 1.5,0.300781 2.5,0.300781 l -1,0.400391 h 2.60156 c -0.2,-0.5 1.7,-1.000782 0,-1.300782 -1.25,0.375 -2.89062,-0.226562 -4.53125,-0.339843 z m -160.57031,0.04102 c -0.3,0 -0.59961,0.39961 -0.59961,0.59961 l 0.20117,-0.09961 h 3.39844 c -1,0 -2,-0.5 -3,-0.5 z M 450.90039,29 c -0.2,0.3 0.29961,0.499609 0.59961,0.599609 C 450.5,29.399609 450,30 449,30 h -0.0996 z m -16.20117,0.400391 h 1 c 0,0 -0.29961,0.298828 -0.59961,0.298828 z m 5.70117,0.40039 c 0.3,0 0.99961,0.29961 0.59961,0.59961 h -1.69922 l -0.80078,0.298828 0.69922,-0.59961 z m 77.5,0 -0.20117,0.09961 -0.5,0.40039 0.60156,0.298828 V 31 l 2.5,0.199219 4.59961,-1 c -1.2,0 -2.20117,7.81e-4 -3.20117,-0.199219 -0.2,0.3 -0.19922,0.599609 -1.19922,0.599609 l 0.59961,-0.199218 -1,-0.400391 c -0.8,0 -1.39922,7.81e-4 -2.19922,-0.199219 z m -236.00977,0.273438 c 0.45938,-0.04219 0.83399,0.125 1.20899,0.125 h -1.69922 c 0.175,-0.075 0.33711,-0.110938 0.49023,-0.125 z m 101.91016,0.02539 c -0.5,0.3 0,0.49961 0.5,0.59961 L 384,30.900391 l 0.0996,0.199218 h -1.69922 c -0.3,-0.5 0.40039,-1 1.40039,-1 z m 5.19922,0.09961 1.30078,1 L 391.69922,30.5 c 0.8,0 1.50078,-7.81e-4 1.80078,0.199219 l 0.52734,-0.263672 c 0.0143,0.0803 0.454,0.285373 0.77344,0.365234 v 0.298828 c -1,0 -1.7,0.4 -2,1 h -2.70117 l -0.19922,0.201172 c -1,0 -1.80117,-0.200781 -2.20117,-0.800781 l 0.60156,-0.300781 c -1,-1 -2.30078,0.4 -3.30078,0 1.4,-0.2 2.7,-0.4 4,-1 z m -4,0.201172 0.5,0.298828 h -1 z m 11.19922,0.40039 h 1 c -0.2,0 -0.4,-0.0012 -0.5,0.298828 z"
     id="path2"
     inkscape:connector-curvature="0" />
</svg>
