<?xml version="1.0" encoding="UTF-8" standalone="no"?>
<!DOCTYPE svg  PUBLIC '-//W3C//DTD SVG 1.1//EN'  'http://www.w3.org/Graphics/SVG/1.1/DTD/svg11.dtd'>
<svg xmlns="http://www.w3.org/2000/svg">
<defs>
<font id="CrimsonText-Roman" horiz-adv-x="684">
<font-face underline-position="-112" font-weight="400" descent="-205" panose-1="2 0 5 3 0 0 0 0 0 0" units-per-em="1024" unicode-range="U+0020-2212" bbox="-269 -231 1061 861" x-height="432" underline-thickness="47" font-family="CrimsonText" ascent="819" cap-height="662"/>
<missing-glyph horiz-adv-x="1024"/>
<glyph glyph-name=".notdef" horiz-adv-x="1024"/>
<glyph glyph-name=".null" horiz-adv-x="0"/>
<glyph glyph-name="nonmarkingreturn" horiz-adv-x="1024"/>
<glyph glyph-name="space" horiz-adv-x="229" unicode=" "/>
<glyph glyph-name="exclam" horiz-adv-x="280" unicode="!" d="M82 45q0 25 17 41t41 16t40 -16t17 -41q-1 -23 -17 -41t-40 -18t-41 18t-17 41zM142 642q22 0 34 -18t11 -45q-1 -10 -5 -53q-4 -44 -12 -138t-14 -207q-1 -15 -5 -21t-19 -12h-2q-4 0 -6 5q-4 7 -5 17q-7 130 -15 226t-11 128q-3 34 -3 55q0 25 14 44t38 19z"/>
<glyph glyph-name="quotedbl" horiz-adv-x="348" unicode='&quot;' d="M260 698h15q13 0 21 -12t8 -53q0 -29 -15 -91t-18 -93q-1 -15 -16 -15q-13 0 -15 13q-6 47 -20 108t-14 80q0 15 18 39t36 24zM97 698h14q15 0 23 -12t7 -53q0 -30 -14 -92t-17 -92q-2 -15 -16 -15q-16 0 -18 13q-6 47 -20 108t-14 80q0 15 18 39t37 24z"/>
<glyph glyph-name="numbersign" horiz-adv-x="476" unicode="#" d="M277 231l12 86h-94l-13 -86h95zM301 24l-3 -4q-6 -5 -27 -5h-13q-6 1 -10 3t-3 4v2l22 151h-94l-22 -151q0 -1 -1 -2q-2 -1 -2 -2q0 -2 -2 -2h-4t-5 -2h-7t-10 -1h-13q-5 1 -9 3t-4 4l-1 2l23 151h-86q-6 0 -6 10q0 14 8 41q0 3 2 4t4 1h1h86l12 86h-107q-6 1 -6 11 q0 14 8 41q0 3 2 4t4 1h1h107l24 156q9 9 47 9q7 -1 9 -3t2 -4l-1 -2l-23 -156h94l24 156q9 9 47 9q7 -1 9 -3t2 -4l-1 -2l-24 -156h82h2t3 -1q2 -2 2 -6q0 -14 -9 -43l-6 -7h-83l-13 -86h104q1 1 2 1t3 -2t2 -6q0 -14 -9 -43q-1 -3 -3 -5t-2 -1h-1h-104z"/>
<glyph glyph-name="dollar" horiz-adv-x="491" unicode="$" d="M284 683q35 0 35 -7q-3 -20 -6 -39q21 -5 42 -9q29 -6 35 -7q11 -90 11 -137q0 -8 -7 -8q-25 2 -26 11q-6 35 -40 75q-11 13 -24 22l-37 -226q7 -4 17 -10q28 -16 36 -20t30 -20q24 -15 32 -23q8 -7 24 -23t22 -28t12 -30q6 -16 5 -34q0 -78 -61 -128t-143 -50 q-13 0 -34 2l-8 -46q-35 0 -35 9l7 42q-40 6 -98 16q-24 64 -28 151q0 8 18 8q14 0 22 -8q25 -95 93 -123l41 244q-76 42 -116 78q-48 43 -48 108q0 73 57 122t133 49q15 0 32 -2zM270 599q-14 3 -30 3q-109 0 -109 -97q-1 -46 29 -75q25 -24 73 -53zM213 33q14 -2 30 -2 q49 0 84 29t35 81q0 21 -8 39t-13 28t-25 24t-25 17t-29 15q-6 3 -9 5q-1 0 -1 1z"/>
<glyph glyph-name="percent" horiz-adv-x="680" unicode="%" d="M607 624l-483 -624q-10 -12 -33 -12q-13 0 -18 11l482 625q10 12 20 12q11 0 17 -1l6 -1q2 0 4 -4t5 -6zM488 313q64 0 105 -47t41 -114q0 -64 -40 -112t-107 -47q-62 1 -106 47t-44 112q1 68 43 114t108 47zM484 289q-41 1 -62 -37t-21 -88q0 -54 28 -100t65 -46 q40 0 57 37t17 89q0 55 -24 100t-60 45zM199 645q63 0 105 -47t42 -114q0 -63 -41 -111t-106 -48q-62 1 -106 47t-44 112q0 68 42 114t108 47zM195 621q-41 1 -61 -37t-21 -88q0 -54 28 -100t64 -46q39 0 57 37t18 89q0 55 -24 100t-61 45z"/>
<glyph glyph-name="ampersand" horiz-adv-x="671" unicode="&amp;" d="M309 656q67 0 106 -30t39 -82q0 -61 -39 -104t-110 -87q58 -98 148 -199q25 38 41 73t16 44t-10 13t-21 4q-12 0 -14 1q-2 4 -2 12t3 11h79q15 0 31 1t40 2q22 1 39 2q5 -3 5 -13q0 -15 -6 -15q-13 0 -37 -6t-32 -11q-1 0 -14 -22t-38 -59t-52 -68q23 -24 32 -33 q9 -8 24 -22t24 -18t18 -5q15 0 31 17t21 29q7 0 15 -6t8 -12q-4 -8 -9 -16t-17 -23q-12 -14 -34 -24t-49 -10q-26 0 -55 18t-44 36l-16 18q-86 -75 -182 -75q-90 0 -142 43t-52 118q0 64 44 108t122 84q-18 32 -28 52t-20 52q-10 33 -10 65q0 57 42 97t105 40zM314 620 q-33 0 -56 -22t-23 -55q0 -64 52 -158q51 31 75 61t24 84q0 36 -20 63t-52 27zM407 95q-29 29 -70 84t-67 95l-27 40q-36 -24 -53 -38q-18 -14 -34 -42t-16 -62q0 -66 41 -99t101 -33q30 0 66 15t59 40z"/>
<glyph glyph-name="quotesingle" horiz-adv-x="186" unicode="&apos;" d="M96 698h15q15 0 23 -12t7 -53q1 -29 -15 -91t-19 -93q-1 -15 -16 -15q-13 0 -15 13q-6 47 -20 108t-14 80q0 15 18 39t36 24z"/>
<glyph glyph-name="parenleft" horiz-adv-x="323" unicode="(" d="M136 305q0 -141 50 -261t89 -139q2 -1 2 -5q-1 -6 -5 -14t-9 -7q-21 0 -53 34q-32 35 -64 89t-53 136q-22 82 -22 167q1 89 21 174t50 142t62 92q33 35 59 35q5 0 9 -9t4 -15q0 -3 -1 -3q-51 -23 -95 -147t-44 -269z"/>
<glyph glyph-name="parenright" horiz-adv-x="322" unicode=")" d="M186 305q0 145 -44 269t-95 147q-1 0 -1 3q0 6 4 15t9 9q26 0 59 -35q32 -35 62 -92t50 -142t21 -174q0 -85 -22 -167q-21 -82 -53 -136t-64 -89q-32 -34 -53 -34q-5 -1 -9 7t-5 14q0 4 2 5q39 19 89 139t50 261z"/>
<glyph glyph-name="asterisk" horiz-adv-x="444" unicode="*" d="M307 613q13 15 29 19t27 -7q12 -11 10 -27t-16 -29q-19 -15 -51 -33t-46 -31l-5 -14q1 -7 10 -10q16 -8 50 -14t57 -16q18 -7 27 -21q5 -8 5 -16q0 -6 -3 -12q-7 -15 -23 -18q-4 -1 -8 -1l-24 7q-22 12 -48 38t-43 34l-14 3q-4 -2 -6 -13q-1 -6 -1 -13q0 -16 4 -39 q3 -20 2 -38q0 -11 -1 -21q-3 -20 -13 -32q-9 -10 -21 -10h-4q-16 1 -24 15q-5 9 -5 21q0 6 1 12q5 25 21 59t20 51q1 9 -3 13q-4 5 -13 3q-17 -4 -48 -19t-57 -20q-8 -2 -15 -2q-12 0 -20 4q-16 6 -17 21q-1 3 -1 7q0 12 9 21q11 12 30 14q9 1 20 1q17 0 41 -3q26 -4 43 -4 q7 0 12 1q9 3 11 8q3 6 -2 14q-8 14 -32 40t-37 48q-10 18 -10 31q0 16 16 25q9 5 18 5q20 0 33 -28q10 -23 16 -59t15 -53q5 -10 10 -11q6 -1 13 6q12 14 28 44t33 49z"/>
<glyph glyph-name="plus" horiz-adv-x="582" unicode="+" d="M319 215v-192q0 -10 -45 -16q-2 -1 -4 -1h-2q-5 0 -5 8v199q0 5 -6 5h-199q-6 0 -6 10q0 14 8 41q0 3 2 4t4 1h1h191q5 0 5 6v190q-1 5 5 7q27 8 41 8l10 -6v-200q0 -5 4 -5h200q8 0 8 -5q0 -8 -10 -45q-1 -2 -3 -4l-2 -2h-2h-191q-4 0 -4 -3z"/>
<glyph glyph-name="comma" horiz-adv-x="239" unicode="," d="M118 -14q0 18 -15 49t-15 41q0 22 22 38t50 15q13 0 24 -4q13 -19 13 -64q0 -19 -2 -26q-14 -65 -39 -105t-88 -93h-1q-3 0 -13 8t-10 14q0 3 12 13t25 24t25 39t12 51z"/>
<glyph glyph-name="hyphen" horiz-adv-x="375" unicode="-" d="M58 210q0 51 12 51h1l241 12h1q6 0 6 -9q1 -22 -3 -36t-7 -16l-3 -2l-241 -11h-2t-3 3t-2 8z"/>
<glyph glyph-name="period" horiz-adv-x="233" unicode="." d="M59 45q-1 25 17 41t42 16t40 -16t17 -41q-1 -23 -17 -41t-40 -18t-42 18t-17 41z"/>
<glyph glyph-name="slash" horiz-adv-x="424" unicode="/" d="M391 755l-296 -767q-1 -7 -15 -15t-37 -8q-7 -1 -11 1t-6 4l-1 2l296 767q10 22 49 22q9 0 21 -6z"/>
<glyph glyph-name="zero" horiz-adv-x="484" unicode="0" d="M24 319q0 136 59 229t159 93q102 -1 160 -93t58 -229q0 -136 -59 -229t-159 -93q-98 -1 -158 93t-60 229zM112 320q0 -120 35 -202t90 -83q63 0 99 83t36 207q0 119 -35 199t-90 79q-61 0 -98 -81t-37 -202z"/>
<glyph glyph-name="one" horiz-adv-x="484" unicode="1" d="M131 496q-6 4 -12 12t-6 13q0 4 2 6q169 115 173 115h2q8 0 12 -19q-10 -33 -10 -94v-394q0 -58 8 -89q2 -8 30 -14t37 -6q4 0 4 -18q0 -9 -1 -11q-100 5 -121 5q-16 0 -116 -5q-4 5 -4 17t4 12q13 0 41 6t29 14q6 24 6 57v360q0 29 -2 44q-3 15 -5 19t-7 3q-5 0 -17 -6 t-27 -15z"/>
<glyph glyph-name="two" horiz-adv-x="484" unicode="2" d="M256 642q68 0 106 -50t38 -113q0 -37 -12 -77t-40 -80q-26 -42 -48 -72t-59 -70q-39 -40 -53 -55t-46 -46q-3 -5 2 -7h193q29 0 41 16t25 61q4 11 14 11q13 0 18 -4q-24 -120 -27 -140q-2 -16 -20 -16h-328q-4 0 -8 12t-3 18q109 110 187 228t78 201q0 53 -27 83t-71 30 q-83 0 -133 -83q-7 1 -13 7t-6 9q2 13 16 33t36 44t60 42t80 18z"/>
<glyph glyph-name="three" horiz-adv-x="485" unicode="3" d="M250 642q42 0 82 -36t40 -92q0 -44 -22 -74t-61 -61q53 -19 97 -63t43 -110q0 -95 -67 -153t-166 -58q-85 0 -130 30q-10 7 -10 29q0 47 37 47q9 1 19 -7t20 -20q12 -12 20 -18q29 -21 76 -21q44 1 80 35t35 110q0 59 -38 100t-89 41q-37 0 -65 -7q-7 9 -7 26q0 7 2 10 q69 12 110 48t41 98q-1 34 -27 60t-60 27q-22 1 -40 -7t-28 -16t-19 -18t-10 -10q-4 0 -8 10t-4 16q27 40 61 62t88 22z"/>
<glyph glyph-name="four" horiz-adv-x="482" unicode="4" d="M293 232v266q0 9 -5 9q0 -1 -1 -2l-182 -261q-1 -1 -1 -3q0 -9 7 -9h182zM359 645q13 0 13 -10v-403h62q16 0 16 -48q0 -6 -6 -10h-72v-175q-3 -5 -42 -5q-37 0 -37 8v172h-253q-7 9 -7 31l303 428q9 12 23 12z"/>
<glyph glyph-name="five" horiz-adv-x="485" unicode="5" d="M139 623q197 6 235 14q5 -7 5 -21q0 -25 -6 -55q-26 -8 -113 -11l-87 -4q-5 -1 -7 -8q-11 -55 -29 -160q33 13 94 13q81 0 139 -55t58 -130q0 -92 -64 -152t-163 -59q-89 0 -134 30q-10 7 -10 29q0 47 37 47q8 1 18 -7t22 -20t19 -18q29 -21 80 -21q41 -1 75 35t34 110 q0 26 -7 49t-23 45t-45 36q-30 13 -71 13q-52 0 -87 -11q-8 4 -18 14z"/>
<glyph glyph-name="six" horiz-adv-x="484" unicode="6" d="M235 -6q-83 0 -137 64t-54 150q0 78 31 150t83 126t114 96q60 40 128 67q6 0 14 -11t9 -16q-101 -44 -171 -106t-98 -162q-2 -10 1 -10q2 1 3 2q14 11 50 24t67 13q69 -1 117 -59t48 -127q0 -83 -62 -142t-143 -59zM130 210q0 -70 34 -124t83 -53q44 1 77 39t33 102 q-1 68 -33 112t-95 44q-27 0 -52 -14t-32 -31q-14 -32 -15 -75z"/>
<glyph glyph-name="seven" horiz-adv-x="483" unicode="7" d="M133 553q-17 0 -31 -14t-19 -28q-6 -14 -13 -37q-1 -4 -14 -5t-20 2q2 9 14 67t17 83q1 12 16 12h289q16 -1 41 1t26 2q7 0 7 -9q0 -5 -4 -15t-12 -27t-13 -25l-263 -563q-3 -3 -11 -3q-11 0 -23 10t-12 18l266 531h-241z"/>
<glyph glyph-name="eight" horiz-adv-x="484" unicode="8" d="M247 643q69 1 117 -41t47 -111q0 -76 -112 -147q-7 -2 0 -6q51 -30 91 -76t40 -95q0 -74 -58 -125t-133 -51q-83 0 -135 45t-51 118q0 14 3 26q2 12 6 22t12 22t14 18q6 8 16 18q11 10 16 14t18 14q12 10 16 12t16 10l13 8q5 3 0 6q-39 22 -71 64t-31 92q0 64 50 114 t116 49zM241 608q-37 0 -61 -32t-25 -84q0 -68 104 -128q4 -2 6 -2q3 0 6 2q68 45 68 122q1 46 -27 84t-71 38zM241 27q50 0 79 30t29 81q0 30 -17 58t-43 50q-27 22 -41 32t-27 17q-4 2 -6 2q-3 0 -4 -1q-43 -26 -61 -58t-18 -81q0 -58 33 -94t76 -36z"/>
<glyph glyph-name="nine" horiz-adv-x="484" unicode="9" d="M249 647q82 -1 136 -65t54 -149q0 -79 -32 -153q-33 -74 -83 -130t-106 -96t-113 -60q-6 0 -14 12t-8 17q77 31 148 99t98 167q2 10 -1 10q-2 -1 -3 -2q-11 -13 -46 -24t-62 -11q-72 0 -122 54t-50 129q-1 83 61 143t143 59zM353 431q1 71 -33 124t-87 53q-43 0 -74 -40 t-31 -105t33 -109t94 -43q27 1 52 15t32 30q13 30 14 75z"/>
<glyph glyph-name="colon" horiz-adv-x="236" unicode=":" d="M179 46q0 -24 -17 -42t-42 -18q-24 0 -42 18t-18 42t18 42t42 18q25 0 42 -18t17 -42zM179 371q0 -25 -17 -43t-42 -18q-24 0 -42 18t-18 43t18 42t42 17q25 0 42 -17t17 -42z"/>
<glyph glyph-name="semicolon" horiz-adv-x="244" unicode=";" d="M82 371q0 25 18 42t43 17t42 -17t17 -42t-17 -43t-42 -18t-43 18t-18 43zM196 39q0 -42 -10 -72q-10 -33 -36 -61t-77 -71q-4 -2 -7 -2q-7 0 -14 11t-7 16q1 2 19 17t36 44t18 65q0 30 -14 54t-13 28q-1 20 21 38t49 18q9 0 18 -7q17 -16 17 -78z"/>
<glyph glyph-name="less" horiz-adv-x="535" unicode="&lt;" d="M475 35q0 -7 -6 -29t-10 -21q-1 0 -5 2l-375 190q-18 10 -18 40q0 15 18 24l369 187q4 2 5 2q8 0 17 -47l-3 -9l-326 -165l331 -168q3 -1 3 -6z"/>
<glyph glyph-name="equal" horiz-adv-x="571" unicode="=" d="M52 269q5 46 15 46h449q4 0 4 -5q0 -8 -10 -45q0 -3 -2 -5t-3 -1h-1h-445q-7 0 -7 10zM520 168q0 -8 -10 -45q0 -3 -2 -5t-3 -1h-1h-445q-7 0 -7 10t9 41q1 3 3 4l2 1h2h444q8 0 8 -5z"/>
<glyph glyph-name="greater" horiz-adv-x="535" unicode="&gt;" d="M67 382q1 12 7 30t9 18q1 0 5 -2l370 -187q17 -9 17 -24q0 -31 -17 -40l-375 -190q-4 -2 -5 -2q-4 -1 -10 21t-7 29l3 6l331 168l-325 165q-3 1 -3 8z"/>
<glyph glyph-name="question" horiz-adv-x="366" unicode="?" d="M59 45q0 25 17 41t41 16t41 -16t17 -41q0 -23 -17 -41t-41 -18t-41 18t-17 41zM112 558q-16 0 -32 9t-15 31q0 23 7 34q20 10 50 10q60 0 128 -53t69 -132q-1 -53 -23 -87t-78 -66q-22 -12 -48 -33t-30 -29q-10 -18 -10 -69q0 -13 -20 -13q-13 0 -13 8q-1 12 -1 46v48 q0 12 2 22t5 20q5 10 7 17t10 15t10 12t14 11q10 7 12 9t14 10t12 7q26 16 36 23l25 20t21 24t5 24q-1 43 -25 66t-56 23q-30 1 -48 -3t-28 -4z"/>
<glyph glyph-name="at" horiz-adv-x="819" unicode="@" d="M506 334q0 8 -2 12t-14 9q-12 4 -35 4q-63 1 -107 -57t-44 -159q0 -47 18 -69t41 -21q39 1 82 47t45 70l15 152q1 6 1 12zM730 214q0 130 -80 222t-204 92q-138 0 -236 -88t-99 -217q0 -157 89 -253t269 -96q7 0 17 2t19 6t17 6q8 3 12 6l6 2q2 -9 2 -10q0 -20 -34 -38 t-94 -19q-78 0 -147 33q-69 32 -115 84t-74 115q-26 63 -26 124q0 180 116 286t289 106q72 1 134 -31q63 -32 103 -82t62 -110t23 -121q0 -69 -17 -119t-45 -77q-28 -26 -58 -38t-62 -12q-48 0 -80 35t-32 70q0 1 -2 0t-3 -2q-16 -27 -63 -62t-82 -35q-53 -1 -81 45t-28 103 q0 107 74 188t201 81l89 -9l-7 -53l-25 -223q-2 -20 -2 -28q0 -70 50 -70q35 0 61 21t39 53q12 33 18 61t6 52z"/>
<glyph glyph-name="A" d="M249 299q52 -2 71 -2q44 0 91 3l3 5l-81 221l-86 -223q0 -4 2 -4zM365 660l200 -528q18 -47 29 -72q6 -15 31 -24.5t37 -9.5q4 0 4 -19q0 -4 -2 -10q-100 5 -110 5q-1 0 -116 -5q-4 4 -3.5 16.5t4.5 12.5q12 0 30 5t21 13q2 8 2 16q0 13 -3.5 30.5t-6.5 27.5l-4 11 l-41 113q-3 4 -6 4q-39 3 -76 3q-52 0 -127 -5l-5 -3l-43 -110q-17 -50 -17 -69q0 -14 8 -20q9 -7 29 -11.5t29 -4.5q3 0 3.5 -12t-1.5 -17q-100 5 -103 5q-20 0 -35 -1t-33.5 -2t-35.5 -2q-4 4 -4 15q0 14 4 14q12 0 31 5t26 14q21 27 47 94l174 447q2 5 5.5 16t5.5 16.5 t6 14t7 12.5t7.5 9t10 7t12.5 2z" unicode="A"/>
<glyph glyph-name="B" horiz-adv-x="592" unicode="B" d="M325 376q41 4 69 28t27 66q-1 70 -35 108t-102 38q-46 0 -71 -7q-6 -1 -6 -9l-4 -101v-119q0 -7 66 -7q32 0 56 3zM116 143v378q0 59 -7 86q-3 8 -29 15t-40 7q-4 0 -4 12q0 13 4 17q52 -2 119 -2h83t58 1q26 -1 53 -5t55 -16t51 -30q22 -18 36 -48t14 -65q0 -36 -23 -67 q-22 -31 -42 -43t-34 -17q-8 -3 -5 -6q39 -6 93 -56t54 -117q0 -87 -70 -137t-184 -50h-137l-121 -3q-3 3 -3 16t3 13q12 0 38 7t31 16q7 12 7 94zM457 176q0 64 -43 110t-135 45q-22 0 -72 -4q-4 -12 -4 -33v-146q0 -76 16 -89q15 -14 54 -14q25 0 49 4q24 3 59 15 q34 12 55 40t21 72z"/>
<glyph glyph-name="C" horiz-adv-x="656" unicode="C" d="M634 183q0 -11 -14 -76.5t-20 -68.5q-73 -44 -239 -44q-132 0 -224.5 97t-92.5 231q0 142 95 243.5t233 101.5q118 0 243 -25q-2 -134 -2 -144q0 -15 -21 -15q-10 0 -13 5q-3 13 -7.5 26.5t-19 35t-35 37t-58 27t-84.5 11.5q-98 0 -167 -86.5t-69 -195.5q0 -81 28 -149 t88.5 -112.5t143.5 -44.5q99 0 153 58q14 15 24.5 39.5t16 41t8.5 16.5q6 0 14.5 -2t13.5 -4z"/>
<glyph glyph-name="D" horiz-adv-x="722" unicode="D" d="M201 535v-396q0 -42 15 -76q4 -10 54 -15t76 -5q230 0 230 297q0 114 -60 194t-177 80h-5q-108 0 -120 -16q-13 -18 -13 -63zM157 656q39 0 97 1t77 1q163 0 254 -96t91 -226q0 -145 -92 -242t-254 -97q-12 0 -72 2q-40 1 -70 1h-29l-121 -3q-3 3 -3 15q0 14 3 14 q12 0 38 7t31 16q7 12 7 94v378q0 59 -7 86q-3 8 -29 15t-40 7q-4 0 -4 12q0 13 4 17q52 -2 119 -2z"/>
<glyph glyph-name="E" horiz-adv-x="571" unicode="E" d="M152 656q45 0 156 4t167 4q4 -29 15.5 -76.5t13.5 -59.5q-5 -5 -18 -5t-14 7q-15 55 -42 70.5t-74 15.5h-67q-86 0 -88 -13q-5 -24 -5 -84v-160q0 -6 43 -6h53h40.5t26.5 4t18 5t10.5 13t7.5 17.5t7 28.5q1 7 15 7q12 0 17 -5v-189q-4 -4 -16 -4q-13 0 -16 8 q-7 27 -12 40.5t-7.5 16t-8.5 6.5q-13 8 -106 8q-72 0 -72 -9v-155q0 -65 9 -91q3 -10 68 -10h48q93 0 126 17q15 8 33.5 35.5t29.5 65.5q2 6 14 6q19 0 25 -6q-5 -13 -15.5 -41.5t-16.5 -46t-13 -40.5t-9 -38q-51 0 -161 2t-180 2l-121 -3q-3 3 -3 16t3 13q13 0 38.5 7 t30.5 16q7 12 7 94v378q0 59 -7 86q-3 8 -29.5 15t-39.5 7q-4 0 -4 12q0 13 4 17q52 -2 119 -2z"/>
<glyph glyph-name="F" horiz-adv-x="551" unicode="F" d="M163 656q45 0 156 4t167 4q4 -28 16 -76t13 -60q-5 -5 -18 -5t-14 7q-15 54 -42 70t-74 16h-67q-86 0 -88 -13q-5 -24 -5 -84v-163q0 -6 42 -6h53q67 0 82 10t26 54q1 6 2 9q1 7 15 7q12 0 17 -5v-194q-4 -4 -16 -4q-13 0 -16 8q-7 27 -12 41q-6 14 -8 16t-8 6 q-13 8 -106 8q-71 0 -71 -9v-158q0 -58 9 -93q2 -8 28 -14t36 -6q4 0 4 -15q0 -8 -2 -14q-100 5 -116 5q-5 0 -120 -5q-4 4 -4 15q0 14 4 14q12 0 38 6t29 14q7 27 7 90v385q0 59 -7 86q-3 8 -29 15t-40 7q-4 0 -4 12q0 13 4 17q52 -2 119 -2z"/>
<glyph glyph-name="G" horiz-adv-x="715" unicode="G" d="M44 322q0 142 95 244t233 101q71 0 237 -45q4 -114 4 -124q0 -15 -21 -15q-10 0 -13 5q-27 137 -204 137q-100 0 -167 -85t-67 -205q-1 -111 73 -205t185 -93q88 0 130 22q7 3 7 15l-1 82v7q0 65 -8 86q-5 10 -33 16t-44 6q-4 1 -4 13t4 16q128 -5 131 -5q8 0 108 5 q2 -6 2 -14q0 -15 -4 -15q-5 -1 -27 -7t-31 -11q-10 -7 -10 -67q-1 -22 1 -46t2 -26q0 -18 7 -35t7 -20q0 -8 -25 -18q-1 -1 -19 -7t-23 -9q-5 -1 -23 -7t-28 -8l-30 -6t-36 -6q-18 -2 -42 -2q-24 -2 -49 -2q-133 0 -225 97t-92 231z"/>
<glyph glyph-name="H" horiz-adv-x="707" unicode="H" d="M507 135v176l-2 4q-94 2 -148 2q-154 0 -154 -5v-173q0 -58 9 -93q2 -8 28 -14t36 -6q4 0 4 -12t-2 -17q-100 5 -116 5q-5 0 -120 -5q-4 4 -4 15q0 14 4 14q12 0 38 6t29 14q7 27 7 89v388q0 62 -7 89q-3 8 -29 14t-38 7q-4 0 -4 13q0 12 4 16q13 -2 53 -4t67 -2 q20 0 39 1t41 3t36 2q2 -4 2 -16t-4 -13q-10 0 -36 -7t-28 -14q-9 -35 -9 -93v-149l2 -3q98 -2 152 -2q58 0 148 2q2 2 2 4v152q0 62 -7 89q-2 8 -28 14t-39 7q-4 1 -4 13t4 16q12 -2 53 -4t68 -2q19 0 38 1q18 1 40 3t36 2q2 -6 2 -15q0 -14 -4 -14q-10 0 -36 -7t-28 -14 q-8 -31 -8 -93v-380q0 -62 8 -93q2 -8 28 -14t36 -6q4 0 4 -15q0 -8 -2 -14q-100 5 -114 5q-6 0 -121 -5q-4 5 -4 17t4 12q13 0 39 6t28 14q7 27 7 89z"/>
<glyph glyph-name="I" horiz-adv-x="318" unicode="I" d="M116 523q0 62 -7 89q-3 8 -28.5 14.5t-38.5 6.5q-4 0 -4 13q0 12 4 16q115 -5 120 -5q16 0 116 5q2 -6 2 -15q0 -14 -4 -14q-10 0 -36 -7t-28 -14q-9 -35 -9 -93v-380q0 -58 9 -93q2 -7 28 -13.5t36 -6.5q4 0 4 -15q0 -8 -2 -14q-100 5 -116 5q-5 0 -120 -5q-4 4 -4 15 q0 14 4 14q13 0 38.5 6t28.5 14q7 27 7 89v388z"/>
<glyph glyph-name="J" horiz-adv-x="322" unicode="J" d="M178 656q20 0 39 1t41 3t36 2q2 -6 2 -15q0 -14 -4 -14q-10 0 -36 -7t-28 -14q-9 -35 -9 -93v-434q-1 -126 -71 -219t-179 -93q-11 0 -24 4t-21 8l-7 4q-12 14 -12 37q1 22 19 36t43 14q19 0 41 -22t35 -21q15 0 29 14t28 41q14 26 23 76t9 113v446q0 62 -7 89 q-3 8 -29 14t-38 7q-4 0 -4 13q0 12 4 16q13 -2 53 -4t67 -2z"/>
<glyph glyph-name="K" horiz-adv-x="693" unicode="K" d="M165 656q20 0 39 1t41 3t36 2q1 -4 1 -16t-3 -13q-10 0 -36 -7t-28 -14q-9 -35 -9 -93v-163l7 -6h7q32 0 58 29q117 131 172 203q24 29 24 38q0 17 -57 17q-4 0 -4 9t2 16q13 0 34 -2t39 -3t34 -1q25 0 57 2t44 4q1 -4 1 -14t-3 -11q-61 -7 -92 -42l-201 -234 q-8 -9 7 -27l241 -265q16 -17 42 -28t40 -13t24 -2q5 0 5 -18q0 -7 -2 -11q-100 5 -124 5q-25 0 -45 -1t-45 -2t-45 -2q-4 5 -4 17t4 12q12 0 28 4t15 12q0 32 -227 265q-4 4 -29 4q-7 0 -7 -8v-164q0 -58 9 -93q2 -8 28 -14t36 -6q3 0 3 -12t-1 -17q-100 5 -116 5 q-5 0 -120 -5q-4 4 -4 15q0 14 4 14q13 0 39 6t28 14q7 27 7 89v388q0 62 -7 89q-2 8 -28 14t-39 7q-4 0 -4 13q0 12 4 16q13 -2 53 -4t67 -2z"/>
<glyph glyph-name="L" horiz-adv-x="568" unicode="L" d="M161 656q20 0 39 1t41 3t36 2q2 -6 2 -15q0 -14 -4 -14q-10 0 -36 -7t-28 -14q-9 -35 -9 -93v-377q0 -53 9 -88q3 -10 68 -10h48q93 0 126 17q15 7 33 35t30 66q2 6 14 6q19 0 25 -6l-15 -42t-17 -46q-6 -18 -13 -40q-7 -23 -9 -38q-53 0 -163 3t-178 3l-121 -3 q-3 3 -3 16t3 13q14 0 39 6t30 15q7 12 7 94v378q0 64 -7 91q-2 8 -28 14t-39 7q-4 0 -4 13q0 12 4 16q13 -2 53 -4t67 -2z"/>
<glyph glyph-name="M" horiz-adv-x="910" unicode="M" d="M167 657q37 0 92 5q7 -23 198 -501q1 -2 4 -2q4 0 5 4q98 230 156 379l40 120q64 -4 83 -4q62 0 112 4q3 -9 3 -15q0 -14 -5 -14h-2q-11 -1 -29 -7t-27 -13q-12 -9 -12 -67q0 -16 9 -406q1 -57 15 -92q4 -10 30 -16t37 -6q4 0 4 -14q0 -9 -2 -15q-100 5 -119 5 q-5 0 -120 -5q-4 4 -4 16q0 13 4 13q11 0 31 5t29 10q12 7 12 43v53l-12 352q-1 15 -5 37t-10 22q-2 0 -5 -7l-209 -500q-19 -43 -37 -43q-3 0 -9 2l-229 582q-2 -96 -6 -220t-7 -204t-3 -83q0 -18 6 -26q7 -7 37 -15t40 -8q4 0 4 -15q0 -8 -2 -14q-100 5 -116 5 q-2 0 -117 -5q-5 5 -5 15q0 14 5 14q13 0 41 6t37 16q16 18 18 87q3 104 5 205q2 100 4 158t2 74q0 25 -4 40q-3 8 -34 14t-45 7q-4 0 -4 14q0 11 4 15q17 -1 37 -2t38 -2q17 -1 37 -1z"/>
<glyph glyph-name="N" horiz-adv-x="721" unicode="N" d="M551 524q0 61 -7 88q-3 8 -34.5 15.5t-44.5 7.5q-4 0 -4 11.5t4 15.5q13 -1 52 -3.5t66 -2.5q26 0 65.5 3t46.5 3q2 -6 2 -15q0 -12 -4 -12q-10 0 -43.5 -8t-35.5 -15q-8 -31 -8 -93v-380q0 -62 3 -140q-4 -4 -19 -4q-17 0 -33 23l-388 550v-427q0 -66 7 -93 q2 -7 33.5 -14.5t41.5 -7.5q3 0 3.5 -12t-1.5 -17q-100 5 -115 5l-115 -5q-3 3 -3 15q0 14 3 14q14 0 45.5 7.5t34.5 16.5q10 26 10 94v393q0 49 -7 75q-3 8 -34 14.5t-45 6.5q-4 0 -4 12.5t4 16.5q78 -2 102 -2q52 0 80 2q37 -68 339 -490q3 17 3 41v311z"/>
<glyph glyph-name="O" horiz-adv-x="728" unicode="O" d="M44 328q0 140 93.5 239.5t225.5 99.5t226 -99.5t94 -239.5t-94 -239t-226 -99t-225.5 99t-93.5 239zM348 625q-95 0 -150 -83t-55 -192q0 -80 26 -151t81 -118.5t129 -47.5q64 0 112 41.5t70.5 103t22.5 131.5q0 80 -26 150.5t-81 118t-129 47.5z"/>
<glyph glyph-name="P" horiz-adv-x="545" unicode="P" d="M164 656q30 0 71 2t70 2q33 0 67 -10t64 -30q32 -20 52 -57t20 -86q0 -29 -12 -63t-37 -64q-25 -32 -65 -52t-90 -21q-56 0 -77 28q-6 7 -3 23q1 4 3 3q30 -11 67 -11q50 0 86 42t36 100q0 70 -31 112t-96 42q-45 0 -70 -7q-5 -1 -7 -7t-4 -31q-2 -24 -1 -72v-357 q0 -67 8 -87q5 -13 35 -21t44 -8q4 0 4 -14q0 -9 -2 -15q-100 5 -130 5l-122 -5q-3 3 -3 18q0 13 3 13q14 0 39 6t30 15q7 12 7 94v378q0 59 -7 86q-3 8 -29 15t-40 7q-4 0 -4 12q0 13 4 17z"/>
<glyph glyph-name="Q" horiz-adv-x="724" unicode="Q" d="M692 -84q18 0 33 2t24 4t11 2q12 0 12 -20v-5q-66 -35 -168 -35q-48 0 -104 26t-120 62q-62 36 -103 48q-36 11 -74 37t-75 66q-36 39 -60 99t-24 126q0 140 94 240t225 99q132 1 226 -99t94 -240q1 -128 -73 -218t-151 -105q27 -13 75 -41t79 -38q32 -10 79 -10z M348 625q-95 1 -152 -83t-57 -192q0 -125 65 -221t175 -96q97 -1 153 83t56 193q0 125 -65 221t-175 95z"/>
<glyph glyph-name="R" horiz-adv-x="660" unicode="R" d="M303 660q34 0 69 -10t69 -30t56 -57t22 -86q1 -42 -31 -88t-86 -71q-10 -4 -6 -10q50 -105 115 -176q96 -105 156 -105q3 -6 3 -14q0 -9 -3 -15q-11 -3 -27 -3q-140 0 -243 144q-17 23 -37 53t-30 44t-22 29q-12 16 -22 24t-20 13q-11 4 -37 4h-12t-8 -5q-4 -4 -4 -12 v-147q0 -67 8 -87q5 -13 35 -21t44 -8q4 0 4 -14q0 -9 -2 -15q-100 5 -130 5l-122 -5q-3 3 -3 18q0 13 3 13q14 0 39 6t30 15q7 12 7 94v378q0 59 -7 86q-3 8 -29 15t-40 7q-4 0 -4 12q0 13 4 17l120 -2q30 0 71 2t70 2zM287 616q-45 0 -70 -7q-5 -1 -7 -7t-4 -30t-1 -73 v-121q0 -29 87 -29h25q35 0 73 35t37 93q0 139 -140 139z"/>
<glyph glyph-name="S" horiz-adv-x="491" unicode="S" d="M61 490q0 76 59 126t137 50q21 0 41 -2t32 -6t36 -10t42 -10q12 -53 12 -143q0 -7 -10 -7q-24 0 -26 10q-4 44 -42 86t-92 41q-60 0 -84 -30t-25 -74q0 -19 7 -37t14 -28q8 -12 26 -27t26 -21t34 -22t33 -20q5 -4 35 -22t41 -26t35 -26q24 -20 34 -35t20 -37t9 -47 q-1 -79 -63 -131t-146 -52q-24 0 -51 4t-45 6q-18 4 -46 10t-38 9q-25 123 -25 159q0 6 16 6q18 0 25 -9q34 -144 166 -144q50 0 85 30t35 85q0 20 -6 37t-12 28t-24 23q-16 12 -25 19q-9 6 -33 19t-33 18q-29 17 -41 24q-12 6 -38 24t-38 32t-28 32q-16 20 -22 42t-7 46z "/>
<glyph glyph-name="T" horiz-adv-x="669" unicode="T" d="M335 656q44 0 113 2t107 2q25 0 69 11l19 -143q-7 -7 -24 -7q-9 0 -10 5q-15 56 -35 72t-77 17q-106 0 -110 -15q-9 -32 -9 -100v-361q0 -58 9 -93q2 -8 28 -14t36 -6q4 0 4 -15q0 -8 -2 -14q-100 5 -116 5q-5 0 -120 -5q-4 4 -4 15q0 14 4 14q13 0 39 6t28 14q7 27 7 89 v362q0 87 -9 103q-8 15 -108 15q-58 -1 -78 -17t-34 -72q-1 -5 -10 -5q-17 0 -24 7l19 143q44 -11 69 -11q38 0 106 -2t113 -2z"/>
<glyph glyph-name="U" horiz-adv-x="719" unicode="U" d="M157 657q16 0 116 5q2 -6 2 -14q0 -15 -4 -15q-10 0 -36 -7t-28 -14q-9 -35 -9 -93v-223q0 -113 48 -180t136 -67q171 0 171 225v250q0 61 -7 88q-3 8 -34.5 15.5t-44.5 7.5q-4 0 -4 11.5t4 15.5q13 -1 52 -3.5t66 -2.5q26 0 65.5 3t46.5 3q2 -6 2 -15q0 -12 -4 -12 q-10 0 -43.5 -8t-35.5 -15q-8 -31 -8 -93v-243q0 -155 -65 -215.5t-185 -60.5q-119 0 -183 70t-64 226v227q0 62 -7 89q-3 8 -28.5 14.5t-38.5 6.5q-4 0 -4 13q0 12 4 16q115 -5 120 -5z"/>
<glyph glyph-name="V" horiz-adv-x="709" unicode="V" d="M136 657q24 0 124 5q2 -4 2 -16t-4 -13q-7 0 -19 -2t-26 -10t-14 -21q0 -29 126 -337q27 -68 43 -106q2 -5 8 -3t8 8l150 362q19 49 19 70q0 14 -16 24q-17 10 -31 12t-23 3q-4 1 -4 13t4 16q93 -5 107 -5q1 0 101 5q2 -6 2 -15q0 -14 -4 -14q-45 0 -60 -28 q-23 -42 -49 -103l-200 -478q-13 -33 -35 -33q-7 0 -10 6l-205 517q-25 66 -45 96q-7 11 -29 17t-35 6q-4 0 -4 13q0 12 4 16q16 -1 38 -2q21 -1 39 -2t38 -1z"/>
<glyph glyph-name="W" horiz-adv-x="1076" unicode="W" d="M146 657q5 0 105 5q1 -4 1 -16t-3 -13q-7 1 -17 -1t-22 -10t-11 -18q0 -30 23 -74l207 -410q3 -4 8 -2t7 7l83 173l-105 216q-29 59 -58 96q-8 10 -27 16t-31 7q-4 0 -4 15q0 10 4 14q115 -5 126 -5q4 0 104 5q2 -4 2 -16t-4 -13q-6 1 -16 -1t-22 -9t-11 -19 q0 -26 23 -74l66 -135l70 147q14 31 14 58q0 17 -22 25t-37 8q-4 1 -4 13t4 16q80 -5 101 -5q4 0 104 5q2 -4 2 -16t-4 -13q-10 0 -34 -8t-35 -20q-18 -22 -58 -103l-77 -158l109 -224q6 -11 12 5l179 411q17 41 17 63q-1 17 -21 25t-36 9q-4 1 -4 13t4 16q80 -5 102 -5 q23 0 38 1t31 2t30 2q2 -6 2 -15q0 -14 -4 -14q-10 1 -32 -7t-33 -21q-29 -34 -58 -101l-212 -480q-15 -32 -39 -32q-6 0 -9 5l-122 250l-108 -223q-15 -32 -39 -32q-6 0 -9 5l-260 517q-29 59 -58 96q-8 10 -27 16t-31 7q-4 0 -4 13q0 12 4 16q115 -5 126 -5z"/>
<glyph glyph-name="X" horiz-adv-x="688" unicode="X" d="M176 657q28 0 128 5q2 -4 2 -16t-4 -13q-18 1 -39 -7t-21 -25q0 -12 12 -30l115 -175q3 6 23 30t28 36q8 11 26 34q18 24 26 36t20 28q10 16 14 26t5 16q-1 11 -21 21t-49 10q-4 1 -4 13t4 16q93 -5 127 -5q12 0 112 5q2 -4 2 -16t-4 -13q-14 0 -50 -8t-46 -21l-188 -246 l192 -292q14 -20 42 -30t56 -10q5 0 5 -16q0 -9 -2 -13q-100 5 -105 5q-6 0 -146 -5q-4 5 -4 17t4 12q14 0 36 8t22 20q0 4 -5 12l-150 229q-164 -220 -164 -240q1 -4 5 -10q4 -7 21 -13t42 -6q4 0 4 -16q0 -10 -2 -13q-93 5 -113 5q-23 0 -123 -5q-2 6 -2 13q0 16 4 16 q7 0 21 2t35 8q21 7 32 18l214 280l-140 214q-31 49 -66 69q-27 16 -56 16q-4 1 -4 13t4 16q123 -5 125 -5z"/>
<glyph glyph-name="Y" horiz-adv-x="649" unicode="Y" d="M139 656q12 0 132 6q2 -4 1.5 -15.5t-3.5 -11.5q-17 0 -38.5 -8.5t-21.5 -25.5q0 -11 11 -30l112 -212q5 -5 10 2q136 206 136 241q0 11 -20 22t-49 11q-4 0 -4 11.5t4 15.5q111 -6 118 -6q31 0 64 3t42 3q2 -6 2 -15q0 -12 -4 -12q-12 0 -42 -9t-40 -22 q-38 -59 -110.5 -179t-72.5 -134v-152q0 -62 8 -93q2 -7 27 -14.5t34 -7.5q4 0 4 -13q0 -8 -2 -14q-100 5 -112 5q-3 0 -118 -5q-4 4 -4 14q0 13 4 13q12 0 36.5 7t27.5 15q8 31 8 96v125q0 14 -21.5 55.5t-124.5 226.5q-16 30 -24.5 41.5t-24.5 22.5q-11 8 -33 15t-32 7 q-4 0 -4 11q0 12 4 16q16 -1 54 -3.5t66 -2.5z"/>
<glyph glyph-name="Z" horiz-adv-x="600" unicode="Z" d="M214 656h109q70 0 210 10q3 -1 7 -13t3 -20l-374 -557q-7 -10 -7 -15q0 -10 14 -10h226q36 1 62 11t42 32t24 36t18 42q2 3 14 3q15 0 24 -9q-32 -104 -44 -166h-496q-8 9 -8 26q0 12 4 17l383 565h-212q-67 0 -95 -28t-47 -96q-1 -4 -10 -4q-23 0 -32 9q27 124 33 176 q10 -3 72 -6t80 -3z"/>
<glyph glyph-name="bracketleft" horiz-adv-x="361" unicode="[" d="M140 740q36 0 72 2t60 4t28 3q6 0 6 -12q0 -22 -18 -31q-47 -11 -101 -11q-3 0 -5 -2t-2 -4v-2v-736q1 -8 7 -8q52 0 102 -17q12 -4 12 -22q1 -6 -1 -10t-4 -6l-1 -2q-73 12 -155 12q-19 0 -19 23v796q0 23 19 23z"/>
<glyph glyph-name="backslash" horiz-adv-x="430" unicode="\" d="M396 -7q0 -27 -23 -32l-24 2l-313 792q7 6 21 6q39 0 49 -22l287 -726q3 -6 3 -20z"/>
<glyph glyph-name="bracketright" horiz-adv-x="361" unicode="]" d="M183 -49v736q-1 8 -7 8q-24 1 -50 3t-38 5l-13 3l-1 1q-2 1 -4 3l-4 4t-4 5t-4 8t-1 10q0 12 5 12h1q78 -9 160 -9q18 0 18 -23v-796q0 -23 -18 -23q-36 0 -75 -3t-60 -6l-21 -3q-6 1 -6 12q0 10 6 20l9 8q46 17 100 17q2 0 4 2t2 4z"/>
<glyph glyph-name="asciicircum" horiz-adv-x="445" unicode="^" d="M362 475q-12 0 -58 40t-82 82q-32 -41 -78 -81t-60 -41q-4 0 -8 6t-4 12l-1 6q1 3 25 25t57 64q33 41 55 89q6 13 10 13q8 0 14 -6t10 -14q4 -10 18 -33t33 -49q10 -13 30 -34q19 -20 35 -36t17 -18q0 -5 -4 -15t-9 -10z"/>
<glyph glyph-name="underscore" horiz-adv-x="468" unicode="_" d="M0 -33q5 46 15 46h449q4 0 4 -5q0 -8 -10 -45q0 -3 -2 -5t-3 -1h-1h-445q-7 0 -7 10z"/>
<glyph glyph-name="grave" horiz-adv-x="327" unicode="`" d="M104 663q0 5 2 9t13 10q10 6 26 5q25 0 34 -9q17 -20 40 -53t38 -57t15 -28q0 -13 -12 -13q-12 -1 -84 55t-72 81z"/>
<glyph glyph-name="a" horiz-adv-x="423" unicode="a" d="M234 436q55 0 79 -26.5t24 -85.5v-231q0 -21 11 -35t30 -14q14 0 35 14q4 0 4 -8q0 -13 -5 -21q-41 -35 -70 -35q-23 0 -44 19t-29 40q-1 0 -7.5 -6.5t-17.5 -15t-25.5 -17.5t-34 -15t-39.5 -6q-46 0 -76 24.5t-30 73.5q0 22 11 41.5t26 32t41 25.5t44.5 19.5t48.5 16.5 t42 15q9 3 9 15v75q0 32 -20 49.5t-48 17.5q-30 0 -50 -20.5t-20 -53.5q0 -35 -41 -35q-28 0 -39 19q0 43 63 85.5t128 42.5zM184 50q27 0 52 16.5t25 33.5v103q-8 -4 -39 -14t-48.5 -17.5t-34 -25t-16.5 -40.5q0 -27 17 -41.5t44 -14.5z"/>
<glyph glyph-name="b" horiz-adv-x="499" unicode="b" d="M224 389q-28 1 -48 -15t-20 -45v-233q0 -32 30 -46t68 -14q57 0 89 54t32 122q1 79 -41 128t-110 49zM256 438q96 0 150 -66t55 -139q-1 -95 -71 -167t-155 -72q-37 0 -71 6t-38 7q-8 1 -22 -5t-16 -6q-4 0 -12 3t-9 7l3 16q3 16 6 46t3 67v414q0 34 -6 64q-5 16 -51 16 h-9q-6 0 -6 11q0 16 6 16q29 3 55 8t40 10q14 6 25 10q10 4 15 7l4 3h2q4 0 8 -6t5 -10q-11 -32 -11 -87v-175q0 -11 3 -11q1 0 3 1q14 10 43 21t51 11z"/>
<glyph glyph-name="c" horiz-adv-x="405" unicode="c" d="M231 436q110 0 152 -51q0 -67 -37 -67q-17 0 -26 7.5t-23 27.5q-31 46 -74 46q-41 0 -74.5 -39t-33.5 -116q0 -80 39.5 -133t109.5 -53q21 0 40 4t32.5 9.5t23 11t16.5 10.5l7 5q6 0 6 -13q0 -8 -6 -18q-20 -28 -59 -50.5t-85 -22.5q-83 0 -142.5 62.5t-59.5 152.5 q0 92 50 159.5t144 67.5z"/>
<glyph glyph-name="d" horiz-adv-x="497" unicode="d" d="M261 440q43 0 75 -17q7 0 7 18v108q0 34 -6 64q-5 16 -51 16h-9q-6 0 -6 11q0 16 6 16q29 3 55 8t40 10q14 6 25 10q10 4 15 7l4 3h2q4 0 8 -6t5 -10q-11 -32 -11 -87v-450q0 -48 6 -76q2 -7 11 -11t19 -5t18 -1l9 -1q3 -1 3 -12q0 -15 -6 -15q-16 -1 -34 -4 q-18 -2 -34 -6t-31 -8q-14 -4 -23 -6l-9 -2q-6 0 -6 17v12q0 6 -4 4q-56 -31 -106 -31q-83 0 -139 59t-56 141q0 96 68 170t155 74zM248 398q-58 0 -91 -52t-33 -121q0 -73 39 -127t108 -53q34 -1 53 15t19 42v238q-1 22 -23 40t-72 18z"/>
<glyph glyph-name="e" horiz-adv-x="430" unicode="e" d="M235 436q46 0 81 -17.5t53.5 -45t27 -56t8.5 -56.5q0 -20 -6 -24.5t-23 -4.5h-252q-8 0 -8 -5q0 -63 38 -116t110 -53q21 0 40 4t32.5 9.5t23 11t16.5 10.5l7 5q6 0 6 -13q0 -8 -6 -18q-20 -28 -59 -50.5t-85 -22.5q-83 0 -142.5 62.5t-59.5 152.5q0 105 56.5 166 t141.5 61zM225 399q-52 0 -79.5 -44.5t-27.5 -73.5q0 -7 6 -7h195q5 0 5 10q0 32 -27 73.5t-72 41.5z"/>
<glyph glyph-name="f" horiz-adv-x="301" unicode="f" d="M297 695q72 0 95 -39q0 -63 -36 -63q-13 -1 -25 15q-11 16 -27 32t-38 16q-44 0 -68 -54t-24 -127v-51q0 -5 5 -5h111q5 0 5 -7q0 -16 -12 -40h-103q-6 0 -6 -6v-231q0 -54 9 -89q3 -8 25 -14t31 -6q3 0 4 -12t-1 -17q-100 5 -107 5q-3 0 -105 -5q-2 1 -3 9q-1 4 -1 8 q0 3 1 6q1 6 3 6q12 0 34 6t24 14q10 39 10 89v230q0 7 -5 7h-53q-3 0 -3 6q0 9 16 25t34 16h6q5 0 5 6v13q0 105 62 181t137 76z"/>
<glyph glyph-name="g" horiz-adv-x="474" unicode="g" d="M217 432q37 0 85 -13t79 -13h58q6 -2 6 -25q0 -14 -6 -14h-71q-4 0 -4 -3l10 -24q11 -24 11 -48q0 -54 -48 -97t-118 -43q-32 0 -56 4q-13 -7 -27 -25t-15 -32q0 -15 8 -23t23 -12t29 -4q14 -2 33 -2h7q124 -2 174 -26t50 -70q0 -76 -65 -132t-167 -57h-5q-68 0 -122 27 q-56 28 -57 84q0 62 98 106q-27 4 -50 25t-23 51q0 26 22 54t51 46q-29 12 -55 48t-26 78q0 60 50 100t121 40zM123 296q1 -46 29 -78t66 -32t64 30t26 72q0 46 -28 78t-67 32t-65 -30t-25 -72zM379 -85q0 43 -41 57t-163 14q-2 0 -6 -2q-1 0 -9 -4l-10 -5t-9 -5t-9 -6 t-9 -6q-6 -4 -8 -8t-6 -9q-3 -5 -5 -10t-4 -11t-1 -14q1 -44 45 -70t98 -26q60 0 98 32t39 73z"/>
<glyph glyph-name="h" horiz-adv-x="530" unicode="h" d="M312 438q67 0 96 -48t29 -148v-108q0 -57 8 -88q2 -8 26 -14t34 -6q3 0 4 -12v-7q0 -6 -1 -10q-100 5 -107 5q-3 0 -105 -5q-4 5 -4 17t4 12q12 0 34 6t23 14q7 29 7 70v106q0 92 -26 124t-78 31q-30 1 -60 -23t-29 -42v-177q0 -58 8 -89q2 -8 26 -14t34 -6q3 0 4 -12 t-1 -17q-100 5 -107 5q-6 0 -109 -5q-4 5 -4 17t4 12q12 0 36 6t25 14q7 29 7 69v434q0 34 -6 64q-5 16 -51 16h-9q-6 0 -6 11q0 16 6 16q30 3 56 8t40 10q14 6 24 10t14 7l5 3h2q4 0 8 -6t5 -10q-11 -32 -11 -87v-219q0 -4 2 -4q1 0 3 2q22 24 62 46t78 22z"/>
<glyph glyph-name="i" horiz-adv-x="269" unicode="i" d="M181 135q0 -58 8 -89q2 -8 26 -14t34 -6q3 0 4 -12v-7q0 -6 -1 -10q-100 5 -107 5t-109 -5q-4 5 -4 17t4 12q12 0 36 6t25 14q7 29 7 70v189q0 39 -14 54q-10 13 -24 17t-24 4t-10 2q0 24 6 25q106 16 138 26l2 1h3q4 0 5 -8t0 -13q-5 -40 -5 -72v-206zM85 593 q1 21 15 35t35 15q21 -1 35 -15t15 -35q-1 -21 -15 -35t-35 -15q-21 1 -35 15t-15 35z"/>
<glyph glyph-name="j" horiz-adv-x="238" unicode="j" d="M59 593q1 21 15 35t35 15q21 -1 35 -15t15 -35q-1 -21 -15 -35t-35 -15q-21 1 -35 15t-15 35zM85 305q0 39 -14 54q-11 13 -25 17t-24 4t-9 2q0 24 6 25q106 16 138 26q1 1 3 1h2q4 0 5 -8q1 -4 1 -8q0 -3 -1 -5q-5 -40 -5 -72v-273q0 -127 -39 -188q-25 -39 -63 -69 t-71 -42q-9 6 -13 15q-1 2 -1 4t1 3l12 6q12 6 28 21t31 40q16 25 27 74t11 113v260z"/>
<glyph glyph-name="k" horiz-adv-x="496" unicode="k" d="M387 368q-17 -10 -65 -48t-83 -73q29 -31 71 -79t69 -76q27 -30 37 -39q17 -13 43 -21t37 -8q4 0 4 -16q0 -9 -1 -11q-100 5 -109 5q-2 0 -104 -5q-4 3 -4 15t4 12q10 0 23 4t13 9q0 2 -1 3l-146 158l-12 -3v-60q2 -66 8 -89q2 -8 26 -14t34 -6q3 0 4 -12t-1 -17 q-100 5 -107 5q-6 0 -109 -5q-4 5 -4 17t4 12q12 0 36 6t25 14q7 29 7 70v433q0 34 -6 64q-5 16 -51 16h-9q-6 0 -6 11q0 16 6 16q30 3 56 8t40 10q14 6 24 10t14 7l5 3h2q4 0 8 -6t5 -10q-11 -32 -11 -87v-350q21 5 25 9q22 19 46 39l36 30t23 20t15 16t4 12q0 12 -22 14 t-23 4q-7 20 1 23h79q15 0 31 1t40 2q22 1 39 2q5 -2 5 -9t-2 -13t-4 -6q-13 0 -37 -6t-32 -11z"/>
<glyph glyph-name="l" horiz-adv-x="251" unicode="l" d="M87 116v433q0 34 -6 64q-5 16 -51 16h-9q-6 0 -6 11q0 16 6 16q29 3 55 8t40 10q14 6 25 10q10 4 15 7l4 3h2q4 0 8 -6t5 -10q-11 -32 -11 -87v-456q0 -58 8 -89q2 -8 26 -14t34 -6q3 0 4 -12v-7q0 -6 -1 -10q-100 5 -107 5q-6 0 -109 -5q-4 5 -4 17t4 12q11 0 35 6 t26 14q7 29 7 70z"/>
<glyph glyph-name="m" horiz-adv-x="800" unicode="m" d="M320 438q40 0 66 -22t37 -49q75 71 155 71q126 0 126 -192v-111q0 -58 8 -89q2 -8 26 -14t34 -6q3 0 4 -12v-7q0 -6 -1 -10q-100 5 -107 5q-6 0 -109 -5q-4 5 -4 17t4 12q11 0 35 6t26 14q7 29 7 64v113q0 154 -101 154q-37 1 -64 -21t-27 -36l1 -4v-5q4 -25 4 -72v-113 q0 -49 8 -80q2 -8 26 -14t34 -6q3 0 4 -12t-1 -17q-100 5 -107 5q-6 0 -109 -5q-4 5 -4 17t4 12q11 0 35 6t26 14q7 29 7 70v102q0 159 -96 159q-31 -1 -61 -23t-30 -43v-176q0 -58 8 -89q2 -8 26 -14t34 -6q3 0 4 -12t-1 -17q-100 5 -107 5q-6 0 -109 -5q-4 5 -4 17t4 12 q11 0 35 6t26 14q7 29 7 70v189q0 39 -14 54q-11 13 -25 17t-24 4t-9 2q0 24 6 25q106 16 138 26q1 1 3 1h2q4 0 5 -8t0 -13q-4 -28 -4 -40q0 -4 2 -4q1 0 3 2q22 23 62 45t76 22z"/>
<glyph glyph-name="n" horiz-adv-x="543" unicode="n" d="M322 438q70 0 98 -50t28 -162v-91q0 -58 8 -89q2 -7 26 -13.5t34 -6.5q3 0 4 -12v-7q0 -6 -1 -10q-100 5 -107 5q-2 0 -105 -5q-4 4 -4 16.5t4 12.5q12 0 33.5 6.5t23.5 13.5q7 29 7 70v100q0 93 -24 127t-78 34q-32 0 -61.5 -23.5t-29.5 -42.5v-176q0 -58 8 -89 q2 -7 26 -13.5t34 -6.5q3 0 4 -12t-1 -17q-100 5 -107 5q-6 0 -109 -5q-4 4 -4 16.5t4 12.5q12 0 35.5 6.5t25.5 13.5q7 29 7 70v189q0 39 -14 54q-10 12 -24.5 16.5t-24 4.5t-9.5 2q0 24 6 25q106 16 138 26q1 1 3 1h2q4 0 5 -8.5t0 -12.5q-4 -28 -4 -40q0 -4 2 -4q1 0 3 2 q23 24 62.5 45.5t75.5 21.5z"/>
<glyph glyph-name="o" horiz-adv-x="510" unicode="o" d="M254 437q90 0 154 -65t64 -156q0 -92 -62.5 -157.5t-153.5 -65.5t-155 65.5t-64 157.5q0 93 62 157t155 64zM243 398q-53 0 -86.5 -48.5t-33.5 -118.5q0 -82 42.5 -140.5t99.5 -58.5q53 0 87 50t34 120q0 81 -43 138.5t-100 57.5z"/>
<glyph glyph-name="p" horiz-adv-x="511" unicode="p" d="M237 387q-31 -1 -51 -17t-20 -47v-225q0 -28 29 -46t63 -18q59 0 94 53t35 119q-1 84 -45 132t-105 49zM269 436q96 0 150 -64t54 -138q0 -96 -67 -169t-152 -73q-14 0 -26 1t-21 3t-14 5q-5 1 -13 5l-10 5q-4 -5 -4 -13v-86q0 -58 8 -89q2 -7 26 -13t34 -7q3 -1 4 -13 t-1 -16q-100 5 -107 5q-6 0 -109 -5q-4 4 -4 16t4 13q11 1 35 7t26 13q7 29 7 70v413q0 39 -14 54q-11 12 -25 16t-24 5q-10 0 -9 2q0 24 6 25q106 16 138 26h3l2 1q3 1 3 -5t-1 -14t-1 -9v-6q15 11 47 23t55 12z"/>
<glyph glyph-name="q" horiz-adv-x="489" unicode="q" d="M248 398q-44 0 -74 -31t-40 -67t-10 -74q0 -89 44 -135t107 -46q23 -1 45 13t23 47v232q0 27 -25 44t-70 17zM265 440q37 0 72 -6t40 -5q9 0 23 4t15 4q3 0 12 -3t9 -7q0 -1 -4 -18t-8 -48t-4 -68v-394q0 -46 8 -77q2 -8 26 -14t34 -6q3 0 4 -12v-7q0 -6 -1 -10 q-100 5 -107 5q-6 0 -109 -5q-4 5 -4 17t4 12q11 0 35 6t26 14q7 29 7 70v124q1 4 -1 8t-6 2q-60 -30 -96 -30q-86 0 -144 63t-58 144q0 89 68 163t159 74z"/>
<glyph glyph-name="r" horiz-adv-x="380" unicode="r" d="M293 437q59 0 78 -29q0 -35 -11 -51t-27 -16q-18 0 -33 17t-41 17q-31 0 -54 -29t-23 -61v-150q0 -58 8 -89q2 -8 26 -14t35 -6q3 0 4 -12t-1 -17q-100 5 -108 5q-6 0 -109 -5q-4 5 -4 17t4 12q11 0 35 6t26 14q7 29 7 70v189q0 39 -14 54q-11 13 -25 17t-24 4t-9 2 q0 24 6 25q106 16 138 26q1 1 3 1h2q4 0 5 -8t0 -13l-6 -50q17 27 49 51t63 23z"/>
<glyph glyph-name="s" horiz-adv-x="359" unicode="s" d="M191 437q21 1 55 -5t47 -8q10 -46 12 -102q0 -5 -13 -5q-14 0 -15 7q-5 28 -29 53t-53 25q-72 0 -72 -59q0 -15 4 -27q3 -12 15 -22t18 -14t26 -16t26 -15q4 -1 24 -13t27 -17t23 -17t23 -22t13 -24t7 -29q0 -59 -46 -99t-108 -39q-21 1 -39 3t-41 8q-24 6 -37 8 q-6 16 -12 50t-5 54q8 6 12 6q15 0 16 -6q5 -30 37 -58t69 -29q33 -1 53 17t20 51q0 17 -6 31t-22 26q-14 12 -26 20t-36 19q-23 12 -34 19q-78 45 -78 107q0 54 44 88t101 34z"/>
<glyph glyph-name="t" horiz-adv-x="314" unicode="t" d="M80 374h-58q-5 0 -5 21q0 6 1 7q29 13 63 53q11 13 21 29t18 29q7 12 7 13q30 0 30 -5v-99h79t56 -1q8 0 8 -9q0 -18 -10 -38h-133v-245q1 -40 21 -64t53 -24q30 0 62 19q3 2 9 -8q5 -9 5 -12q0 -10 -46 -32q-31 -16 -64 -15q-49 0 -83 33t-34 94v254z"/>
<glyph glyph-name="u" horiz-adv-x="517" unicode="u" d="M435 341v-200q0 -43 7 -76q2 -7 11 -11t19 -5t20 -1l9 -1q3 -1 3 -11q0 -3 -2.5 -9.5t-5.5 -6.5q-15 -1 -33.5 -4t-34.5 -7t-30 -8t-22 -7l-9 -2q-8 0 -8 16v51l-2 5q-66 -71 -131 -71q-37 0 -63.5 18.5t-39 49t-17.5 59t-5 59.5v126q0 39 -14 54q-10 12 -24.5 16.5 t-24 4.5t-9.5 2q0 24 6 25q106 16 138 26q1 1 3 1h2q4 0 5 -8.5t0 -12.5q-6 -48 -6 -74v-135q0 -77 23 -113.5t75 -36.5q30 0 57 23.5t27 40.5v187q0 39 -14 54q-10 12 -24.5 16.5t-24 4.5t-9.5 2q0 24 6 25q106 16 138 26q1 1 3 1h2q4 0 5 -8.5t0 -12.5q-6 -48 -6 -72z"/>
<glyph glyph-name="v" horiz-adv-x="493" unicode="v" d="M383 373q0 32 -72 32q-4 1 -4 13t4 16q11 -1 41 -3t54 -2l100 5q2 -6 2 -15q0 -14 -7 -14q-14 0 -37 -8t-31 -26l-159 -359q-2 -7 -12 -15t-17 -8t-9 4q-16 37 -74 172t-101 220q-10 20 -59 20q-4 0 -4 13q0 12 4 16q103 -5 104 -5l100 5q2 -4 0 -16t-4 -13 q-49 0 -49 -17q0 -2 1 -4l120 -271l101 230q8 19 8 30z"/>
<glyph glyph-name="w" horiz-adv-x="734" unicode="w" d="M623 370q0 35 -66 35h-4q-4 1 -4 13t4 16q15 -1 33 -2t34 -2t34 -1t30 1t28 2t31 2q2 -6 2 -15q0 -14 -5 -14q-13 -1 -35 -9t-29 -27l-131 -358q-8 -22 -28 -22q-10 0 -12 4l-123 294l-101 -276q-1 -3 -4 -7t-9 -10q-6 -5 -14 -5q-10 0 -12 4q-24 53 -54 129t-58 136 q-27 60 -63 125q-13 22 -54 22q-4 0 -4 13q0 12 4 16q15 -1 33 -2t33 -2t33 -1l100 5q2 -4 2 -16t-4 -13q-50 0 -50 -23q0 -3 12 -30q12 -28 44 -94q31 -66 63 -138q17 49 38 108t29 84t9 29q-1 5 -5 16t-9 19l-5 9q-6 9 -19 15q-10 5 -32 5q-4 1 -4 13t4 16q15 -1 33 -2 t32 -2t32 -1t32 1t33 2t33 2q2 -6 2 -17t-3 -12q-48 0 -48 -39q0 -21 110 -246q15 46 38 111t33 97t11 42z"/>
<glyph glyph-name="x" horiz-adv-x="467" unicode="x" d="M13 420q2 10 4 14q97 -5 100 -5q2 0 105 5q1 -4 1 -12q0 -17 -3 -17q-40 0 -40 -17q0 -4 5 -12l65 -101q7 11 21 31q15 20 23 34q8 12 15 26t7 21q0 9 -12 13t-26 4t-16 1q-3 1 -3 16q0 9 3 13q102 -5 105 -5t91 5q2 -10 2 -14q0 -15 -3 -15q-66 -8 -87 -34l-96 -125 q-2 -3 -2 -7q0 -5 3 -11l107 -158q27 -40 84 -44q3 0 3 -14q0 -10 -4 -15q-93 5 -94 5q-3 0 -111 -5q-2 10 -2 13q0 16 3 16q42 3 42 18q0 2 -2 6l-76 120l-69 -103q-7 -11 -7 -19q0 -18 50 -22h5q3 0 3 -15q0 -10 -4 -14q-97 5 -100 5q-2 0 -97 -5q-2 8 -2 14q0 15 4 15 q67 10 90 42l104 139v3t1 3q0 2 -2 6l-103 151q-9 13 -37 24t-45 11z"/>
<glyph glyph-name="y" horiz-adv-x="454" unicode="y" d="M114 429q17 0 31.5 1t33 2t32.5 2q2 -6 2 -15q0 -14 -4 -14q-8 0 -26.5 -7t-20.5 -14v-2q0 -18 107 -261l76 219q7 21 7 31q0 15 -15.5 24.5t-41.5 9.5q-4 0 -4 13q0 12 4 16l39 -3t50 -2q22 0 48 2l39 3q2 -6 2 -15q0 -14 -4 -14q-13 0 -35.5 -9t-29.5 -29l-179 -483 q-23 -62 -52 -86.5t-53 -24.5q-21 0 -31 13t-10 26q0 22 14 32q83 0 110 86l12 36t11 34l-143 350q-11 24 -20 34q-9 9 -27.5 15t-29.5 6q-4 0 -4 13q0 12 4 16q103 -5 108 -5z"/>
<glyph glyph-name="z" horiz-adv-x="414" unicode="z" d="M135 47q0 -7 12 -7h131q42 0 62 21t30 59q2 11 8 11q22 0 29 -12l-21 -119h-337q-20 12 -20 23q0 3 1 4l257 357l-149 1q-20 1 -33 -9t-17 -20t-10 -26q-4 -16 -5 -18q-3 -6 -24 -6q-11 0 -11 3t7 47t9 74q59 -6 95 -6h122q56 0 122 8q3 -5 3 -24l-254 -347 q-7 -10 -7 -14z"/>
<glyph glyph-name="braceleft" horiz-adv-x="324" unicode="{" d="M66 292q-3 6 -3 18t4 19q29 7 45 13t30 22q15 16 15 42q0 25 -25 81t-25 88q0 83 46 129t113 46q4 0 4 -8q0 -19 -11 -21q-29 -2 -64 -33t-35 -75q0 -35 25 -91t25 -99q0 -46 -28 -80t-56 -35q30 -1 58 -33t27 -78q1 -43 -25 -93t-26 -86q0 -44 36 -78t63 -36 q11 -2 11 -22q0 -7 -4 -7q-65 -1 -111 51t-46 129q0 31 24 85t24 79q-1 13 -5 23t-8 16t-18 12t-17 9q-5 2 -23 7t-20 6z"/>
<glyph glyph-name="bar" horiz-adv-x="264" unicode="|" d="M164 -106q0 -5 -26 -11t-33 -6q-5 0 -5 8v872q-1 6 5 8q24 7 50 7q4 0 6 -2l2 -2v-2z"/>
<glyph glyph-name="braceright" horiz-adv-x="325" unicode="}" d="M258 292q-4 -1 -18 -5t-18 -6q-6 -3 -17 -7t-16 -8t-11 -12q-6 -6 -8 -15t-3 -20q0 -25 24 -79t24 -85q0 -77 -46 -129t-111 -51q-4 0 -4 7q0 20 11 22q27 2 63 36t36 78q0 36 -26 86t-25 93q-1 46 27 78t58 33q-28 1 -56 35t-28 80q0 43 25 99t25 91q0 44 -35 75t-64 33 q-11 2 -11 21q0 8 4 8q67 0 113 -46t46 -129q0 -32 -25 -88t-25 -81q0 -26 15 -42q14 -16 30 -22t45 -13q4 -7 4 -19t-3 -18z"/>
<glyph glyph-name="asciitilde" horiz-adv-x="576" unicode="~" d="M65 259q-9 5 -9 17q0 21 24 39q31 23 52 31t54 8q47 0 118 -26t118 -27q7 0 14 1q7 0 12 2t12 6q6 4 10 4q4 2 12 8t9 6q3 2 11 8t10 9q9 -5 9 -17q0 -22 -23 -39q-32 -23 -52 -31t-53 -8q-47 0 -118 26t-119 27q-18 0 -36 -8t-26 -13t-29 -23z"/>
<glyph glyph-name="uni00A0" horiz-adv-x="162" unicode=" "/>
<glyph glyph-name="exclamdown" horiz-adv-x="166" unicode="¡" d="M25 373q1 23 17 41t40 18t41 -18t17 -41q0 -25 -17 -41t-41 -16t-40 16t-17 41zM80 -224q-22 0 -34 18t-11 45q1 10 5 53q4 44 12 138t14 207q1 15 5 21t19 12h2q4 0 6 -5q4 -7 5 -17q7 -130 15 -226t11 -128q3 -34 3 -55q0 -25 -14 -44t-38 -19z"/>
<glyph glyph-name="cent" horiz-adv-x="464" unicode="¢" d="M254 435q-86 0 -140 -68t-54 -156q0 -103 56 -161q36 -37 86 -51l11 72q-22 13 -38 37q-39 56 -39 137q0 79 33 117t75 38q12 0 23 -3l6 38h-19zM279 474q35 0 35 -8q-3 -18 -6 -35q-17 3 -35 4zM202 -1q17 -5 35 -6l-6 -38q-35 0 -35 9zM213 71l54 326q7 -2 15 -5 q11 -5 18 -10l-52 -325q-19 5 -35 14zM237 -7q10 -1 21 -1q79 0 148 75q6 6 6 18q0 3 -2 7t-2 5q-1 2 -2 2l-6 -5q-6 -6 -16 -12t-23 -13t-33 -12t-39 -5q-22 0 -41 5zM300 382q5 -2 8 -6q8 -8 23 -26q1 -2 5 -6t6 -7q2 -1 4 -5l6 -6t4 -3q2 -2 4 -3q2 -2 4 -2h6q36 0 36 63 q-14 27 -58 41q-19 6 -40 9z"/>
<glyph glyph-name="sterling" horiz-adv-x="473" unicode="£" d="M282 635q52 0 77 -37q0 -59 -30 -59q-21 0 -43 27t-43 27q-24 0 -40 -13q-17 -13 -23 -37t-8 -46t-2 -53q0 -20 4 -101q1 -13 1 -24h143q5 0 5 -10q0 -20 -15 -30h-131q1 -19 1 -21q0 -98 -45 -174q23 9 72 9q29 0 84 -16t73 -16q12 0 24 9q12 8 18 18t15 27t11 20 q6 1 12 -5t7 -13q0 -7 -1 -9q-44 -116 -117 -116q-34 0 -101 18t-90 19q-35 0 -75 -38q-9 1 -14 7t-5 12q9 17 25 40t22 32q4 8 7 18q2 10 4 24q2 13 3 24q1 12 1 28t1 24v26v23t-1 30h-58q-5 0 -5 13q0 18 6 27h54q-1 6 -1 13q-4 74 -4 91q0 94 50 153t132 59z"/>
<glyph glyph-name="currency" horiz-adv-x="468" unicode="¤" d="M344 455l59 55q5 4 13 -2t16 -18t12 -24l-60 -56q29 -48 29 -103q0 -59 -33 -108l54 -58q4 -5 -2 -13t-18 -16t-24 -12l-52 55q-48 -35 -106 -35q-64 0 -114 40l-53 -50q-5 -4 -13 2t-16 18t-12 24l54 51q-30 47 -30 102q0 65 38 116l-52 56q-4 5 2 13t18 16t24 12 l52 -55q45 31 102 31q63 0 112 -41zM240 152q44 0 72 42t29 100q1 69 -35 119t-83 50q-44 0 -73 -43t-29 -101q-1 -67 35 -117t84 -50z"/>
<glyph glyph-name="yen" horiz-adv-x="658" unicode="¥" d="M143 636q8 0 125 6q2 -4 2 -16t-4 -11q-18 0 -38 -8t-20 -24q0 -11 10 -29l109 -206q5 -5 10 2q132 200 132 234q0 11 -19 21t-48 10q-4 -1 -4 11t4 16q11 -2 41 -4t51 -2t138 6q2 -6 2 -15q0 -12 -4 -12q-13 -1 -48 -9t-45 -20q-41 -65 -109 -178t-68 -126v-28h92 q5 0 5 -13q0 -16 -6 -25h-91v-40h92q5 0 5 -13q0 -16 -6 -25h-91q0 -65 7 -92q2 -6 26 -14t33 -8q4 0 4 -12q0 -9 -2 -15q-98 5 -108 5q-4 0 -114 -5q-4 4 -4 13q0 14 4 14q12 0 36 7t26 15q8 31 8 92h-92q-5 0 -5 13q0 16 6 25h91v40h-92q-5 0 -5 13q0 16 6 25h91 q0 14 -1 16q-4 18 -141 262q-18 35 -43 62q-9 9 -31 15t-33 6q-4 0 -4 11q0 12 4 16q17 -2 53 -4t63 -2z"/>
<glyph glyph-name="brokenbar" horiz-adv-x="137" unicode="¦" d="M37 -115v364q-1 6 5 8q24 7 49 7q4 0 6 -2l2 -2v-2l1 -364l-2 -2l-6 -4q-2 -2 -14 -5t-30 -5h-4t-2 -1q-5 0 -5 8zM37 389v364q-1 6 5 8q24 7 49 7q4 0 6 -2l2 -2v-2l1 -365q-1 0 -2 -2t-3 -3q-2 0 -7 -2t-15 -4t-25 -4q-4 -1 -6 -1q0 1 -2 1t-3 2v3v2z"/>
<glyph glyph-name="section" horiz-adv-x="382" unicode="§" d="M282 173l4 4l4 4l4 4t4 5l3 6l3 6t2 6q2 4 2 8v9q0 39 -26 67t-58 44t-70 42t-56 57q-26 -21 -26 -52q0 -39 26 -67t58 -44t70 -42t56 -57zM354 263q0 -82 -59 -123q14 -31 14 -50q-1 -38 -15 -65t-37 -41t-47 -19q-24 -6 -47 -6q-66 0 -89 34v7t-1 7q0 45 32 45 q13 0 40 -26t51 -27q28 1 44 17t17 46q0 37 -24 61q-23 23 -57 39t-68 34t-58 56t-24 93q0 82 59 124q-14 24 -14 49q0 64 42 98t104 35q64 0 88 -36q1 -3 1 -7v-6q0 -45 -31 -45q-13 0 -40 27t-51 27t-42 -16t-19 -48q0 -36 24 -60q23 -23 57 -39t68 -34t58 -57 q24 -38 24 -94z"/>
<glyph glyph-name="dieresis" horiz-adv-x="333" unicode="¨" d="M78 566q20 0 34.5 -15t14.5 -35t-15 -34t-35 -14t-35 14.5t-15 34.5t15.5 34.5t35.5 14.5zM261 566q20 0 34.5 -15t14.5 -35t-15 -34t-35 -14t-35 14.5t-15 34.5t15.5 34.5t35.5 14.5z"/>
<glyph glyph-name="copyright" horiz-adv-x="603" unicode="©" d="M61 342q1 -100 71 -171t170 -71t171 71t71 171t-71 171t-171 71t-170 -71t-71 -171zM28 342q0 113 80 193t193 80t193 -80t81 -193q-1 -113 -81 -193t-193 -80t-193 80t-80 193zM428 276q0 -4 -8 -32t-12 -30q-47 -19 -106 -19q-61 0 -102 41t-41 100q0 61 40 104t101 43 q62 0 112 -19q16 -57 16 -61q0 -9 -16 -9q-3 0 -7 2q-2 10 -9 20q-8 10 -30 22t-54 11q-40 0 -68 -31t-28 -73q0 -56 33 -87t72 -31q51 0 72 19q5 5 9 13t4 14q1 6 2 6q18 0 20 -3z"/>
<glyph glyph-name="ordfeminine" horiz-adv-x="316" unicode="ª" d="M236 318q0 -14 7 -24t19 -11q6 0 12 3l10 5l3 2q3 -1 3 -3q-2 -7 -4 -17q-32 -23 -48 -23t-30 14t-20 27l-8 -7q-9 -6 -19 -14q-11 -8 -27 -14t-32 -7q-32 0 -53 17t-21 51q0 15 8 29t18 22t28 18t31 14l33 12t29 9q6 1 6 10v58q1 18 -13 29t-34 11t-34 -14t-14 -37 q0 -22 -34 -22q-21 0 -21 11q1 29 43 59t86 30q42 0 59 -18t17 -54v-166zM181 324v68q-7 -3 -27 -9t-32 -11q-12 -4 -23 -16t-11 -28q0 -19 12 -29t28 -10q18 0 36 12t17 23z"/>
<glyph glyph-name="guillemotleft" horiz-adv-x="469" unicode="«" d="M115 247l87 -90q10 -9 20 -19l16 -16l10 -10l8 -8l4 -4t2 -5q0 -2 1 -4q0 -3 -3 -7t-6 -6t-8 -2q-5 -2 -6 -3q-2 3 -20 19t-69 54t-117 81q-7 3 -7 14q0 18 8 27q128 77 206 155q23 -6 23 -19q0 -6 -9 -16t-52 -50q-13 -12 -47 -48t-41 -43zM294 247l87 -90q10 -9 20 -19 q9 -10 15 -16t11 -10q5 -6 7 -8t5 -4t3 -5v-4q0 -3 -3 -7t-6 -6t-8 -2q-5 -2 -6 -3q-1 3 -19 19t-70 54q-51 38 -117 81q-7 3 -7 14q0 18 8 27q128 77 206 155q23 -6 23 -19q0 -6 -9 -16t-52 -50q-13 -12 -47 -48t-41 -43z"/>
<glyph glyph-name="logicalnot" horiz-adv-x="538" unicode="¬" d="M29 374q5 46 15 46h444q12 0 12 -11v-240q-10 -10 -49 -15h-4q-4 0 -6 2t-1 4v1v193q0 10 -11 10h-394q-6 0 -6 10z"/>
<glyph glyph-name="registered" horiz-adv-x="604" unicode="®" d="M306 428q14 0 26 14t12 32q0 55 -50 55q-22 0 -31 -3q-3 0 -3 -3l-1 -37v-45q0 -13 47 -13zM456 280q0 -8 -15 -8q-47 0 -73 22t-75 104q-5 8 -14 8q-7 1 -18 0q-2 0 -2 -7v-64q1 -30 4 -41q1 -3 11 -6t15 -3q1 0 1 -5v-7q-17 1 -63 1q-30 0 -50 -1q-2 2 -2 7t2 5 q5 0 16 3t12 6q3 9 3 25l-1 16v155q1 8 1 16q0 16 -3 25q-1 3 -11 7t-16 3q-1 0 -1 5q0 6 1 7q19 -3 48 -3q13 0 37 2t37 2q34 0 64 -19t30 -58q0 -42 -48 -63q-1 0 -1 -2q0 -12 70 -105q16 -21 40 -21q1 -2 1 -6zM62 407q0 -100 70 -171t171 -71q100 0 171 71t71 171 q0 101 -71 171t-171 70q-101 0 -171 -70t-70 -171zM29 407q0 113 80 193t193 80q114 0 194 -80t80 -193t-80 -193t-194 -81q-113 1 -193 81t-80 193z"/>
<glyph glyph-name="macron" horiz-adv-x="460" unicode="¯" d="M540 559q0 37 12 37h208q5 0 5 -7q0 -10 -6 -32q-1 -3 -3 -5l-2 -2h-2h-206l-4 2q-2 3 -2 7z"/>
<glyph glyph-name="degree" horiz-adv-x="233" unicode="°" d="M55 536q1 -26 19 -44t43 -18t43 18t18 44t-18 44t-43 17q-26 0 -44 -18t-18 -43zM18 536q0 40 29 69t70 29t69 -29t29 -69q0 -41 -29 -70t-69 -29q-41 -1 -70 29t-29 70z"/>
<glyph glyph-name="plusminus" horiz-adv-x="533" unicode="±" d="M295 301v-192q0 -10 -45 -16q-2 -1 -4 -1h-2q-5 0 -5 8v199q0 5 -6 5h-199q-6 0 -6 10q0 14 8 41q0 3 2 4t4 1h1h191q5 0 5 6v190q-1 5 5 7q27 8 41 8l10 -6v-200q0 -5 4 -5h200q8 0 8 -5q0 -8 -10 -45q-1 -2 -3 -4l-2 -2h-2h-191q-4 0 -4 -3zM491 62h3t4 -3q2 -2 1 -5 q0 -6 -4 -26q-2 -9 -4 -13q-2 -3 -3 -5t-3 -3l-2 -1h-448h-2t-3 4q-1 2 -1 5q0 15 8 42q1 3 3 4l2 1h2h447z"/>
<glyph glyph-name="uni00B2" horiz-adv-x="338" unicode="²" d="M149 594q-39 0 -73 -41q-2 -1 -8 3t-10 11t-4 11t1 5q20 26 55 45t68 19q46 0 78 -31t32 -74q0 -28 -10 -52t-31 -49q-23 -25 -39 -41t-50 -44t-46 -39q-1 -1 -1 -4t2 -3h137q18 0 27 6t13 18l3 12q1 2 5 3q10 0 14 -6q-4 -10 -21 -89l-125 1l-127 -1q-12 6 -12 21 q0 4 4 12q9 9 31 33t35 38t33 37t32 39t24 36q12 18 19 34q6 16 6 28q-1 22 -17 42t-45 20z"/>
<glyph glyph-name="uni00B3" horiz-adv-x="316" unicode="³" d="M174 647q28 1 56 -21t28 -57q0 -21 -10 -37t-22 -25q-11 -8 -34 -23q28 0 62 -28t34 -71q0 -63 -54 -101t-124 -37q-29 1 -53 9t-30 17v7q0 15 8 26t20 11q15 0 36 -17t38 -17q35 1 61 23t27 65q0 35 -18 54t-47 19q-6 0 -52 -6q-9 9 -9 19q0 8 9 11q40 8 66 30t26 56 q0 18 -16 30t-36 12q-18 0 -34 -10t-26 -18q-10 -10 -13 -10q-5 0 -10 17t-4 18q44 54 121 54z"/>
<glyph glyph-name="acute" horiz-adv-x="460" unicode="´" d="M633 687q16 1 26 -5q11 -6 13 -10t2 -9q0 -25 -72 -81t-84 -55q-12 0 -12 13q0 2 16 28t38 58t39 52q9 9 34 9z"/>
<glyph glyph-name="uni00B5" horiz-adv-x="509" unicode="µ" d="M192 -9q-7 0 -13 1.5t-11.5 5.5t-9 7t-8 10.5t-7 11t-6 13t-4.5 12t-5 13t-4 11.5q0 -1 1.5 -53t6 -115t14.5 -115q-12 -20 -24 -20q-9 0 -31 14t-22 23q0 32 6.5 180t14.5 214q0 12 -2 47.5t-2 46.5v119q12 20 24 20q9 0 31 -14t22 -23q0 -46 -23 -154l-5 -23 q0 -66 13 -112.5t38 -46.5q46 0 82.5 49t59.5 114v71v119q12 20 24 20q9 0 31 -14t22 -23q0 -46 -23 -154l-5 -23v-10q0 -146 58 -146q17 0 33.5 10t23.5 20q4 0 10 -10q3 -6 3 -11q-10 -33 -36.5 -56.5t-56.5 -23.5q-22 0 -37.5 22t-21 46t-11.5 64q-59 -137 -150 -137z "/>
<glyph glyph-name="paragraph" horiz-adv-x="496" unicode="¶" d="M286 599q-2 -159 -2 -261q0 -6 8 -6l37 6q5 0 5 6q0 230 -2 256q0 3 -8 7t-15 4q-23 0 -23 -12zM217 652q29 0 55 -2t56 -2l113 5q4 -5 4 -17t-4 -12q-13 0 -35 -6t-26 -14q-3 -10 -3 -104q1 -36 1 -91v-59q0 -6 5 -4l43 8q4 -8 4 -13q-2 -20 -20 -25l-26 -7q-5 -3 -5 -5 q0 -233 7 -259q4 -8 28 -15t36 -7q4 0 4 -12q0 -11 -4 -15q-19 2 -72 4t-89 2q-20 0 -40 -1t-43 -3t-36 -2q-2 4 -2 16t4 11q9 -1 34 7t27 15q5 21 5 138v101q0 7 -20 7q-80 0 -126 58t-46 120q0 79 53 131t118 52zM284 286l2 -237q0 -13 24 -13q8 0 14 4t6 10q4 45 4 245 q0 4 -4 4q-2 0 -6 -1q-4 0 -13 -2t-20 -3q-7 -1 -7 -7z"/>
<glyph glyph-name="periodcentered" horiz-adv-x="203" unicode="·" d="M47 264q0 24 17 41t41 17t41 -17t17 -41t-17 -42t-41 -17q-24 -1 -41 17t-17 42z"/>
<glyph glyph-name="cedilla" horiz-adv-x="460" unicode="¸" d="M680 -27h25q19 0 31.5 -14.5t12.5 -34.5q0 -34 -27 -55t-67 -21q-21 0 -34 9q0 1 -1.5 5.5t-1.5 8.5q0 5 4.5 9.5t9.5 4.5q6 0 17 -6.5t20 -6.5q20 0 31.5 9.5t11.5 23.5q0 16 -10 25t-21 9q-9 0 -26 -7q-2 0 -6.5 5t-3.5 8q4 6 16 24.5t16 26.5h21z"/>
<glyph glyph-name="uni00B9" horiz-adv-x="272" unicode="¹" d="M38 554q-2 0 -4 2t-4 2t-2 2q-2 2 -3 4t-1 6q0 6 3 8q47 19 84 38t51 28l15 8h2q4 0 12 -23q-9 -42 -9 -81v-208q0 -29 8 -47q2 -5 22 -9t29 -5q4 0 4 -16q0 -8 -1 -10q-12 -1 -44 1t-54 2q-23 0 -56 -2t-44 -1q-4 1 -4 13t4 12q10 0 32 4t24 10q6 16 6 31v195 q0 32 -4 42t-15 9q-8 0 -51 -15z"/>
<glyph glyph-name="ordmasculine" horiz-adv-x="370" unicode="º" d="M187 554q64 0 109 -46t45 -109q-1 -63 -45 -107t-109 -45q-65 0 -111 45t-47 107q0 63 46 109t112 46zM180 529q-38 1 -60 -35t-22 -83q0 -55 26 -97t71 -43q37 1 57 37t20 83q0 55 -24 97t-68 41z"/>
<glyph glyph-name="guillemotright" horiz-adv-x="471" unicode="»" d="M230 73q-23 6 -23 18q-1 3 1 6t6 8t10 10t18 17t26 25l87 90q-7 7 -41 43t-47 48q-59 57 -60 62q-1 2 -1 4q0 4 3 8t6 4q3 2 8 4t6 3q76 -76 206 -155q8 -9 8 -27q0 -11 -7 -14q-58 -37 -106 -73t-70 -54t-30 -27zM51 73q-23 6 -23 18v4t3 5q3 4 5 6l8 8l10 10q6 4 16 14 t18 19l87 90q-7 7 -41 43t-47 48l-52 52t-8 14q0 4 3 8t6 4q3 2 8 4t6 3q78 -78 205 -155q9 -10 9 -27q0 -11 -8 -14q-58 -37 -106 -73t-70 -54t-29 -27z"/>
<glyph glyph-name="onequarter" horiz-adv-x="670" unicode="¼" d="M37 540q-1 0 -3 2t-4 2t-4 2t-2 4q-1 2 -1 6q-1 6 9 10t48 22t87 50h3q3 0 11 -24q-9 -41 -9 -80v-196q0 -29 8 -47q2 -5 22 -10t29 -5q5 0 5 -15q0 -8 -1 -10q-13 -1 -43 1t-52 2t-52 -2t-44 -1q-4 2 -4 13t4 11q10 0 30 5t22 10q6 16 6 31v183q0 22 -2 34t-6 14 q-3 3 -9 3q-5 0 -48 -15zM556 617l-348 -631q0 -2 -4 -2q-19 0 -34 19l-1 7l348 632q2 3 6 3q14 0 30 -17q2 -2 3 -5t0 -5v-1zM533 163v129q-1 4 -5 4q-25 -30 -55 -69t-48 -61q-3 -3 2 -7q1 -1 2 -1h98q6 0 6 5zM573 -5q-19 0 -27 1q-8 0 -10 2t-3 6v108q-1 3 -5 3h-149 q-12 15 -13 26l196 249q6 8 23 8t17 -8v-227q0 -4 5 -4h27q8 1 10 -7t2 -31q0 -1 -2 -3l-2 -2l-2 -1l-35 -1q-3 0 -3 -5v-109q-5 -5 -29 -5z"/>
<glyph glyph-name="onehalf" horiz-adv-x="721" unicode="½" d="M167 638h3q3 0 11 -24q-9 -41 -9 -80v-196q0 -29 8 -47q2 -5 22 -10t29 -5q5 0 5 -15q0 -8 -1 -10q-13 -1 -43 1t-52 2t-52 -2t-44 -1q-4 2 -4 13t4 11q10 0 30 5t22 10q6 16 6 31v183q0 22 -2 34t-6 14q-3 3 -9 3q-5 0 -48 -15q-1 0 -3 2t-4 2t-4 2t-2 4q-1 2 -1 6 q-1 6 9 10t48 22t87 50zM556 618l-348 -632q0 -2 -4 -2q-19 0 -34 19q-2 2 -2 4v3l1 1l348 632q1 2 5 2q4 -1 20 -9t15 -14q0 -2 -1 -3v-1zM630 56q18 0 28 10t14 22q4 10 5 10q14 0 20 -8q-3 -10 -20 -90h-252q-11 6 -11 22q0 5 3 11q5 6 31 33q26 26 35 38q10 12 32 37 q23 25 33 40t24 35t18 36q6 16 6 27q0 23 -16 42t-45 19q-18 0 -39 -12t-34 -28q-2 -3 -8 -1t-7 5q-8 23 -6 25q21 26 55 45t67 19q46 0 78 -31t32 -74q1 -28 -9 -52t-32 -49t-38 -41t-50 -44t-46 -39q-1 -1 -1 -4t2 -3h131z"/>
<glyph glyph-name="threequarters" horiz-adv-x="694" unicode="¾" d="M228 -16q-10 0 -23 9t-13 14l1 3l348 632q1 3 5 3q15 0 31 -17q2 -2 3 -5t0 -5v-1l-348 -631q0 -2 -4 -2zM557 163v129q-1 4 -5 4q-25 -30 -55 -69t-48 -61q-3 -3 2 -7q1 -1 2 -1h98q6 0 6 5zM597 -5q-19 0 -27 1q-8 0 -10 2t-3 6v108q-1 3 -5 3h-149q-12 15 -13 26 l196 249q6 8 23 8t17 -8v-227q0 -4 5 -4h27q8 1 10 -7t2 -31q0 -1 -2 -3l-2 -2l-2 -1l-35 -1q-3 0 -3 -5v-109q-5 -5 -29 -5zM173 647q28 1 56 -21t28 -57q0 -21 -11 -37q-12 -16 -22 -25q-10 -8 -34 -23q28 0 62 -28t34 -71q0 -63 -54 -101t-124 -37q-29 1 -53 9t-30 17v7 q1 15 9 26t20 11q14 0 35 -17t38 -17q35 1 62 23t27 65q0 35 -18 54t-48 19q-4 0 -51 -6q-9 9 -9 19q0 8 9 11q39 8 65 30t26 56q0 18 -15 30t-36 12q-19 0 -35 -10t-26 -18q-10 -10 -13 -10q-5 0 -9 16t-4 19q44 54 121 54z"/>
<glyph glyph-name="questiondown" horiz-adv-x="310" unicode="¿" d="M284 371q0 -25 -17 -41t-41 -16t-41 16t-17 41q0 23 17 41t41 18t41 -18t17 -41zM231 -142q15 0 31 -9t16 -31q0 -21 -8 -34q-20 -10 -50 -10q-36 0 -80 21t-80 65t-36 99q0 53 22 87t79 66q21 12 47 33t31 29q10 18 10 69q0 13 20 13q13 0 13 -8v-46t1 -48q1 -12 -1 -22 t-6 -20t-6 -17t-11 -15t-11 -12t-12 -11t-13 -9q-1 -2 -13 -10t-13 -7q-25 -16 -35 -23q-10 -8 -26 -20q-14 -12 -20 -24t-6 -24q0 -43 24 -66t56 -23q30 -1 48 3t29 4z"/>
<glyph glyph-name="Agrave" d="M249 299q52 -2 71 -2q44 0 91 3l3 5l-81 221l-86 -223q0 -4 2 -4zM365 660l200 -528q18 -47 29 -72q6 -15 31 -24.5t37 -9.5q4 0 4 -19q0 -4 -2 -10q-100 5 -110 5q-1 0 -116 -5q-4 4 -3.5 16.5t4.5 12.5q12 0 30 5t21 13q2 8 2 16q0 13 -3.5 30.5t-6.5 27.5l-4 11 l-41 113q-3 4 -6 4q-39 3 -76 3q-52 0 -127 -5l-5 -3l-43 -110q-17 -50 -17 -69q0 -14 8 -20q9 -7 29 -11.5t29 -4.5q3 0 3.5 -12t-1.5 -17q-100 5 -103 5q-20 0 -35 -1t-33.5 -2t-35.5 -2q-4 4 -4 15q0 14 4 14q12 0 31 5t26 14q21 27 47 94l174 447q2 5 5.5 16t5.5 16.5 t6 14t7 12.5t7.5 9t10 7t12.5 2zM391 741q0 -13 -10 -13q-19 0 -99 40t-80 63q0 11 13 20.5t39 9.5q12 0 18 -3q27 -20 73 -65t46 -52z" unicode="À"/>
<glyph glyph-name="Aacute" d="M249 299q52 -2 71 -2q44 0 91 3l3 5l-81 221l-86 -223q0 -4 2 -4zM365 660l200 -528q18 -47 29 -72q6 -15 31 -24.5t37 -9.5q4 0 4 -19q0 -4 -2 -10q-100 5 -110 5q-1 0 -116 -5q-4 4 -3.5 16.5t4.5 12.5q12 0 30 5t21 13q2 8 2 16q0 13 -3.5 30.5t-6.5 27.5l-4 11 l-41 113q-3 4 -6 4q-39 3 -76 3q-52 0 -127 -5l-5 -3l-43 -110q-17 -50 -17 -69q0 -14 8 -20q9 -7 29 -11.5t29 -4.5q3 0 3.5 -12t-1.5 -17q-100 5 -103 5q-20 0 -35 -1t-33.5 -2t-35.5 -2q-4 4 -4 15q0 14 4 14q12 0 31 5t26 14q21 27 47 94l174 447q2 5 5.5 16t5.5 16.5 t6 14t7 12.5t7.5 9t10 7t12.5 2zM301 741q0 7 46 52t73 65q6 3 18 3q26 0 39 -9.5t13 -20.5q0 -23 -80 -63t-99 -40q-10 0 -10 13z" unicode="Á"/>
<glyph glyph-name="Acircumflex" d="M249 299q52 -2 71 -2q44 0 91 3l3 5l-81 221l-86 -223q0 -4 2 -4zM365 660l200 -528q18 -47 29 -72q6 -15 31 -24.5t37 -9.5q4 0 4 -19q0 -4 -2 -10q-100 5 -110 5q-1 0 -116 -5q-4 4 -3.5 16.5t4.5 12.5q12 0 30 5t21 13q2 8 2 16q0 13 -3.5 30.5t-6.5 27.5l-4 11 l-41 113q-3 4 -6 4q-39 3 -76 3q-52 0 -127 -5l-5 -3l-43 -110q-17 -50 -17 -69q0 -14 8 -20q9 -7 29 -11.5t29 -4.5q3 0 3.5 -12t-1.5 -17q-100 5 -103 5q-20 0 -35 -1t-33.5 -2t-35.5 -2q-4 4 -4 15q0 14 4 14q12 0 31 5t26 14q21 27 47 94l174 447q2 5 5.5 16t5.5 16.5 t6 14t7 12.5t7.5 9t10 7t12.5 2zM460 698q-19 0 -105 58q-24 -18 -59 -38t-44 -20q-10 0 -10 20q4 4 25.5 23.5t35.5 32.5q28 26 42 46q7 8 10 8q6 0 11 -8q21 -28 41 -48q13 -12 28.5 -25.5t24.5 -20.5t9 -8q0 -20 -9 -20z" unicode="Â"/>
<glyph glyph-name="Atilde" d="M434 766q36 0 51 34q2 1 6 1q9 0 9 -16q0 -28 -27.5 -49t-50.5 -21q-29 0 -71 21.5t-69 21.5q-33 0 -49 -35q-2 -1 -6 -1q-9 0 -9 16q0 28 27.5 49t50.5 21q28 0 69 -21t69 -21zM249 299q52 -2 71 -2q44 0 91 3l3 5l-81 221l-86 -223q0 -4 2 -4zM365 660l200 -528 q18 -47 29 -72q6 -15 31 -24.5t37 -9.5q4 0 4 -19q0 -4 -2 -10q-100 5 -110 5q-1 0 -116 -5q-4 4 -3.5 16.5t4.5 12.5q12 0 30 5t21 13q2 8 2 16q0 13 -3.5 30.5t-6.5 27.5l-4 11l-41 113q-3 4 -6 4q-39 3 -76 3q-52 0 -127 -5l-5 -3l-43 -110q-17 -50 -17 -69q0 -14 8 -20 q9 -7 29 -11.5t29 -4.5q3 0 3.5 -12t-1.5 -17q-100 5 -103 5q-20 0 -35 -1t-33.5 -2t-35.5 -2q-4 4 -4 15q0 14 4 14q12 0 31 5t26 14q21 27 47 94l174 447q2 5 5.5 16t5.5 16.5t6 14t7 12.5t7.5 9t10 7t12.5 2z" unicode="Ã"/>
<glyph glyph-name="Adieresis" d="M249 299q52 -2 71 -2q44 0 91 3l3 5l-81 221l-86 -223q0 -4 2 -4zM365 660l200 -528q18 -47 29 -72q6 -15 31 -24.5t37 -9.5q4 0 4 -19q0 -4 -2 -10q-100 5 -110 5q-1 0 -116 -5q-4 4 -3.5 16.5t4.5 12.5q12 0 30 5t21 13q2 8 2 16q0 13 -3.5 30.5t-6.5 27.5l-4 11 l-41 113q-3 4 -6 4q-39 3 -76 3q-52 0 -127 -5l-5 -3l-43 -110q-17 -50 -17 -69q0 -14 8 -20q9 -7 29 -11.5t29 -4.5q3 0 3.5 -12t-1.5 -17q-100 5 -103 5q-20 0 -35 -1t-33.5 -2t-35.5 -2q-4 4 -4 15q0 14 4 14q12 0 31 5t26 14q21 27 47 94l174 447q2 5 5.5 16t5.5 16.5 t6 14t7 12.5t7.5 9t10 7t12.5 2zM217 778q0 21 14.5 35.5t35.5 14.5t35.5 -14.5t14.5 -35.5t-14.5 -35.5t-35.5 -14.5t-35.5 14.5t-14.5 35.5zM398 778q0 21 14.5 35.5t35.5 14.5t35.5 -14.5t14.5 -35.5t-14.5 -35.5t-35.5 -14.5t-35.5 14.5t-14.5 35.5z" unicode="Ä"/>
<glyph glyph-name="Aring" d="M287 299q52 -2 71 -2q44 0 91 3l3 5l-81 221l-86 -223q0 -4 2 -4zM403 660l200 -528q18 -47 29 -72q6 -15 31 -24.5t37 -9.5q4 0 4 -19q0 -4 -2 -10q-100 5 -110 5q-1 0 -116 -5q-4 4 -3.5 16.5t4.5 12.5q12 0 30 5t21 13q2 8 2 16q0 13 -3.5 30.5t-6.5 27.5l-4 11 l-41 113q-3 4 -6 4q-39 3 -76 3q-52 0 -127 -5l-5 -3l-43 -110q-17 -50 -17 -69q0 -14 8 -20q9 -7 29 -11.5t29 -4.5q3 0 3.5 -12t-1.5 -17q-100 5 -103 5q-20 0 -35 -1t-33.5 -2t-35.5 -2q-4 4 -4 15q0 14 4 14q12 0 31 5t26 14q21 27 47 94l174 447q2 5 5.5 16t5.5 16.5 t6 14t7 12.5t7.5 9t10 7t12.5 2zM304 752q0 37 26.5 63t62.5 26t61.5 -26t25.5 -63t-25.5 -63.5t-61.5 -26.5t-62.5 26.5t-26.5 63.5zM337 752q0 -23 16.5 -39.5t39.5 -16.5q22 0 38 16.5t16 39.5t-15.5 39t-38.5 16t-39.5 -16t-16.5 -39z" unicode="Å"/>
<glyph glyph-name="AE" horiz-adv-x="982" unicode="Æ" d="M408 247q-22 0 -99 -5l-5 -3l-69 -110q-29 -50 -33 -69q-3 -13 4 -20q14 -14 54 -14q2 0 0 -12t-5 -17q-60 3 -102 3q-36 0 -105 -3q-1 1 -1 4t1 9q3 16 7 16q44 0 61 17q27 25 69 94l277 447q7 12 7 20q0 12 -16 18t-29 7q-4 0 -4 14q0 11 4 15q49 -2 116 -2q44 0 155 4 t168 4q3 -28 15 -76t14 -60q-5 -5 -18 -5t-14 7q-15 54 -42 70t-74 16h-67q-86 0 -88 -13q-5 -24 -5 -84v-160q0 -6 43 -6h53h40t27 4q14 4 18 5q5 1 11 13q6 11 7 17t7 29q1 7 15 7q12 0 17 -5v-189q-4 -4 -16 -4q-13 0 -16 8q-7 26 -12 40q-6 14 -8 16t-8 7q-13 8 -106 8 q-72 0 -72 -9v-155q0 -65 9 -91q3 -10 68 -10h48q93 0 126 17q15 7 33 35t30 66q2 6 14 6q19 0 25 -6l-15 -42t-17 -46q-6 -18 -13 -40q-7 -23 -9 -38q-57 0 -177 3t-164 3l-118 -5q-4 4 -4 15q0 14 4 14q12 0 38 8t28 15q7 27 7 86v98q0 8 -13 11q-21 3 -76 3zM485 297 q12 0 12 11v215q0 8 -9 8q-4 0 -9 -7l-137 -223q-1 -4 1 -4q52 -2 70 -2q20 0 72 2z"/>
<glyph glyph-name="Ccedilla" horiz-adv-x="656" unicode="Ç" d="M634 183q0 -11 -14 -76.5t-20 -68.5q-73 -44 -239 -44q-132 0 -224.5 97t-92.5 231q0 142 95 243.5t233 101.5q118 0 243 -25q-2 -134 -2 -144q0 -15 -21 -15q-10 0 -13 5q-3 13 -7.5 26.5t-19 35t-35 37t-58 27t-84.5 11.5q-98 0 -167 -86.5t-69 -195.5q0 -81 28 -149 t88.5 -112.5t143.5 -44.5q99 0 153 58q14 15 24.5 39.5t16 41t8.5 16.5q6 0 14.5 -2t13.5 -4zM371 -27h30q23 0 37.5 -17t14.5 -41q0 -40 -32 -64.5t-79 -24.5q-26 0 -40 10q0 2 -2 7.5t-2 9.5q0 6 5.5 11t11.5 5t19.5 -7.5t23.5 -7.5q24 0 37.5 11.5t13.5 27.5 q0 19 -11.5 29.5t-24.5 10.5q-12 0 -31 -8q-2 0 -7.5 6t-4.5 9q3 5 18 27.5t20 32.5h25z"/>
<glyph glyph-name="Egrave" horiz-adv-x="571" unicode="È" d="M152 656q45 0 156 4t167 4q4 -29 15.5 -76.5t13.5 -59.5q-5 -5 -18 -5t-14 7q-15 55 -42 70.5t-74 15.5h-67q-86 0 -88 -13q-5 -24 -5 -84v-160q0 -6 43 -6h53h40.5t26.5 4t18 5t10.5 13t7.5 17.5t7 28.5q1 7 15 7q12 0 17 -5v-189q-4 -4 -16 -4q-13 0 -16 8 q-7 27 -12 40.5t-7.5 16t-8.5 6.5q-13 8 -106 8q-72 0 -72 -9v-155q0 -65 9 -91q3 -10 68 -10h48q93 0 126 17q15 8 33.5 35.5t29.5 65.5q2 6 14 6q19 0 25 -6q-5 -13 -15.5 -41.5t-16.5 -46t-13 -40.5t-9 -38q-51 0 -161 2t-180 2l-121 -3q-3 3 -3 16t3 13q13 0 38.5 7 t30.5 16q7 12 7 94v378q0 59 -7 86q-3 8 -29.5 15t-39.5 7q-4 0 -4 12q0 13 4 17q52 -2 119 -2zM335 741q0 -13 -10 -13q-19 0 -99 40t-80 63q0 11 13 20.5t39 9.5q12 0 18 -3q27 -20 73 -65t46 -52z"/>
<glyph glyph-name="Eacute" horiz-adv-x="571" unicode="É" d="M152 656q45 0 156 4t167 4q4 -29 15.5 -76.5t13.5 -59.5q-5 -5 -18 -5t-14 7q-15 55 -42 70.5t-74 15.5h-67q-86 0 -88 -13q-5 -24 -5 -84v-160q0 -6 43 -6h53h40.5t26.5 4t18 5t10.5 13t7.5 17.5t7 28.5q1 7 15 7q12 0 17 -5v-189q-4 -4 -16 -4q-13 0 -16 8 q-7 27 -12 40.5t-7.5 16t-8.5 6.5q-13 8 -106 8q-72 0 -72 -9v-155q0 -65 9 -91q3 -10 68 -10h48q93 0 126 17q15 8 33.5 35.5t29.5 65.5q2 6 14 6q19 0 25 -6q-5 -13 -15.5 -41.5t-16.5 -46t-13 -40.5t-9 -38q-51 0 -161 2t-180 2l-121 -3q-3 3 -3 16t3 13q13 0 38.5 7 t30.5 16q7 12 7 94v378q0 59 -7 86q-3 8 -29.5 15t-39.5 7q-4 0 -4 12q0 13 4 17q52 -2 119 -2zM244 741q0 7 46 52t73 65q6 3 18 3q26 0 39 -9.5t13 -20.5q0 -23 -80 -63t-99 -40q-10 0 -10 13z"/>
<glyph glyph-name="Ecircumflex" horiz-adv-x="571" unicode="Ê" d="M152 656q45 0 156 4t167 4q4 -29 15.5 -76.5t13.5 -59.5q-5 -5 -18 -5t-14 7q-15 55 -42 70.5t-74 15.5h-67q-86 0 -88 -13q-5 -24 -5 -84v-160q0 -6 43 -6h53h40.5t26.5 4t18 5t10.5 13t7.5 17.5t7 28.5q1 7 15 7q12 0 17 -5v-189q-4 -4 -16 -4q-13 0 -16 8 q-7 27 -12 40.5t-7.5 16t-8.5 6.5q-13 8 -106 8q-72 0 -72 -9v-155q0 -65 9 -91q3 -10 68 -10h48q93 0 126 17q15 8 33.5 35.5t29.5 65.5q2 6 14 6q19 0 25 -6q-5 -13 -15.5 -41.5t-16.5 -46t-13 -40.5t-9 -38q-51 0 -161 2t-180 2l-121 -3q-3 3 -3 16t3 13q13 0 38.5 7 t30.5 16q7 12 7 94v378q0 59 -7 86q-3 8 -29.5 15t-39.5 7q-4 0 -4 12q0 13 4 17q52 -2 119 -2zM388 698q-19 0 -105 58q-24 -18 -59 -38t-44 -20q-10 0 -10 20q4 4 25.5 23.5t35.5 32.5q28 26 42 46q7 8 10 8q6 0 11 -8q21 -28 41 -48q13 -12 28.5 -25.5t24.5 -20.5t9 -8 q0 -20 -9 -20z"/>
<glyph glyph-name="Edieresis" horiz-adv-x="571" unicode="Ë" d="M152 656q45 0 156 4t167 4q4 -29 15.5 -76.5t13.5 -59.5q-5 -5 -18 -5t-14 7q-15 55 -42 70.5t-74 15.5h-67q-86 0 -88 -13q-5 -24 -5 -84v-160q0 -6 43 -6h53h40.5t26.5 4t18 5t10.5 13t7.5 17.5t7 28.5q1 7 15 7q12 0 17 -5v-189q-4 -4 -16 -4q-13 0 -16 8 q-7 27 -12 40.5t-7.5 16t-8.5 6.5q-13 8 -106 8q-72 0 -72 -9v-155q0 -65 9 -91q3 -10 68 -10h48q93 0 126 17q15 8 33.5 35.5t29.5 65.5q2 6 14 6q19 0 25 -6q-5 -13 -15.5 -41.5t-16.5 -46t-13 -40.5t-9 -38q-51 0 -161 2t-180 2l-121 -3q-3 3 -3 16t3 13q13 0 38.5 7 t30.5 16q7 12 7 94v378q0 59 -7 86q-3 8 -29.5 15t-39.5 7q-4 0 -4 12q0 13 4 17q52 -2 119 -2zM144 778q0 21 14.5 35.5t35.5 14.5t35.5 -14.5t14.5 -35.5t-14.5 -35.5t-35.5 -14.5t-35.5 14.5t-14.5 35.5zM325 778q0 21 14.5 35.5t35.5 14.5t35.5 -14.5t14.5 -35.5 t-14.5 -35.5t-35.5 -14.5t-35.5 14.5t-14.5 35.5z"/>
<glyph glyph-name="Igrave" horiz-adv-x="318" unicode="Ì" d="M116 523q0 62 -7 89q-3 8 -28.5 14.5t-38.5 6.5q-4 0 -4 13q0 12 4 16q115 -5 120 -5q16 0 116 5q2 -6 2 -15q0 -14 -4 -14q-10 0 -36 -7t-28 -14q-9 -35 -9 -93v-380q0 -58 9 -93q2 -7 28 -13.5t36 -6.5q4 0 4 -15q0 -8 -2 -14q-100 5 -116 5q-5 0 -120 -5q-4 4 -4 15 q0 14 4 14q13 0 38.5 6t28.5 14q7 27 7 89v388zM225 741q0 -13 -10 -13q-19 0 -99 40t-80 63q0 11 13 20.5t39 9.5q12 0 18 -3q27 -20 73 -65t46 -52z"/>
<glyph glyph-name="Iacute" horiz-adv-x="318" unicode="Í" d="M116 523q0 62 -7 89q-3 8 -28.5 14.5t-38.5 6.5q-4 0 -4 13q0 12 4 16q115 -5 120 -5q16 0 116 5q2 -6 2 -15q0 -14 -4 -14q-10 0 -36 -7t-28 -14q-9 -35 -9 -93v-380q0 -58 9 -93q2 -7 28 -13.5t36 -6.5q4 0 4 -15q0 -8 -2 -14q-100 5 -116 5q-5 0 -120 -5q-4 4 -4 15 q0 14 4 14q13 0 38.5 6t28.5 14q7 27 7 89v388zM111 741q0 7 46 52t73 65q6 3 18 3q26 0 39 -9.5t13 -20.5q0 -23 -80 -63t-99 -40q-10 0 -10 13z"/>
<glyph glyph-name="Icircumflex" horiz-adv-x="318" unicode="Î" d="M116 523q0 62 -7 89q-3 8 -28.5 14.5t-38.5 6.5q-4 0 -4 13q0 12 4 16q115 -5 120 -5q16 0 116 5q2 -6 2 -15q0 -14 -4 -14q-10 0 -36 -7t-28 -14q-9 -35 -9 -93v-380q0 -58 9 -93q2 -7 28 -13.5t36 -6.5q4 0 4 -15q0 -8 -2 -14q-100 5 -116 5q-5 0 -120 -5q-4 4 -4 15 q0 14 4 14q13 0 38.5 6t28.5 14q7 27 7 89v388zM270 705q-19 0 -105 58q-24 -18 -59 -38t-44 -20q-10 0 -10 20q4 4 25.5 23.5t35.5 32.5q28 26 42 46q7 8 10 8q6 0 11 -8q21 -28 41 -48q13 -12 28.5 -25.5t24.5 -20.5t9 -8q0 -20 -9 -20z"/>
<glyph glyph-name="Idieresis" horiz-adv-x="318" unicode="Ï" d="M116 523q0 62 -7 89q-3 8 -28.5 14.5t-38.5 6.5q-4 0 -4 13q0 12 4 16q115 -5 120 -5q16 0 116 5q2 -6 2 -15q0 -14 -4 -14q-10 0 -36 -7t-28 -14q-9 -35 -9 -93v-380q0 -58 9 -93q2 -7 28 -13.5t36 -6.5q4 0 4 -15q0 -8 -2 -14q-100 5 -116 5q-5 0 -120 -5q-4 4 -4 15 q0 14 4 14q13 0 38.5 6t28.5 14q7 27 7 89v388zM24 778q0 21 14.5 35.5t35.5 14.5t35.5 -14.5t14.5 -35.5t-14.5 -35.5t-35.5 -14.5t-35.5 14.5t-14.5 35.5zM205 778q0 21 14.5 35.5t35.5 14.5t35.5 -14.5t14.5 -35.5t-14.5 -35.5t-35.5 -14.5t-35.5 14.5t-14.5 35.5z"/>
<glyph glyph-name="Eth" horiz-adv-x="731" unicode="Ð" d="M174 656q36 0 96 1t78 1q163 0 254 -96t91 -226q0 -145 -92 -242t-254 -97q-13 0 -73 2q-40 1 -70 1h-28l-121 -3q-3 3 -3 15q0 14 3 14q13 0 39 7t30 16q7 12 7 94v165h-61q-5 0 -5 13q0 18 6 27h60v173q0 59 -7 86q-4 8 -30 15t-39 7q-4 0 -4 12q0 13 4 17 q52 -2 119 -2zM218 308v-169q0 -42 15 -76q3 -10 53 -15t77 -5q115 -1 175 75t59 222q-1 114 -63 194t-178 80h-5q-108 0 -120 -16q-13 -18 -13 -63v-187h198q6 0 6 -10q0 -16 -6 -30h-198z"/>
<glyph glyph-name="Ntilde" horiz-adv-x="721" unicode="Ñ" d="M434 766q36 0 51 34q2 1 6 1q9 0 9 -16q0 -28 -27.5 -49t-50.5 -21q-29 0 -71 21.5t-69 21.5q-33 0 -49 -35q-2 -1 -6 -1q-9 0 -9 16q0 28 27.5 49t50.5 21q28 0 69 -21t69 -21zM551 524q0 61 -7 88q-3 8 -34.5 15.5t-44.5 7.5q-4 0 -4 11.5t4 15.5q13 -1 52 -3.5 t66 -2.5q26 0 65.5 3t46.5 3q2 -6 2 -15q0 -12 -4 -12q-10 0 -43.5 -8t-35.5 -15q-8 -31 -8 -93v-380q0 -62 3 -140q-4 -4 -19 -4q-17 0 -33 23l-388 550v-427q0 -66 7 -93q2 -7 33.5 -14.5t41.5 -7.5q3 0 3.5 -12t-1.5 -17q-100 5 -115 5l-115 -5q-3 3 -3 15q0 14 3 14 q14 0 45.5 7.5t34.5 16.5q10 26 10 94v393q0 49 -7 75q-3 8 -34 14.5t-45 6.5q-4 0 -4 12.5t4 16.5q78 -2 102 -2q52 0 80 2q37 -68 339 -490q3 17 3 41v311z"/>
<glyph glyph-name="Ograve" horiz-adv-x="728" unicode="Ò" d="M44 328q0 140 93.5 239.5t225.5 99.5t226 -99.5t94 -239.5t-94 -239t-226 -99t-225.5 99t-93.5 239zM348 625q-95 0 -150 -83t-55 -192q0 -80 26 -151t81 -118.5t129 -47.5q64 0 112 41.5t70.5 103t22.5 131.5q0 80 -26 150.5t-81 118t-129 47.5zM416 741q0 -13 -10 -13 q-19 0 -99 40t-80 63q0 11 13 20.5t39 9.5q12 0 18 -3q27 -20 73 -65t46 -52z"/>
<glyph glyph-name="Oacute" horiz-adv-x="728" unicode="Ó" d="M44 328q0 140 93.5 239.5t225.5 99.5t226 -99.5t94 -239.5t-94 -239t-226 -99t-225.5 99t-93.5 239zM348 625q-95 0 -150 -83t-55 -192q0 -80 26 -151t81 -118.5t129 -47.5q64 0 112 41.5t70.5 103t22.5 131.5q0 80 -26 150.5t-81 118t-129 47.5zM306 741q0 7 46 52 t73 65q6 3 18 3q26 0 39 -9.5t13 -20.5q0 -23 -80 -63t-99 -40q-10 0 -10 13z"/>
<glyph glyph-name="Ocircumflex" horiz-adv-x="728" unicode="Ô" d="M44 328q0 140 93.5 239.5t225.5 99.5t226 -99.5t94 -239.5t-94 -239t-226 -99t-225.5 99t-93.5 239zM348 625q-95 0 -150 -83t-55 -192q0 -80 26 -151t81 -118.5t129 -47.5q64 0 112 41.5t70.5 103t22.5 131.5q0 80 -26 150.5t-81 118t-129 47.5zM473 698q-19 0 -105 58 q-24 -18 -59 -38t-44 -20q-10 0 -10 20q4 4 25.5 23.5t35.5 32.5q28 26 42 46q7 8 10 8q6 0 11 -8q21 -28 41 -48q13 -12 28.5 -25.5t24.5 -20.5t9 -8q0 -20 -9 -20z"/>
<glyph glyph-name="Otilde" horiz-adv-x="728" unicode="Õ" d="M44 328q0 140 93.5 239.5t225.5 99.5t226 -99.5t94 -239.5t-94 -239t-226 -99t-225.5 99t-93.5 239zM348 625q-95 0 -150 -83t-55 -192q0 -80 26 -151t81 -118.5t129 -47.5q64 0 112 41.5t70.5 103t22.5 131.5q0 80 -26 150.5t-81 118t-129 47.5zM434 766q36 0 51 34 q2 1 6 1q9 0 9 -16q0 -28 -27.5 -49t-50.5 -21q-29 0 -71 21.5t-69 21.5q-33 0 -49 -35q-2 -1 -6 -1q-9 0 -9 16q0 28 27.5 49t50.5 21q28 0 69 -21t69 -21z"/>
<glyph glyph-name="Odieresis" horiz-adv-x="728" unicode="Ö" d="M44 328q0 140 93.5 239.5t225.5 99.5t226 -99.5t94 -239.5t-94 -239t-226 -99t-225.5 99t-93.5 239zM348 625q-95 0 -150 -83t-55 -192q0 -80 26 -151t81 -118.5t129 -47.5q64 0 112 41.5t70.5 103t22.5 131.5q0 80 -26 150.5t-81 118t-129 47.5zM228 778q0 21 14.5 35.5 t35.5 14.5t35.5 -14.5t14.5 -35.5t-14.5 -35.5t-35.5 -14.5t-35.5 14.5t-14.5 35.5zM409 778q0 21 14.5 35.5t35.5 14.5t35.5 -14.5t14.5 -35.5t-14.5 -35.5t-35.5 -14.5t-35.5 14.5t-14.5 35.5z"/>
<glyph glyph-name="multiply" horiz-adv-x="414" unicode="×" d="M56 60q-5 0 -17 20t-12 28l138 135q1 1 1 3q0 3 -2 5l-137 137q0 10 13 28t18 19q1 0 5 -4l142 -141q2 -2 4 -2l2 1l141 141q3 3 5 3q5 -1 17 -21t12 -28l-135 -135q-1 -1 -1 -3v-2l136 -136q0 -12 -10 -30t-16 -18q-5 0 -8 3l-140 140q-2 2 -4 2t-4 -2l-143 -140 q-3 -3 -5 -3z"/>
<glyph glyph-name="Oslash" horiz-adv-x="696" unicode="Ø" d="M540 667q8 -2 20 -10t9 -12l-29 -46q17 -13 33 -31q94 -100 94 -240t-94 -239t-226 -99q-91 0 -164 47l-32 -50q-9 3 -21 11t-8 12l31 49q-15 14 -31 30q-94 99 -94 239t94 240t225 99q91 0 163 -47zM332 625q-95 0 -150 -83t-55 -192q0 -80 26 -151q15 -42 41 -76 l281 442q-7 7 -14 13q-55 48 -129 47zM500 536l-281 -442q7 -8 15 -14q55 -48 129 -47q64 -1 112 41q49 42 71 104t22 131q0 81 -26 151q-16 42 -42 76z"/>
<glyph glyph-name="Ugrave" horiz-adv-x="719" unicode="Ù" d="M157 657q16 0 116 5q2 -6 2 -14q0 -15 -4 -15q-10 0 -36 -7t-28 -14q-9 -35 -9 -93v-223q0 -113 48 -180t136 -67q171 0 171 225v250q0 61 -7 88q-3 8 -34.5 15.5t-44.5 7.5q-4 0 -4 11.5t4 15.5q13 -1 52 -3.5t66 -2.5q26 0 65.5 3t46.5 3q2 -6 2 -15q0 -12 -4 -12 q-10 0 -43.5 -8t-35.5 -15q-8 -31 -8 -93v-243q0 -155 -65 -215.5t-185 -60.5q-119 0 -183 70t-64 226v227q0 62 -7 89q-3 8 -28.5 14.5t-38.5 6.5q-4 0 -4 13q0 12 4 16q115 -5 120 -5zM423 741q0 -13 -10 -13q-19 0 -99 40t-80 63q0 11 13 20.5t39 9.5q12 0 18 -3 q27 -20 73 -65t46 -52z"/>
<glyph glyph-name="Uacute" horiz-adv-x="719" unicode="Ú" d="M157 657q16 0 116 5q2 -6 2 -14q0 -15 -4 -15q-10 0 -36 -7t-28 -14q-9 -35 -9 -93v-223q0 -113 48 -180t136 -67q171 0 171 225v250q0 61 -7 88q-3 8 -34.5 15.5t-44.5 7.5q-4 0 -4 11.5t4 15.5q13 -1 52 -3.5t66 -2.5q26 0 65.5 3t46.5 3q2 -6 2 -15q0 -12 -4 -12 q-10 0 -43.5 -8t-35.5 -15q-8 -31 -8 -93v-243q0 -155 -65 -215.5t-185 -60.5q-119 0 -183 70t-64 226v227q0 62 -7 89q-3 8 -28.5 14.5t-38.5 6.5q-4 0 -4 13q0 12 4 16q115 -5 120 -5zM307 741q0 7 46 52t73 65q6 3 18 3q26 0 39 -9.5t13 -20.5q0 -23 -80 -63t-99 -40 q-10 0 -10 13z"/>
<glyph glyph-name="Ucircumflex" horiz-adv-x="719" unicode="Û" d="M157 657q16 0 116 5q2 -6 2 -14q0 -15 -4 -15q-10 0 -36 -7t-28 -14q-9 -35 -9 -93v-223q0 -113 48 -180t136 -67q171 0 171 225v250q0 61 -7 88q-3 8 -34.5 15.5t-44.5 7.5q-4 0 -4 11.5t4 15.5q13 -1 52 -3.5t66 -2.5q26 0 65.5 3t46.5 3q2 -6 2 -15q0 -12 -4 -12 q-10 0 -43.5 -8t-35.5 -15q-8 -31 -8 -93v-243q0 -155 -65 -215.5t-185 -60.5q-119 0 -183 70t-64 226v227q0 62 -7 89q-3 8 -28.5 14.5t-38.5 6.5q-4 0 -4 13q0 12 4 16q115 -5 120 -5zM477 698q-19 0 -105 58q-24 -18 -59 -38t-44 -20q-10 0 -10 20q4 4 25.5 23.5 t35.5 32.5q28 26 42 46q7 8 10 8q6 0 11 -8q21 -28 41 -48q13 -12 28.5 -25.5t24.5 -20.5t9 -8q0 -20 -9 -20z"/>
<glyph glyph-name="Udieresis" horiz-adv-x="719" unicode="Ü" d="M157 657q16 0 116 5q2 -6 2 -14q0 -15 -4 -15q-10 0 -36 -7t-28 -14q-9 -35 -9 -93v-223q0 -113 48 -180t136 -67q171 0 171 225v250q0 61 -7 88q-3 8 -34.5 15.5t-44.5 7.5q-4 0 -4 11.5t4 15.5q13 -1 52 -3.5t66 -2.5q26 0 65.5 3t46.5 3q2 -6 2 -15q0 -12 -4 -12 q-10 0 -43.5 -8t-35.5 -15q-8 -31 -8 -93v-243q0 -155 -65 -215.5t-185 -60.5q-119 0 -183 70t-64 226v227q0 62 -7 89q-3 8 -28.5 14.5t-38.5 6.5q-4 0 -4 13q0 12 4 16q115 -5 120 -5zM231 778q0 21 14.5 35.5t35.5 14.5t35.5 -14.5t14.5 -35.5t-14.5 -35.5t-35.5 -14.5 t-35.5 14.5t-14.5 35.5zM412 778q0 21 14.5 35.5t35.5 14.5t35.5 -14.5t14.5 -35.5t-14.5 -35.5t-35.5 -14.5t-35.5 14.5t-14.5 35.5z"/>
<glyph glyph-name="Yacute" horiz-adv-x="649" unicode="Ý" d="M139 656q12 0 132 6q2 -4 1.5 -15.5t-3.5 -11.5q-17 0 -38.5 -8.5t-21.5 -25.5q0 -11 11 -30l112 -212q5 -5 10 2q136 206 136 241q0 11 -20 22t-49 11q-4 0 -4 11.5t4 15.5q111 -6 118 -6q31 0 64 3t42 3q2 -6 2 -15q0 -12 -4 -12q-12 0 -42 -9t-40 -22 q-38 -59 -110.5 -179t-72.5 -134v-152q0 -62 8 -93q2 -7 27 -14.5t34 -7.5q4 0 4 -13q0 -8 -2 -14q-100 5 -112 5q-3 0 -118 -5q-4 4 -4 14q0 13 4 13q12 0 36.5 7t27.5 15q8 31 8 96v125q0 14 -21.5 55.5t-124.5 226.5q-16 30 -24.5 41.5t-24.5 22.5q-11 8 -33 15t-32 7 q-4 0 -4 11q0 12 4 16q16 -1 54 -3.5t66 -2.5zM307 741q0 7 46 52t73 65q6 3 18 3q26 0 39 -9.5t13 -20.5q0 -23 -80 -63t-99 -40q-10 0 -10 13z"/>
<glyph glyph-name="Thorn" horiz-adv-x="556" unicode="Þ" d="M174 657q16 0 116 5q2 -6 2 -15q0 -14 -4 -14q-10 0 -36 -7t-28 -14q-9 -34 -9 -88v-20q0 -7 4 -7q1 -1 13 3t34 8t47 3q33 0 67 -10t64 -30q32 -20 52 -57t20 -86q0 -28 -12 -62t-37 -66t-65 -52t-90 -20q-56 0 -77 28q-6 7 -3 23q1 4 3 3q30 -11 67 -11q50 0 86 42 t36 100q0 71 -31 113t-96 41q-50 0 -70 -7q-12 -4 -12 -37v-284q0 -58 9 -93q2 -8 28 -14t36 -6q4 0 4 -15q0 -8 -2 -14q-100 5 -116 5q-5 0 -120 -5q-4 4 -4 15q0 14 4 14q12 0 38 6t29 14q7 27 7 89v388q0 62 -7 89q-3 8 -29 14t-38 7q-4 0 -4 13q0 12 4 16q115 -5 120 -5 z"/>
<glyph glyph-name="germandbls" horiz-adv-x="578" unicode="ß" d="M463 561q1 -38 -21 -71t-48 -52q-26 -18 -48 -40t-21 -39q-1 -27 25 -48t73 -46q23 -11 37 -21t34 -26q18 -16 28 -36t9 -45q0 -59 -38 -103t-94 -44q-41 0 -75 14t-43 29q0 58 34 58q11 -1 20 -11t15 -23t20 -23q13 -10 30 -11q28 0 46 21t17 58q0 27 -20 48 q-20 22 -49 36t-58 30t-49 44t-20 65q1 27 13 47t30 36l36 32q18 18 30 46t12 63q0 51 -26 81t-72 30q-32 0 -52 -16t-30 -47q-9 -29 -12 -57t-3 -65l1 -340q0 -62 7 -89q2 -8 23 -14t30 -6q3 0 4 -12t-1 -17q-100 5 -102 5q-1 0 -104 -5q-4 4 -4 15q0 14 4 14q13 0 33 6 t22 14q9 35 9 89q1 138 1 226q0 8 -5 8h-53q-3 0 -3 6q-1 9 5 25t10 16h41q5 0 5 6v16q0 125 46 190t125 65q80 -1 128 -33t48 -99z"/>
<glyph glyph-name="agrave" horiz-adv-x="423" unicode="à" d="M234 436q55 0 79 -26.5t24 -85.5v-231q0 -21 11 -35t30 -14q14 0 35 14q4 0 4 -8q0 -13 -5 -21q-41 -35 -70 -35q-23 0 -44 19t-29 40q-1 0 -7.5 -6.5t-17.5 -15t-25.5 -17.5t-34 -15t-39.5 -6q-46 0 -76 24.5t-30 73.5q0 22 11 41.5t26 32t41 25.5t44.5 19.5t48.5 16.5 t42 15q9 3 9 15v75q0 32 -20 49.5t-48 17.5q-30 0 -50 -20.5t-20 -53.5q0 -35 -41 -35q-28 0 -39 19q0 43 63 85.5t128 42.5zM184 50q27 0 52 16.5t25 33.5v103q-8 -4 -39 -14t-48.5 -17.5t-34 -25t-16.5 -40.5q0 -27 17 -41.5t44 -14.5zM87 633q0 4 2.5 8.5t12.5 10t26 5.5 q25 0 34 -9q17 -20 40 -53t38 -57.5t15 -27.5q0 -13 -12 -13q-13 0 -84.5 55.5t-71.5 80.5z"/>
<glyph glyph-name="aacute" horiz-adv-x="423" unicode="á" d="M234 436q55 0 79 -26.5t24 -85.5v-231q0 -21 11 -35t30 -14q14 0 35 14q4 0 4 -8q0 -13 -5 -21q-41 -35 -70 -35q-23 0 -44 19t-29 40q-1 0 -7.5 -6.5t-17.5 -15t-25.5 -17.5t-34 -15t-39.5 -6q-46 0 -76 24.5t-30 73.5q0 22 11 41.5t26 32t41 25.5t44.5 19.5t48.5 16.5 t42 15q9 3 9 15v75q0 32 -20 49.5t-48 17.5q-30 0 -50 -20.5t-20 -53.5q0 -35 -41 -35q-28 0 -39 19q0 43 63 85.5t128 42.5zM184 50q27 0 52 16.5t25 33.5v103q-8 -4 -39 -14t-48.5 -17.5t-34 -25t-16.5 -40.5q0 -27 17 -41.5t44 -14.5zM288 657q16 0 26 -5.5t12.5 -10 t2.5 -8.5q0 -25 -71.5 -80.5t-84.5 -55.5q-12 0 -12 13q0 3 15.5 28.5t38 58t39.5 51.5q9 9 34 9z"/>
<glyph glyph-name="acircumflex" horiz-adv-x="423" unicode="â" d="M234 436q55 0 79 -26.5t24 -85.5v-231q0 -21 11 -35t30 -14q14 0 35 14q4 0 4 -8q0 -13 -5 -21q-41 -35 -70 -35q-23 0 -44 19t-29 40q-1 0 -7.5 -6.5t-17.5 -15t-25.5 -17.5t-34 -15t-39.5 -6q-46 0 -76 24.5t-30 73.5q0 22 11 41.5t26 32t41 25.5t44.5 19.5t48.5 16.5 t42 15q9 3 9 15v75q0 32 -20 49.5t-48 17.5q-30 0 -50 -20.5t-20 -53.5q0 -35 -41 -35q-28 0 -39 19q0 43 63 85.5t128 42.5zM184 50q27 0 52 16.5t25 33.5v103q-8 -4 -39 -14t-48.5 -17.5t-34 -25t-16.5 -40.5q0 -27 17 -41.5t44 -14.5zM296 467q-8 0 -39 22.5t-54 43.5 q-22 -21 -52 -43.5t-38 -22.5q-9 0 -9 23q3 4 22 25.5t32 37.5q22 27 37 53q6 10 8 10q5 0 10 -10q24 -39 36 -55q11 -14 24.5 -29t21.5 -23t8 -9q0 -23 -7 -23z"/>
<glyph glyph-name="atilde" horiz-adv-x="423" unicode="ã" d="M234 436q55 0 79 -26.5t24 -85.5v-231q0 -21 11 -35t30 -14q14 0 35 14q4 0 4 -8q0 -13 -5 -21q-41 -35 -70 -35q-23 0 -44 19t-29 40q-1 0 -7.5 -6.5t-17.5 -15t-25.5 -17.5t-34 -15t-39.5 -6q-46 0 -76 24.5t-30 73.5q0 22 11 41.5t26 32t41 25.5t44.5 19.5t48.5 16.5 t42 15q9 3 9 15v75q0 32 -20 49.5t-48 17.5q-30 0 -50 -20.5t-20 -53.5q0 -35 -41 -35q-28 0 -39 19q0 43 63 85.5t128 42.5zM184 50q27 0 52 16.5t25 33.5v103q-8 -4 -39 -14t-48.5 -17.5t-34 -25t-16.5 -40.5q0 -27 17 -41.5t44 -14.5zM264 548q36 0 51 34q2 1 6 1 q9 0 9 -16q0 -28 -27.5 -49t-50.5 -21q-29 0 -71 21.5t-69 21.5q-33 0 -49 -35q-2 -1 -6 -1q-9 0 -9 16q0 28 27.5 49t50.5 21q28 0 69 -21t69 -21z"/>
<glyph glyph-name="adieresis" horiz-adv-x="423" unicode="ä" d="M234 436q55 0 79 -26.5t24 -85.5v-231q0 -21 11 -35t30 -14q14 0 35 14q4 0 4 -8q0 -13 -5 -21q-41 -35 -70 -35q-23 0 -44 19t-29 40q-1 0 -7.5 -6.5t-17.5 -15t-25.5 -17.5t-34 -15t-39.5 -6q-46 0 -76 24.5t-30 73.5q0 22 11 41.5t26 32t41 25.5t44.5 19.5t48.5 16.5 t42 15q9 3 9 15v75q0 32 -20 49.5t-48 17.5q-30 0 -50 -20.5t-20 -53.5q0 -35 -41 -35q-28 0 -39 19q0 43 63 85.5t128 42.5zM184 50q27 0 52 16.5t25 33.5v103q-8 -4 -39 -14t-48.5 -17.5t-34 -25t-16.5 -40.5q0 -27 17 -41.5t44 -14.5zM107 595q20 0 34.5 -15t14.5 -35 t-15 -34t-35 -14t-35 14.5t-15 34.5t15.5 34.5t35.5 14.5zM290 595q20 0 34.5 -15t14.5 -35t-15 -34t-35 -14t-35 14.5t-15 34.5t15.5 34.5t35.5 14.5z"/>
<glyph glyph-name="aring" horiz-adv-x="423" unicode="å" d="M234 436q55 0 79 -26.5t24 -85.5v-231q0 -21 11 -35t30 -14q14 0 35 14q4 0 4 -8q0 -13 -5 -21q-41 -35 -70 -35q-23 0 -44 19t-29 40q-1 0 -7.5 -6.5t-17.5 -15t-25.5 -17.5t-34 -15t-39.5 -6q-46 0 -76 24.5t-30 73.5q0 22 11 41.5t26 32t41 25.5t44.5 19.5t48.5 16.5 t42 15q9 3 9 15v75q0 32 -20 49.5t-48 17.5q-30 0 -50 -20.5t-20 -53.5q0 -35 -41 -35q-28 0 -39 19q0 43 63 85.5t128 42.5zM184 50q27 0 52 16.5t25 33.5v103q-8 -4 -39 -14t-48.5 -17.5t-34 -25t-16.5 -40.5q0 -27 17 -41.5t44 -14.5zM117 587q0 37 26 63t62 26t61.5 -26 t25.5 -63t-25.5 -63.5t-61.5 -26.5t-62 26.5t-26 63.5zM150 587q0 -23 16 -39.5t39 -16.5q22 0 38 16.5t16 39.5t-15.5 39t-38.5 16t-39 -16t-16 -39z"/>
<glyph glyph-name="ae" horiz-adv-x="675" unicode="æ" d="M245 436q33 0 60 -14t36 -40q54 54 127 54q46 0 80 -16t51 -44t25 -55t7 -56q-1 -5 -1 -9t-1 -6q-1 -3 -1 -5q0 -1 -4 -3l-2 -2l-5 -2h-5l-4 -1h-6q-101 -8 -239 -15q-8 0 -8 -8q-1 -64 43 -110t106 -46q24 0 46 6t34 11q12 7 25 15t14 8q6 0 6 -13t-7 -20 q-60 -71 -142 -71q-105 0 -162 84q-24 -29 -68 -57t-94 -28q-46 1 -76 25t-30 73q0 33 22 61t56 44q34 18 68 28t67 17q9 1 9 15v84q0 26 -20 42t-48 16q-30 0 -50 -20t-20 -54q0 -35 -41 -35q-28 0 -39 19q0 44 63 86t128 42zM464 399q-48 0 -78 -45t-30 -87q0 -6 6 -6 q41 3 111 9t76 8q5 1 5 9q0 27 -27 69t-63 43zM272 100v103q-138 -26 -138 -97q0 -28 17 -42t44 -14t52 16t25 34z"/>
<glyph glyph-name="ccedilla" horiz-adv-x="405" unicode="ç" d="M231 436q110 0 152 -51q0 -67 -37 -67q-17 0 -26 7.5t-23 27.5q-31 46 -74 46q-41 0 -74.5 -39t-33.5 -116q0 -80 39.5 -133t109.5 -53q21 0 40 4t32.5 9.5t23 11t16.5 10.5l7 5q6 0 6 -13q0 -8 -6 -18q-20 -28 -59 -50.5t-85 -22.5q-83 0 -142.5 62.5t-59.5 152.5 q0 92 50 159.5t144 67.5zM219 -23h25q19 0 31.5 -14.5t12.5 -34.5q0 -34 -27 -55t-67 -21q-21 0 -34 9q0 1 -1.5 5.5t-1.5 8.5q0 5 4.5 9.5t9.5 4.5q6 0 17 -6.5t20 -6.5q20 0 31.5 9.5t11.5 23.5q0 16 -10 25t-21 9q-9 0 -26 -7q-2 0 -6.5 5t-3.5 8q4 6 16 24.5t16 26.5h21 z"/>
<glyph glyph-name="egrave" horiz-adv-x="430" unicode="è" d="M235 436q46 0 81 -17.5t53.5 -45t27 -56t8.5 -56.5q0 -20 -6 -24.5t-23 -4.5h-252q-8 0 -8 -5q0 -63 38 -116t110 -53q21 0 40 4t32.5 9.5t23 11t16.5 10.5l7 5q6 0 6 -13q0 -8 -6 -18q-20 -28 -59 -50.5t-85 -22.5q-83 0 -142.5 62.5t-59.5 152.5q0 105 56.5 166 t141.5 61zM225 399q-52 0 -79.5 -44.5t-27.5 -73.5q0 -7 6 -7h195q5 0 5 10q0 32 -27 73.5t-72 41.5zM105 633q0 4 2.5 8.5t12.5 10t26 5.5q25 0 34 -9q17 -20 40 -53t38 -57.5t15 -27.5q0 -13 -12 -13q-13 0 -84.5 55.5t-71.5 80.5z"/>
<glyph glyph-name="eacute" horiz-adv-x="430" unicode="é" d="M235 436q46 0 81 -17.5t53.5 -45t27 -56t8.5 -56.5q0 -20 -6 -24.5t-23 -4.5h-252q-8 0 -8 -5q0 -63 38 -116t110 -53q21 0 40 4t32.5 9.5t23 11t16.5 10.5l7 5q6 0 6 -13q0 -8 -6 -18q-20 -28 -59 -50.5t-85 -22.5q-83 0 -142.5 62.5t-59.5 152.5q0 105 56.5 166 t141.5 61zM225 399q-52 0 -79.5 -44.5t-27.5 -73.5q0 -7 6 -7h195q5 0 5 10q0 32 -27 73.5t-72 41.5zM300 657q16 0 26 -5.5t12.5 -10t2.5 -8.5q0 -25 -71.5 -80.5t-84.5 -55.5q-12 0 -12 13q0 3 15.5 28.5t38 58t39.5 51.5q9 9 34 9z"/>
<glyph glyph-name="ecircumflex" horiz-adv-x="430" unicode="ê" d="M318 467q-8 0 -39 22.5t-54 43.5q-22 -21 -52 -43.5t-38 -22.5q-9 0 -9 23q3 4 22 25.5t32 37.5q22 27 37 53q6 10 8 10q5 0 10 -10q24 -39 36 -55q11 -14 24.5 -29t21.5 -23t8 -9q0 -23 -7 -23zM235 436q46 0 81 -17.5t53.5 -45t27 -56t8.5 -56.5q0 -20 -6 -24.5 t-23 -4.5h-252q-8 0 -8 -5q0 -63 38 -116t110 -53q21 0 40 4t32.5 9.5t23 11t16.5 10.5l7 5q6 0 6 -13q0 -8 -6 -18q-20 -28 -59 -50.5t-85 -22.5q-83 0 -142.5 62.5t-59.5 152.5q0 105 56.5 166t141.5 61zM225 399q-52 0 -79.5 -44.5t-27.5 -73.5q0 -7 6 -7h195q5 0 5 10 q0 32 -27 73.5t-72 41.5z"/>
<glyph glyph-name="edieresis" horiz-adv-x="430" unicode="ë" d="M235 436q46 0 81 -17.5t53.5 -45t27 -56t8.5 -56.5q0 -20 -6 -24.5t-23 -4.5h-252q-8 0 -8 -5q0 -63 38 -116t110 -53q21 0 40 4t32.5 9.5t23 11t16.5 10.5l7 5q6 0 6 -13q0 -8 -6 -18q-20 -28 -59 -50.5t-85 -22.5q-83 0 -142.5 62.5t-59.5 152.5q0 105 56.5 166 t141.5 61zM225 399q-52 0 -79.5 -44.5t-27.5 -73.5q0 -7 6 -7h195q5 0 5 10q0 32 -27 73.5t-72 41.5zM137 595q20 0 34.5 -15t14.5 -35t-15 -34t-35 -14t-35 14.5t-15 34.5t15.5 34.5t35.5 14.5zM320 595q20 0 34.5 -15t14.5 -35t-15 -34t-35 -14t-35 14.5t-15 34.5 t15.5 34.5t35.5 14.5z"/>
<glyph glyph-name="igrave" horiz-adv-x="282" unicode="ì" d="M178 135q0 -58 8 -89q2 -7 26 -13.5t34 -6.5q3 0 4 -12v-7q0 -6 -1 -10q-100 5 -107 5q-6 0 -109 -5q-4 4 -4 16.5t4 12.5q12 0 35.5 6.5t25.5 13.5q7 29 7 70v189q0 39 -14 54q-10 12 -24.5 16.5t-24 4.5t-9.5 2q0 24 6 25q106 16 138 26q1 1 3 1h2q4 0 5 -8.5t0 -12.5 q-5 -40 -5 -72v-206zM13 633q0 4 2.5 8.5t12.5 10t26 5.5q25 0 34 -9q17 -20 40 -53t38 -57.5t15 -27.5q0 -13 -12 -13q-13 0 -84.5 55.5t-71.5 80.5z"/>
<glyph glyph-name="iacute" horiz-adv-x="282" unicode="í" d="M178 135q0 -58 8 -89q2 -7 26 -13.5t34 -6.5q3 0 4 -12v-7q0 -6 -1 -10q-100 5 -107 5q-6 0 -109 -5q-4 4 -4 16.5t4 12.5q12 0 35.5 6.5t25.5 13.5q7 29 7 70v189q0 39 -14 54q-10 12 -24.5 16.5t-24 4.5t-9.5 2q0 24 6 25q106 16 138 26q1 1 3 1h2q4 0 5 -8.5t0 -12.5 q-5 -40 -5 -72v-206zM198 657q16 0 26 -5.5t12.5 -10t2.5 -8.5q0 -25 -71.5 -80.5t-84.5 -55.5q-12 0 -12 13q0 3 15.5 28.5t38 58t39.5 51.5q9 9 34 9z"/>
<glyph glyph-name="icircumflex" horiz-adv-x="282" unicode="î" d="M223 467q-8 0 -39 22.5t-54 43.5q-22 -21 -52 -43.5t-38 -22.5q-9 0 -9 23q3 4 22 25.5t32 37.5q22 27 37 53q6 10 8 10q5 0 10 -10q24 -39 36 -55q11 -14 24.5 -29t21.5 -23t8 -9q0 -23 -7 -23zM178 135q0 -58 8 -89q2 -7 26 -13.5t34 -6.5q3 0 4 -12v-7q0 -6 -1 -10 q-100 5 -107 5q-6 0 -109 -5q-4 4 -4 16.5t4 12.5q12 0 35.5 6.5t25.5 13.5q7 29 7 70v189q0 39 -14 54q-10 12 -24.5 16.5t-24 4.5t-9.5 2q0 24 6 25q106 16 138 26q1 1 3 1h2q4 0 5 -8.5t0 -12.5q-5 -40 -5 -72v-206z"/>
<glyph glyph-name="idieresis" horiz-adv-x="341" unicode="ï" d="M221 135q0 -58 8 -89q2 -7 26 -13.5t34 -6.5q3 0 4 -12v-7q0 -6 -1 -10q-100 5 -107 5q-6 0 -109 -5q-4 4 -4 16.5t4 12.5q12 0 35.5 6.5t25.5 13.5q7 29 7 70v189q0 39 -14 54q-10 12 -24.5 16.5t-24 4.5t-9.5 2q0 24 6 25q106 16 138 26q1 1 3 1h2q4 0 5 -8.5t0 -12.5 q-5 -40 -5 -72v-206zM112 595q20 0 34.5 -15t14.5 -35t-15 -34t-35 -14t-35 14.5t-15 34.5t15.5 34.5t35.5 14.5zM272 595q20 0 34.5 -15t14.5 -35t-15 -34t-35 -14t-35 14.5t-15 34.5t15.5 34.5t35.5 14.5z"/>
<glyph glyph-name="eth" horiz-adv-x="514" unicode="ð" d="M230 398q-52 0 -84 -52t-32 -124q0 -74 39 -132t93 -58q56 0 88 54t31 132q0 95 -19 120q-46 60 -116 60zM243 438q29 0 59 -9t42 -21q-14 69 -78 136q-17 18 -39 35l-108 -70q-18 21 -18 29q0 2 1 3l93 60q-52 34 -123 63q0 6 4 15t10 9q53 -12 104 -36q24 -11 46 -24 l120 77q19 -23 19 -29q0 -1 -1 -2l-105 -68q10 -7 20 -15q48 -38 84 -85q35 -47 57 -111t22 -135q0 -112 -56 -190t-141 -77q-99 -1 -163 67t-64 155q0 83 63 153t152 70z"/>
<glyph glyph-name="ntilde" horiz-adv-x="543" unicode="ñ" d="M322 438q70 0 98 -50t28 -162v-91q0 -58 8 -89q2 -7 26 -13.5t34 -6.5q3 0 4 -12v-7q0 -6 -1 -10q-100 5 -107 5q-2 0 -105 -5q-4 4 -4 16.5t4 12.5q12 0 33.5 6.5t23.5 13.5q7 29 7 70v100q0 93 -24 127t-78 34q-32 0 -61.5 -23.5t-29.5 -42.5v-176q0 -58 8 -89 q2 -7 26 -13.5t34 -6.5q3 0 4 -12t-1 -17q-100 5 -107 5q-6 0 -109 -5q-4 4 -4 16.5t4 12.5q12 0 35.5 6.5t25.5 13.5q7 29 7 70v189q0 39 -14 54q-10 12 -24.5 16.5t-24 4.5t-9.5 2q0 24 6 25q106 16 138 26q1 1 3 1h2q4 0 5 -8.5t0 -12.5q-4 -28 -4 -40q0 -4 2 -4q1 0 3 2 q23 24 62.5 45.5t75.5 21.5zM324 550q36 0 51 34q2 1 6 1q9 0 9 -16q0 -28 -27.5 -49t-50.5 -21q-29 0 -71 21.5t-69 21.5q-33 0 -49 -35q-2 -1 -6 -1q-9 0 -9 16q0 28 27.5 49t50.5 21q28 0 69 -21t69 -21z"/>
<glyph glyph-name="ograve" horiz-adv-x="510" unicode="ò" d="M254 437q90 0 154 -65t64 -156q0 -92 -62.5 -157.5t-153.5 -65.5t-155 65.5t-64 157.5q0 93 62 157t155 64zM243 398q-53 0 -86.5 -48.5t-33.5 -118.5q0 -82 42.5 -140.5t99.5 -58.5q53 0 87 50t34 120q0 81 -43 138.5t-100 57.5zM158 633q0 4 2.5 8.5t12.5 10t26 5.5 q25 0 34 -9q17 -20 40 -53t38 -57.5t15 -27.5q0 -13 -12 -13q-13 0 -84.5 55.5t-71.5 80.5z"/>
<glyph glyph-name="oacute" horiz-adv-x="510" unicode="ó" d="M254 437q90 0 154 -65t64 -156q0 -92 -62.5 -157.5t-153.5 -65.5t-155 65.5t-64 157.5q0 93 62 157t155 64zM243 398q-53 0 -86.5 -48.5t-33.5 -118.5q0 -82 42.5 -140.5t99.5 -58.5q53 0 87 50t34 120q0 81 -43 138.5t-100 57.5zM323 657q16 0 26 -5.5t12.5 -10 t2.5 -8.5q0 -25 -71.5 -80.5t-84.5 -55.5q-12 0 -12 13q0 3 15.5 28.5t38 58t39.5 51.5q9 9 34 9z"/>
<glyph glyph-name="ocircumflex" horiz-adv-x="510" unicode="ô" d="M344 467q-8 0 -39 22.5t-54 43.5q-22 -21 -52 -43.5t-38 -22.5q-9 0 -9 23q3 4 22 25.5t32 37.5q22 27 37 53q6 10 8 10q5 0 10 -10q24 -39 36 -55q11 -14 24.5 -29t21.5 -23t8 -9q0 -23 -7 -23zM254 437q90 0 154 -65t64 -156q0 -92 -62.5 -157.5t-153.5 -65.5 t-155 65.5t-64 157.5q0 93 62 157t155 64zM243 398q-53 0 -86.5 -48.5t-33.5 -118.5q0 -82 42.5 -140.5t99.5 -58.5q53 0 87 50t34 120q0 81 -43 138.5t-100 57.5z"/>
<glyph glyph-name="otilde" horiz-adv-x="510" unicode="õ" d="M321 549q36 0 51 34q2 1 6 1q9 0 9 -16q0 -28 -27.5 -49t-50.5 -21q-29 0 -71 21.5t-69 21.5q-33 0 -49 -35q-2 -1 -6 -1q-9 0 -9 16q0 28 27.5 49t50.5 21q28 0 69 -21t69 -21zM254 437q90 0 154 -65t64 -156q0 -92 -62.5 -157.5t-153.5 -65.5t-155 65.5t-64 157.5 q0 93 62 157t155 64zM243 398q-53 0 -86.5 -48.5t-33.5 -118.5q0 -82 42.5 -140.5t99.5 -58.5q53 0 87 50t34 120q0 81 -43 138.5t-100 57.5z"/>
<glyph glyph-name="odieresis" horiz-adv-x="510" unicode="ö" d="M254 437q90 0 154 -65t64 -156q0 -92 -62.5 -157.5t-153.5 -65.5t-155 65.5t-64 157.5q0 93 62 157t155 64zM243 398q-53 0 -86.5 -48.5t-33.5 -118.5q0 -82 42.5 -140.5t99.5 -58.5q53 0 87 50t34 120q0 81 -43 138.5t-100 57.5zM163 595q20 0 34.5 -15t14.5 -35 t-15 -34t-35 -14t-35 14.5t-15 34.5t15.5 34.5t35.5 14.5zM346 595q20 0 34.5 -15t14.5 -35t-15 -34t-35 -14t-35 14.5t-15 34.5t15.5 34.5t35.5 14.5z"/>
<glyph glyph-name="divide" horiz-adv-x="528" unicode="÷" d="M28 224q0 10 4 32t10 22h449q7 -1 7 -10q0 -14 -8 -46q-1 -2 -3 -4t-3 -2l-2 -1h-448l-4 2q-2 3 -2 7zM262 5q-20 0 -34 13t-15 34v4q0 19 15 34t34 15q20 1 34 -13t15 -35v-2q0 -18 -15 -34t-34 -16zM262 390q-20 0 -34 12t-15 33v4q0 19 15 33t34 15q20 0 34 -12 t15 -32v-5q0 -18 -15 -33t-34 -15z"/>
<glyph glyph-name="oslash" horiz-adv-x="533" unicode="ø" d="M256 32q53 0 87 50t34 120q0 73 -35 127l-166 -261q50 -32 80 -36zM128 -8q-30 15 -27 21l15 24q-13 9 -24 21q-64 66 -64 158q0 93 62 157t155 64q60 0 108 -29l18 29q30 -13 27 -20l-18 -28q10 -8 19 -17q64 -65 64 -156q-1 -92 -63 -158t-153 -65q-56 0 -102 25z M320 357q-38 41 -86 41q-52 0 -86 -48t-34 -119q0 -79 39 -136z"/>
<glyph glyph-name="ugrave" horiz-adv-x="517" unicode="ù" d="M435 341v-200q0 -43 7 -76q2 -7 11 -11t19 -5t20 -1l9 -1q3 -1 3 -11q0 -3 -2.5 -9.5t-5.5 -6.5q-15 -1 -33.5 -4t-34.5 -7t-30 -8t-22 -7l-9 -2q-8 0 -8 16v51l-2 5q-66 -71 -131 -71q-37 0 -63.5 18.5t-39 49t-17.5 59t-5 59.5v126q0 39 -14 54q-10 12 -24.5 16.5 t-24 4.5t-9.5 2q0 24 6 25q106 16 138 26q1 1 3 1h2q4 0 5 -8.5t0 -12.5q-6 -48 -6 -74v-135q0 -77 23 -113.5t75 -36.5q30 0 57 23.5t27 40.5v187q0 39 -14 54q-10 12 -24.5 16.5t-24 4.5t-9.5 2q0 24 6 25q106 16 138 26q1 1 3 1h2q4 0 5 -8.5t0 -12.5q-6 -48 -6 -72z M153 633q0 4 2.5 8.5t12.5 10t26 5.5q25 0 34 -9q17 -20 40 -53t38 -57.5t15 -27.5q0 -13 -12 -13q-13 0 -84.5 55.5t-71.5 80.5z"/>
<glyph glyph-name="uacute" horiz-adv-x="517" unicode="ú" d="M435 341v-200q0 -43 7 -76q2 -7 11 -11t19 -5t20 -1l9 -1q3 -1 3 -11q0 -3 -2.5 -9.5t-5.5 -6.5q-15 -1 -33.5 -4t-34.5 -7t-30 -8t-22 -7l-9 -2q-8 0 -8 16v51l-2 5q-66 -71 -131 -71q-37 0 -63.5 18.5t-39 49t-17.5 59t-5 59.5v126q0 39 -14 54q-10 12 -24.5 16.5 t-24 4.5t-9.5 2q0 24 6 25q106 16 138 26q1 1 3 1h2q4 0 5 -8.5t0 -12.5q-6 -48 -6 -74v-135q0 -77 23 -113.5t75 -36.5q30 0 57 23.5t27 40.5v187q0 39 -14 54q-10 12 -24.5 16.5t-24 4.5t-9.5 2q0 24 6 25q106 16 138 26q1 1 3 1h2q4 0 5 -8.5t0 -12.5q-6 -48 -6 -72z M356 657q16 0 26 -5.5t12.5 -10t2.5 -8.5q0 -25 -71.5 -80.5t-84.5 -55.5q-12 0 -12 13q0 3 15.5 28.5t38 58t39.5 51.5q9 9 34 9z"/>
<glyph glyph-name="ucircumflex" horiz-adv-x="517" unicode="û" d="M354 467q-8 0 -39 22.5t-54 43.5q-22 -21 -52 -43.5t-38 -22.5q-9 0 -9 23q3 4 22 25.5t32 37.5q22 27 37 53q6 10 8 10q5 0 10 -10q24 -39 36 -55q11 -14 24.5 -29t21.5 -23t8 -9q0 -23 -7 -23zM435 341v-200q0 -43 7 -76q2 -7 11 -11t19 -5t20 -1l9 -1q3 -1 3 -11 q0 -3 -2.5 -9.5t-5.5 -6.5q-15 -1 -33.5 -4t-34.5 -7t-30 -8t-22 -7l-9 -2q-8 0 -8 16v51l-2 5q-66 -71 -131 -71q-37 0 -63.5 18.5t-39 49t-17.5 59t-5 59.5v126q0 39 -14 54q-10 12 -24.5 16.5t-24 4.5t-9.5 2q0 24 6 25q106 16 138 26q1 1 3 1h2q4 0 5 -8.5t0 -12.5 q-6 -48 -6 -74v-135q0 -77 23 -113.5t75 -36.5q30 0 57 23.5t27 40.5v187q0 39 -14 54q-10 12 -24.5 16.5t-24 4.5t-9.5 2q0 24 6 25q106 16 138 26q1 1 3 1h2q4 0 5 -8.5t0 -12.5q-6 -48 -6 -72z"/>
<glyph glyph-name="udieresis" horiz-adv-x="517" unicode="ü" d="M435 341v-200q0 -43 7 -76q2 -7 11 -11t19 -5t20 -1l9 -1q3 -1 3 -11q0 -3 -2.5 -9.5t-5.5 -6.5q-15 -1 -33.5 -4t-34.5 -7t-30 -8t-22 -7l-9 -2q-8 0 -8 16v51l-2 5q-66 -71 -131 -71q-37 0 -63.5 18.5t-39 49t-17.5 59t-5 59.5v126q0 39 -14 54q-10 12 -24.5 16.5 t-24 4.5t-9.5 2q0 24 6 25q106 16 138 26q1 1 3 1h2q4 0 5 -8.5t0 -12.5q-6 -48 -6 -74v-135q0 -77 23 -113.5t75 -36.5q30 0 57 23.5t27 40.5v187q0 39 -14 54q-10 12 -24.5 16.5t-24 4.5t-9.5 2q0 24 6 25q106 16 138 26q1 1 3 1h2q4 0 5 -8.5t0 -12.5q-6 -48 -6 -72z M173 595q20 0 34.5 -15t14.5 -35t-15 -34t-35 -14t-35 14.5t-15 34.5t15.5 34.5t35.5 14.5zM356 595q20 0 34.5 -15t14.5 -35t-15 -34t-35 -14t-35 14.5t-15 34.5t15.5 34.5t35.5 14.5z"/>
<glyph glyph-name="yacute" horiz-adv-x="454" unicode="ý" d="M114 429q17 0 31.5 1t33 2t32.5 2q2 -6 2 -15q0 -14 -4 -14q-8 0 -26.5 -7t-20.5 -14v-2q0 -18 107 -261l76 219q7 21 7 31q0 15 -15.5 24.5t-41.5 9.5q-4 0 -4 13q0 12 4 16l39 -3t50 -2q22 0 48 2l39 3q2 -6 2 -15q0 -14 -4 -14q-13 0 -35.5 -9t-29.5 -29l-179 -483 q-23 -62 -52 -86.5t-53 -24.5q-21 0 -31 13t-10 26q0 22 14 32q83 0 110 86l12 36t11 34l-143 350q-11 24 -20 34q-9 9 -27.5 15t-29.5 6q-4 0 -4 13q0 12 4 16q103 -5 108 -5zM359 657q16 0 26 -5.5t12.5 -10t2.5 -8.5q0 -25 -71.5 -80.5t-84.5 -55.5q-12 0 -12 13 q0 3 15.5 28.5t38 58t39.5 51.5q9 9 34 9z"/>
<glyph glyph-name="thorn" horiz-adv-x="513" unicode="þ" d="M262 387q-31 -1 -51 -17t-20 -47v-225q0 -28 29 -46t63 -18q59 0 94 53t35 119q0 84 -44 132t-106 49zM294 436q96 0 150 -64t54 -138q0 -96 -67 -169t-152 -73q-15 0 -27 1t-20 3q-9 2 -14 5q-5 1 -13 5l-10 5q-4 -5 -4 -13v-86q0 -58 8 -89q2 -7 26 -13t34 -7 q3 -1 4 -13t-1 -16q-100 5 -107 5t-109 -5q-4 4 -4 16t4 13q12 1 36 7t25 13q7 29 7 70v655q0 35 -6 65q-5 16 -51 16h-9q-6 0 -6 11q0 16 6 16q30 3 56 8t40 10q14 6 24 10t14 7l5 3h2q4 0 8 -6t5 -10q-11 -32 -11 -87v-184q0 -5 3 -5q14 10 46 22t54 12z"/>
<glyph glyph-name="dotlessi" horiz-adv-x="282" unicode="ı" d="M178 135q0 -58 8 -89q2 -7 26 -13.5t34 -6.5q3 0 4 -12v-7q0 -6 -1 -10q-100 5 -107 5q-6 0 -109 -5q-4 4 -4 16.5t4 12.5q12 0 35.5 6.5t25.5 13.5q7 29 7 70v189q0 39 -14 54q-10 12 -24.5 16.5t-24 4.5t-9.5 2q0 24 6 25q106 16 138 26q1 1 3 1h2q4 0 5 -8.5t0 -12.5 q-5 -40 -5 -72v-206z"/>
<glyph glyph-name="OE" horiz-adv-x="1035" unicode="Œ" d="M369 667q7 1 96 -5t128 -6q43 0 155 4t168 4q4 -28 16 -76t13 -60q-5 -5 -18 -5t-14 7q-15 54 -42 70t-74 16h-67q-86 0 -88 -13q-5 -24 -5 -84v-160q0 -6 43 -6h53h41t26 4t18 5t10 13q6 11 8 17q1 6 7 29q1 7 15 7q12 0 17 -5v-189q-4 -4 -16 -4q-13 0 -16 8 q-7 26 -12 40t-7 16t-9 7q-13 8 -106 8q-72 0 -72 -9v-155q0 -65 9 -91q3 -10 68 -10h48q93 0 126 17q16 7 34 35t29 66q1 6 14 6q19 0 25 -6q-6 -14 -16 -42t-16 -46t-13 -40q-7 -23 -9 -38q-58 0 -178 3t-163 3q-45 0 -118 -5q-60 -4 -113 -4q-132 -1 -223 97t-91 238 t94 240t225 99zM354 625q-95 0 -150 -83t-55 -192q1 -80 29 -152t88 -120t136 -48q50 0 79 7t45 31q10 18 16 38t7 36t1 50v296q0 66 -35 98q-26 24 -63 32t-98 7z"/>
<glyph glyph-name="oe" horiz-adv-x="807" unicode="œ" d="M256 397q-52 -1 -86 -49t-34 -117q0 -83 42 -141t100 -58q53 0 87 50t34 120q0 81 -43 138t-100 57zM589 399q-37 -1 -62 -27t-33 -50t-7 -41q0 -7 6 -7h182q5 2 5 10q0 30 -26 72t-65 43zM267 436q108 0 174 -87q52 86 150 86q47 0 81 -17t52 -45t25 -56q8 -28 8 -56 q1 -20 -5 -24t-24 -4q-42 -1 -236 -1q-5 0 -7 -5q0 -1 -1 -3v-8q-1 -8 -1 -14q1 -2 1 -6v-6q4 -54 42 -96t106 -42q32 0 60 12t42 22q14 12 15 12q6 0 6 -13q0 -12 -6 -18q-70 -75 -148 -75q-105 0 -163 85q-63 -84 -169 -84q-91 -1 -155 65t-64 158t62 156t155 64z"/>
<glyph glyph-name="circumflex" horiz-adv-x="460" unicode="ˆ" d="M732 492q-8 0 -39 22.5t-54 43.5q-22 -21 -52 -43.5t-38 -22.5q-9 0 -9 23q3 4 22 25.5t32 37.5q22 27 37 53q6 10 8 10q5 0 10 -10q24 -39 36 -55q11 -14 24.5 -29t21.5 -23t8 -9q0 -23 -7 -23z"/>
<glyph glyph-name="ring" horiz-adv-x="460" unicode="˚" d="M500 592q0 37 26 63t62 26t61.5 -26t25.5 -63t-25.5 -63.5t-61.5 -26.5t-62 26.5t-26 63.5zM533 592q0 -23 16 -39.5t39 -16.5q22 0 38 16.5t16 39.5t-15.5 39t-38.5 16t-39 -16t-16 -39z"/>
<glyph glyph-name="tilde" horiz-adv-x="413" unicode="˜" d="M650 556q36 0 51 34q2 1 6 1q9 0 9 -16q0 -28 -27.5 -49t-50.5 -21q-29 0 -71 21.5t-69 21.5q-33 0 -49 -35q-2 -1 -6 -1q-9 0 -9 16q0 28 27.5 49t50.5 21q28 0 69 -21t69 -21z"/>
<glyph glyph-name="endash" horiz-adv-x="499" unicode="–" d="M28 209q0 9 4 31t10 22h425q6 0 6 -9q0 -10 -9 -46q0 -3 -2 -5t-4 -2h-1h-423l-4 2q-2 3 -2 7z"/>
<glyph glyph-name="emdash" horiz-adv-x="778" unicode="—" d="M22 219q0 9 4 31t10 22h716q6 0 6 -9q0 -14 -8 -46q-1 -3 -3 -5t-3 -2h-2h-714l-4 2q-2 3 -2 7z"/>
<glyph glyph-name="quoteleft" horiz-adv-x="160" unicode="‘" d="M16 555q0 25 10 51t26 43t32 31t28 20t14 6q12 0 19 -18q-27 -16 -44 -38t-21 -34t-5 -19q1 -13 21 -35t20 -37q0 -19 -20 -31t-45 -12q-9 0 -20 3q-15 22 -15 70z"/>
<glyph glyph-name="quotesinglbase" horiz-adv-x="160" unicode="‚" d="M147 53q-1 -25 -11 -51t-25 -43t-31 -30t-28 -19l-14 -7q-14 0 -20 17q26 16 44 38t22 34t5 19q-1 13 -21 35t-20 37q0 19 20 31t45 12q9 0 20 -3q14 -20 14 -70z"/>
<glyph glyph-name="quotedblleft" horiz-adv-x="309" unicode="“" d="M16 555q0 25 10 51t26 43t32 31t28 20t14 6q12 0 19 -18q-27 -16 -44 -38t-21 -34t-5 -19q1 -13 21 -35t20 -37q0 -19 -20 -31t-45 -12q-9 0 -20 3q-15 22 -15 70zM160 555q0 25 10 51t26 43q15 17 31 31q15 14 27 20t15 6q13 0 20 -18q-27 -16 -45 -38t-22 -34t-4 -19 q0 -13 20 -35t21 -37q1 -19 -19 -31t-45 -12q-11 0 -21 3q-14 20 -14 70z"/>
<glyph glyph-name="quotedblright" horiz-adv-x="310" unicode="”" d="M147 635q-1 -25 -11 -51t-25 -43t-31 -31t-28 -20t-14 -6q-13 0 -20 18q26 16 44 38t22 34t5 19q-1 13 -21 35t-20 37q0 19 20 31t45 12q9 0 20 -3q14 -20 14 -70zM291 635q-1 -25 -11 -51t-25 -43t-31 -31t-28 -20t-15 -6q-12 0 -19 18q27 16 44 38q18 22 22 34t4 19 q0 13 -20 35t-21 37q0 19 20 31t45 12q10 0 20 -3q15 -22 15 -70z"/>
<glyph glyph-name="guilsinglleft" horiz-adv-x="290" unicode="‹" d="M241 423q23 -6 23 -19q0 -6 -9 -16t-52 -50q-13 -12 -47 -48t-41 -43l87 -90q10 -9 20 -19l16 -16l10 -10l8 -8l4 -4t2 -5q0 -2 1 -4q0 -3 -3 -7t-6 -6t-8 -2q-5 -2 -6 -3q-2 3 -20 19t-69 54t-117 81q-7 3 -7 14q0 18 8 27q128 77 206 155z"/>
<glyph glyph-name="guilsinglright" horiz-adv-x="292" unicode="›" d="M51 73q-23 6 -23 18v4t3 5q3 4 5 6l8 8l10 10q6 4 16 14t18 19l87 90q-7 7 -41 43t-47 48l-52 52t-8 14q0 4 3 8t6 4q3 2 8 4t6 3q78 -78 205 -155q9 -10 9 -27q0 -11 -8 -14q-58 -37 -106 -73t-70 -54t-29 -27z"/>
<glyph glyph-name="fraction" horiz-adv-x="75" unicode="⁄" d="M201 721l-419 -707q-9 -16 -20 -16q-9 0 -17 3t-11 6l-3 3l419 707q7 14 16 14q22 0 35 -10z"/>
<glyph glyph-name="Euro" horiz-adv-x="655" unicode="€" d="M371 642q98 0 226 -25q-2 -128 -2 -138q0 -15 -20 -15q-9 0 -12 5q-27 133 -189 133q-94 0 -157 -83q-42 -55 -56 -121h265q5 0 0 -16q-6 -21 -16 -32h-255q-1 -10 -1 -20q0 -22 2 -43h270q5 0 0 -16q-6 -21 -16 -32h-247q6 -27 16 -52q25 -65 81 -109t137 -43 q87 0 140 56q13 13 23 37t16 40q5 16 8 16l32 -8q0 -11 -14 -74t-19 -66q-69 -42 -223 -42q-126 0 -212 93q-62 67 -79 152h-51q-2 0 -2 4t2 11q6 22 16 33h29q-1 11 -1 22q0 21 2 41h-46q-2 0 -2 4t2 11q6 22 16 33h38q20 81 78 146q88 98 221 98z"/>
<glyph glyph-name="minus" horiz-adv-x="544" unicode="−" d="M32 228q4 46 14 46h457q7 0 7 -7q0 -12 -9 -43q-1 -2 -3 -4l-2 -2h-2h-456q-6 0 -6 10z"/>
<glyph glyph-name="gravecomb" d="M47 663q0 4 2.5 8.5t12.5 10t26 5.5q25 0 34 -9q17 -20 40 -53t38 -57.5t15 -27.5q0 -13 -12 -13q-13 0 -84.5 55.5t-71.5 80.5z" horiz-adv-x="247"/>
<glyph glyph-name="acutecomb" d="M173 687q16 0 26 -5.5t12.5 -10t2.5 -8.5q0 -25 -71.5 -80.5t-84.5 -55.5q-12 0 -12 13q0 3 15.5 28.5t38 58t39.5 51.5q9 9 34 9z" horiz-adv-x="234"/>
<glyph glyph-name="tildecomb" d="M248 556q36 0 51 34q2 1 6 1q9 0 9 -16q0 -28 -27.5 -49t-50.5 -21q-29 0 -71 21.5t-69 21.5q-33 0 -49 -35q-2 -1 -6 -1q-9 0 -9 16q0 28 27.5 49t50.5 21q28 0 69 -21t69 -21z" horiz-adv-x="404"/>
<glyph glyph-name="mu" d="M192 -9q-7 0 -13 1.5t-11.5 5.5t-9 7t-8 10.5t-7 11t-6 13t-4.5 12t-5 13t-4 11.5q0 -1 1.5 -53t6 -115t14.5 -115q-12 -20 -24 -20q-9 0 -31 14t-22 23q0 32 6.5 180t14.5 214q0 12 -2 47.5t-2 46.5v119q12 20 24 20q9 0 31 -14t22 -23q0 -46 -23 -154l-5 -23 q0 -66 13 -112.5t38 -46.5q46 0 82.5 49t59.5 114v71v119q12 20 24 20q9 0 31 -14t22 -23q0 -46 -23 -154l-5 -23v-10q0 -146 58 -146q17 0 33.5 10t23.5 20q4 0 10 -10q3 -6 3 -11q-10 -33 -36.5 -56.5t-56.5 -23.5q-22 0 -37.5 22t-21 46t-11.5 64q-59 -137 -150 -137z " horiz-adv-x="509"/>
<glyph glyph-name="gravecomb.cap" d="M213 722q0 -13 -10 -13q-19 0 -99 40t-80 63q0 11 13 20.5t39 9.5q12 0 18 -3q27 -20 73 -65t46 -52z" horiz-adv-x="240"/>
<glyph glyph-name="acutecomb.cap" d="M24 722q0 7 46 52t73 65q6 3 18 3q26 0 39 -9.5t13 -20.5q0 -23 -80 -63t-99 -40q-10 0 -10 13z" horiz-adv-x="240"/>
<glyph glyph-name="uni0302.cap" d="M239 728q-19 0 -105 58q-24 -18 -59 -38t-44 -20q-10 0 -10 20q4 4 25.5 23.5t35.5 32.5q28 26 42 46q7 8 10 8q6 0 11 -8q21 -28 41 -48q13 -12 28.5 -25.5t24.5 -20.5t9 -8q0 -20 -9 -20z" horiz-adv-x="259"/>
<glyph glyph-name="uni030A.cap" d="M96 592q0 37 26.5 63t62.5 26t61.5 -26t25.5 -63t-25.5 -63.5t-61.5 -26.5t-62.5 26.5t-26.5 63.5zM129 592q0 -23 16.5 -39.5t39.5 -16.5q22 0 38 16.5t16 39.5t-15.5 39t-38.5 16t-39.5 -16t-16.5 -39z" horiz-adv-x="424"/>
<glyph glyph-name="tildecomb.cap" d="M286 773q36 0 51 34q2 1 6 1q9 0 9 -16q0 -28 -27.5 -49t-50.5 -21q-29 0 -71 21.5t-69 21.5q-33 0 -49 -35q-2 -1 -6 -1q-9 0 -9 16q0 28 27.5 49t50.5 21q28 0 69 -21t69 -21z" horiz-adv-x="404"/>
<glyph glyph-name="uni0327.cap" d="M216 -27h30q23 0 37.5 -17t14.5 -41q0 -40 -32 -64.5t-79 -24.5q-26 0 -40 10q0 2 -2 7.5t-2 9.5q0 6 5.5 11t11.5 5t19.5 -7.5t23.5 -7.5q24 0 37.5 11.5t13.5 27.5q0 19 -11.5 29.5t-24.5 10.5q-12 0 -31 -8q-2 0 -7.5 6t-4.5 9q3 5 18 27.5t20 32.5h25z" horiz-adv-x="443"/>
<glyph glyph-name="uni0308.narrow" d="M73 566q20 0 34.5 -15t14.5 -35t-15 -34t-35 -14t-35 14.5t-15 34.5t15.5 34.5t35.5 14.5zM233 566q20 0 34.5 -15t14.5 -35t-15 -34t-35 -14t-35 14.5t-15 34.5t15.5 34.5t35.5 14.5z" horiz-adv-x="304"/>
<glyph glyph-name="uni0308.cap" d="M28 762q0 21 14.5 35.5t35.5 14.5t35.5 -14.5t14.5 -35.5t-14.5 -35.5t-35.5 -14.5t-35.5 14.5t-14.5 35.5zM209 762q0 21 14.5 35.5t35.5 14.5t35.5 -14.5t14.5 -35.5t-14.5 -35.5t-35.5 -14.5t-35.5 14.5t-14.5 35.5z" horiz-adv-x="337"/>
</font>
</defs>
</svg>
