<svg xmlns:svg="http://www.w3.org/2000/svg" xmlns="http://www.w3.org/2000/svg" version="1.1" width="20" height="20.5"><path d="M10.4 0.8C5.8 0.6 1.8 4.6 1 8.9 0.2 12.8 2.3 17 6 18.6 10.1 20.6 15.8 19.7 18.3 15.7 20.8 7.9 17.8 1.1 10.4 0.8Z" style="fill:none;stroke-width:1.7;stroke:#fff"/><path d="m10.4 5.6c-1.1 0-2.2 0.4-2.7 1.4-1.5 2.8 0.1 4.1 0.3 6.3 0.1 1.7-2.5 3.8-3.9 3.9 0 0 0.7 1.7 6.4 2.6 4.7-0.7 6.1-2.8 6.1-2.8-2.3 0.1-4.1-2.1-3.6-4.1 0.6-1.9 1.4-3.1 0.1-5.9-0.6-1-1.6-1.5-2.7-1.5z" style="fill-opacity:0.5;fill:#fff;stroke-width:0.7;stroke:#fff"/></svg>