<?xml version="1.0" encoding="utf-8"?>
<svg height="31" width="39" xmlns:xlink="http://www.w3.org/1999/xlink" xmlns="http://www.w3.org/2000/svg" viewBox="0 0 39 31">
    <path fill="#46bb00" fill-rule="evenodd" d="M 24.49 0.72 L 38.87 15.49 L 24.49 30.29 C 24.02 30.76 23.39 31 22.77 31 C 22.15 31 21.52 30.76 21.05 30.29 C 20.1 29.34 20.1 27.79 21.05 26.84 L 30.01 17.87 L 2.43 17.87 C 1.09 17.87 0 16.77 0 15.43 C 0 14.07 1.09 12.99 2.43 12.99 L 29.85 12.99 L 21.05 4.17 C 20.1 3.22 20.1 1.67 21.05 0.72 C 22 -0.24 23.54 -0.24 24.49 0.72 Z M 24.49 0.72" />
</svg>
