<?xml version="1.0" standalone="no"?>
<!DOCTYPE svg PUBLIC "-//W3C//DTD SVG 20010904//EN"
 "http://www.w3.org/TR/2001/REC-SVG-20010904/DTD/svg10.dtd">
<svg version="1.0" xmlns="http://www.w3.org/2000/svg"
 width="700.000000pt" height="700.000000pt" viewBox="0 0 700.000000 700.000000"
 preserveAspectRatio="xMidYMid meet">
<metadata>
Created by potrace 1.11, written by Peter Selinger 2001-2013
</metadata>
<g transform="translate(0.000000,700.000000) scale(0.100000,-0.100000)"
fill="#000000" stroke="none">
<path d="M3290 6949 c-84 -16 -128 -56 -150 -138 -59 -223 163 -624 452 -816
l76 -50 100 -215 c55 -118 144 -309 198 -425 53 -115 112 -244 132 -285 351
-755 630 -1481 677 -1760 3 -19 8 -43 11 -52 4 -13 -10 -24 -55 -47 -107 -53
-208 -128 -315 -233 -80 -79 -84 -80 -251 -49 -198 38 -339 79 -690 204 -153
55 -554 220 -1015 417 -267 114 -513 218 -548 230 -68 25 -68 25 -75 118 -6
82 -65 190 -151 277 -201 203 -498 345 -836 401 -19 3 -105 8 -190 9 -313 8
-516 -67 -608 -224 -24 -41 -27 -56 -26 -136 0 -93 18 -147 73 -230 71 -104
260 -249 427 -326 133 -62 332 -124 458 -145 21 -3 48 -8 60 -11 11 -2 86 -6
166 -8 191 -5 346 21 437 75 44 26 53 25 110 -8 47 -28 261 -134 548 -272 931
-448 1397 -722 1636 -962 71 -71 78 -82 72 -106 -4 -15 -6 -70 -6 -122 2 -116
30 -228 81 -330 20 -41 36 -87 35 -102 -6 -90 -208 -297 -637 -652 -128 -105
-133 -108 -189 -113 -56 -5 -148 -30 -212 -60 -77 -35 -120 -66 -186 -133 -51
-53 -69 -79 -83 -123 -29 -91 -8 -153 64 -195 79 -47 237 -39 350 18 215 107
335 259 300 379 -7 26 -4 32 33 62 23 19 101 85 172 148 250 221 447 365 588
432 l61 28 35 -19 c134 -71 292 -109 441 -103 348 12 640 204 803 528 63 126
89 235 88 367 -3 271 -185 479 -422 480 -167 1 -300 -81 -446 -277 -169 -225
-159 -422 24 -511 153 -75 385 0 462 149 68 133 9 267 -117 267 -53 0 -97 -22
-140 -69 -40 -44 -76 -135 -68 -173 7 -34 -6 -36 -52 -8 -38 23 -62 71 -57
115 6 47 72 168 127 229 115 129 264 164 401 95 162 -83 218 -305 132 -524
-38 -97 -124 -223 -195 -287 -275 -250 -793 -258 -1064 -17 -62 56 -115 138
-136 214 -16 54 -19 175 -8 240 28 154 137 353 298 540 75 88 238 243 295 280
199 132 414 175 644 130 85 -16 232 -84 307 -141 153 -116 230 -242 280 -459
10 -39 5 -231 -6 -285 -6 -30 -14 -66 -16 -80 -11 -54 -58 -180 -100 -268 -86
-178 -204 -342 -360 -499 -110 -111 -93 -105 56 21 175 147 321 305 381 411
17 30 36 55 42 55 7 -1 35 -15 64 -33 29 -18 94 -58 146 -90 90 -56 95 -60
100 -98 10 -77 50 -93 100 -41 73 77 84 232 16 232 -10 0 -21 5 -24 10 -4 7
-13 7 -25 0 -17 -9 -40 4 -145 80 -69 50 -138 103 -154 118 -32 29 -32 22 -5
135 11 45 13 60 19 122 11 105 12 202 2 277 -8 65 -7 71 17 108 29 43 147 164
219 223 268 221 382 305 398 296 66 -35 124 32 133 154 5 65 -11 114 -46 140
-26 19 -28 19 -53 3 -31 -21 -67 -96 -69 -144 -1 -32 -10 -39 -221 -179 -265
-177 -445 -293 -454 -293 -4 0 -26 29 -49 64 -23 36 -61 80 -83 100 l-41 34 7
84 c23 309 82 587 225 1063 28 94 60 203 72 243 16 57 26 76 47 86 36 19 55
43 75 96 54 137 -35 377 -151 409 -90 25 -145 -90 -119 -249 4 -27 3 -65 -4
-95 -7 -27 -14 -61 -16 -75 -3 -14 -14 -63 -25 -110 -11 -47 -22 -92 -24 -100
-4 -20 -35 -151 -40 -170 -108 -423 -191 -671 -298 -882 l-58 -116 -32 9 c-18
5 -45 12 -62 15 -16 3 -46 9 -65 14 -19 5 -57 11 -85 14 -61 8 -82 29 -162
165 -48 81 -243 472 -243 487 0 3 -8 24 -19 47 -110 244 -290 689 -484 1192
-202 525 -296 757 -317 786 -17 25 -18 29 -3 70 23 67 12 180 -28 289 -50 135
-144 276 -269 401 -148 147 -270 214 -440 243 -8 1 -31 -1 -50 -5z"/>
</g>
</svg>
